<?xml version="1.0" encoding="UTF-8" standalone="no"?>
<!-- Created with Inkscape (http://www.inkscape.org/) -->

<svg
   xmlns:dc="http://purl.org/dc/elements/1.1/"
   xmlns:cc="http://creativecommons.org/ns#"
   xmlns:rdf="http://www.w3.org/1999/02/22-rdf-syntax-ns#"
   xmlns:svg="http://www.w3.org/2000/svg"
   xmlns="http://www.w3.org/2000/svg"
   xmlns:sodipodi="http://sodipodi.sourceforge.net/DTD/sodipodi-0.dtd"
   xmlns:inkscape="http://www.inkscape.org/namespaces/inkscape"
   width="266"
   height="544"
   viewBox="0 0 70.379165 143.93334"
   version="1.1"
   id="svg2883"
   inkscape:version="0.92.3 (2405546, 2018-03-11)"
   sodipodi:docname="Filmcity logo RGB (Final Version) March 16, 2019.svg">
  <defs
     id="defs2877" />
  <sodipodi:namedview
     id="base"
     pagecolor="#ffffff"
     bordercolor="#666666"
     borderopacity="1.0"
     inkscape:pageopacity="0.0"
     inkscape:pageshadow="2"
     inkscape:zoom="0.95819672"
     inkscape:cx="125.71429"
     inkscape:cy="210.29065"
     inkscape:document-units="mm"
     inkscape:current-layer="layer1"
     showgrid="false"
     units="px"
     inkscape:window-width="1600"
     inkscape:window-height="837"
     inkscape:window-x="-8"
     inkscape:window-y="-8"
     inkscape:window-maximized="1" />
  <metadata
     id="metadata2880">
    <rdf:RDF>
      <cc:Work
         rdf:about="">
        <dc:format>image/svg+xml</dc:format>
        <dc:type
           rdf:resource="http://purl.org/dc/dcmitype/StillImage" />
        <dc:title></dc:title>
      </cc:Work>
    </rdf:RDF>
  </metadata>
  <g
     inkscape:label="Layer 1"
     inkscape:groupmode="layer"
     id="layer1"
     transform="translate(0,-153.06665)">
    <path
       id="path1494"
       d="m 35.33232,154.45022 c 11.43151,11.46022 22.86582,22.91562 34.31918,34.35398 0,24.37409 0,48.74841 0,73.12248 -11.4399,11.45489 -22.89122,22.89808 -34.33925,34.34459 -11.456661,-11.44143 -22.908241,-22.88742 -34.357791,-34.3357 0,-24.36899 0,-48.73823 0,-73.10724 11.44498,-11.47392 22.91078,-22.92627 34.377861,-34.37836 z"
       class="fil2 str1"
       inkscape:connector-curvature="0"
       style="clip-rule:evenodd;fill:#ffffff;fill-rule:evenodd;stroke:#000000;stroke-width:0.70561147;stroke-miterlimit:2.61313009;image-rendering:optimizeQuality;shape-rendering:geometricPrecision;text-rendering:geometricPrecision" />
    <polygon
       points="6480.76,2774.27 6480.76,2333.39 5979.45,1832.07 5478.14,2333.38 5478.14,2774.27 5979.45,2272.96 "
       class="fil4"
       id="rect4573_0-2"
       style="clip-rule:evenodd;fill:#ff0000;fill-rule:evenodd;image-rendering:optimizeQuality;shape-rendering:geometricPrecision;text-rendering:geometricPrecision"
       transform="matrix(0.02539998,0,0,0.02539998,-116.57481,135.09163)" />
    <path
       d="m 22.569839,205.55779 v 1.43204 l 1.40513,1.40512 v 2.77952 l -1.40513,-1.40512 v 10.58899 l 1.40513,1.40513 v 2.77952 l -1.40513,-1.40512 v 1.42774 l 12.733271,12.73326 12.73326,-12.73326 v -1.42748 l -1.40512,1.40513 v -2.77952 l 1.40512,-1.40513 v -10.589 l -1.40512,1.40513 v -2.77953 l 1.40512,-1.40512 v -1.43206 L 35.30311,218.29129 22.569839,205.55803 Z m 25.466531,1.43204 v 2.77952 l 0.001,-0.001 v -2.77977 z m 0,13.36878 v 2.77952 l 0.001,-10e-4 v -2.77952 z m -25.466531,2.77952 v -2.77952 l -0.001,-0.001 v 2.77952 z m 0,-13.36878 v -2.77952 l -0.001,-0.001 v 2.77978 z m 2.67234,-0.10642 1.40639,1.4064 v 2.77952 l -1.40639,-1.40641 z m 20.121611,0 v 2.77951 l -1.4064,1.40641 v -2.77952 z m -17.448011,2.67436 1.4064,1.40639 v 2.77953 l -1.4064,-1.4064 z m 14.774411,0 v 2.77952 l -1.4064,1.4064 v -2.77953 z m -12.100811,2.67436 1.406401,1.40641 v 2.77951 l -1.406401,-1.4064 z m 9.427201,0 v 2.77952 l -1.40639,1.4064 v -2.77951 z m -6.7536,2.67437 1.4064,1.4064 v 2.77952 l -1.4064,-1.40641 z m 4.08,0 v 2.77951 l -1.4064,1.40641 v -2.77952 z m -12.100801,5.34567 1.40639,1.4064 v 2.77953 l -1.40639,-1.4064 z m 20.121611,0 v 2.77953 l -1.4064,1.4064 v -2.77953 z m -17.448011,2.67412 1.4064,1.4064 v 2.77952 l -1.4064,-1.4064 z m 14.774411,0 v 2.77952 l -1.4064,1.4064 v -2.77952 z m -12.100811,2.67436 1.406401,1.40639 v 2.77953 l -1.406401,-1.40639 z m 9.427201,0 v 2.77953 l -1.40639,1.40639 v -2.77953 z m -6.7536,2.67437 1.4064,1.4064 v 2.77977 l -1.4064,-1.4064 v -2.77953 z m 4.08,0 v 2.77951 l -1.4064,1.40641 v -2.77978 l 1.4064,-1.40639 z"
       class="fil5"
       id="path4578_1-4"
       inkscape:connector-curvature="0"
       style="clip-rule:evenodd;fill:#000000;fill-rule:evenodd;stroke-width:0.02539998;image-rendering:optimizeQuality;shape-rendering:geometricPrecision;text-rendering:geometricPrecision" />
    <g
       style="clip-rule:evenodd;fill-rule:evenodd;image-rendering:optimizeQuality;shape-rendering:geometricPrecision;text-rendering:geometricPrecision"
       id="g1500"
       transform="matrix(0.02708859,0,0,0.02708859,-126.67136,130.64582)">
      <path
         style="fill:#000000;fill-rule:nonzero"
         inkscape:connector-curvature="0"
         class="fil6"
         d="m 4982.2194,2455.51 -18.29,18.28 106.3,106.3 -21.93,21.93 -43.5,-43.51 -37.69,37.69 12.01,12.01 c 1.12,1.11 2.24,2.35 3.35,3.64 1.11,1.29 1.98,2.67 2.58,4.07 0.57,1.44 0.78,2.9 0.63,4.42 -0.17,1.49 -1,3.01 -2.52,4.53 -2.06,2.06 -4.93,3.73 -8.54,4.93 -3.61,1.2 -7.59,2.04 -12.04,2.52 -4.42,0.52 -9.06,0.63 -13.87,0.34 -4.81,-0.28 -9.4,-0.86 -13.78,-1.75 -4.33,-0.89 -8.34,-2.09 -11.95,-3.58 -3.58,-1.46 -6.42,-3.21 -8.43,-5.22 -0.69,-0.69 -1.26,-1.43 -1.78,-2.3 -0.49,-0.83 -0.72,-1.8 -0.61,-2.89 0.06,-1.09 0.49,-2.32 1.18,-3.7 0.69,-1.37 1.92,-2.95 3.72,-4.76 l 9.23,-9.23 -43.91,-43.91 -29.4,29.4 -18.89,-18.89 129.22,-129.22 18.89,18.89 z m -77.9,77.9 43.91,43.91 37.69,-37.69 -43.91,-43.91 z m 196.98,-196.98 -18.31,18.31 106.3,106.3 -23.5,23.5 -59.36,-59.35 -36.37,36.37 c 3.78,3.78 6.96,7.08 9.52,9.86 2.57,2.75 4.41,5.22 5.56,7.39 1.15,2.12 1.55,4.13 1.26,5.96 -0.31,1.8 -1.43,3.67 -3.32,5.56 -2.35,2.35 -5.13,4.22 -8.37,5.51 -3.21,1.32 -6.59,2.18 -10.17,2.55 -3.61,0.41 -7.25,0.37 -11,-0.06 -3.76,-0.48 -7.37,-1.23 -10.86,-2.32 -3.5,-1.09 -6.76,-2.46 -9.74,-4.13 -3.01,-1.63 -5.56,-3.5 -7.62,-5.56 -2.07,-2.06 -3.36,-4.04 -3.93,-5.87 -0.54,-1.86 -0.54,-3.64 0.06,-5.39 0.63,-1.72 1.72,-3.5 3.26,-5.33 1.52,-1.81 3.35,-3.81 5.48,-5.93 l 57.43,-57.43 -28.12,-28.12 -83.14,83.14 -18.89,-18.89 124.95,-124.95 18.89,18.89 z m 52.88,-52.88 -18.28,18.28 106.3,106.3 -21.93,21.93 -106.3,-106.3 -18.57,18.57 -18.89,-18.89 58.78,-58.78 z m -54.54,21.46 -6.96,-2.09 c -8.4,-2.61 -15.62,-4.73 -21.73,-6.36 -6.04,-1.63 -11.26,-2.84 -15.65,-3.56 -4.35,-0.75 -8,-1.06 -10.95,-0.98 -2.95,0.09 -5.53,0.55 -7.76,1.41 -2.24,0.8 -4.3,2.01 -6.16,3.53 -1.89,1.55 -3.9,3.38 -6.02,5.5 l -17.14,17.14 -18.8,-18.8 15.62,-15.62 c 4.41,-4.41 8.37,-8.09 11.81,-10.95 3.44,-2.87 7.02,-5.02 10.72,-6.31 3.72,-1.31 7.94,-1.92 12.61,-1.78 4.67,0.14 10.49,1.03 17.43,2.64 6.96,1.63 15.36,3.95 25.22,7 9.83,3.01 21.78,6.76 35.82,11.17 z m 107.44,-74.37 -18.28,18.28 106.39,106.39 -21.93,21.93 -106.39,-106.39 -18.57,18.57 -18.89,-18.89 18.91,-18.91 c -10.09,-3.78 -18.08,-8.69 -24.02,-14.62 -4.47,-4.47 -7.91,-9.52 -10.23,-15.1 -2.38,-5.59 -3.33,-11.58 -2.92,-17.94 0.43,-6.33 2.41,-13.01 6.02,-20 3.55,-7 9.02,-14.19 16.33,-21.5 8.8,-8.8 18.37,-15.85 28.69,-21.12 10.34,-5.3 21.32,-9.11 32.93,-11.49 11.61,-2.38 23.84,-3.5 36.69,-3.27 12.84,0.17 26.17,1.35 39.92,3.47 l -20.15,20.15 c -3.9,0 -8.4,0.09 -13.47,0.22 -5.07,0.15 -10.46,0.54 -16.16,1.21 -5.7,0.66 -11.58,1.66 -17.63,2.95 -6.07,1.26 -12.04,2.98 -17.94,5.16 -5.91,2.12 -11.61,4.85 -17.08,8.08 -5.5,3.27 -10.49,7.17 -15.02,11.69 -3.98,3.98 -7,7.85 -9,11.63 -2,3.84 -3.15,7.51 -3.44,11.01 -0.28,3.55 0.23,6.88 1.55,9.98 1.31,3.09 3.32,6.02 5.99,8.68 2.35,2.35 5.1,4.41 8.25,6.13 3.12,1.75 6.76,3.21 10.92,4.44 l 19.63,-19.63 18.89,18.89 z m 109.42,-109.43 -18.31,18.31 106.3,106.3 -21.9,21.89 -24.68,-24.68 -0.6,0.43 c -1.18,5.54 -3.04,10.6 -5.56,15.19 -2.53,4.58 -5.54,8.63 -9.06,12.15 -5.16,5.16 -11.21,9.14 -18.2,11.89 -6.96,2.78 -14.15,4.24 -21.58,4.33 -7.45,0.11 -14.79,-1.15 -21.96,-3.73 -7.19,-2.61 -13.58,-6.71 -19.2,-12.33 -5.13,-5.13 -8.97,-10.92 -11.46,-17.31 -2.5,-6.45 -3.73,-12.96 -3.67,-19.6 0.09,-6.68 1.41,-13.21 4.1,-19.63 2.67,-6.39 6.56,-12.18 11.69,-17.31 0.92,-0.92 2.26,-2.15 4.07,-3.67 1.83,-1.55 4.1,-3.13 6.82,-4.7 2.69,-1.61 5.87,-3.12 9.52,-4.59 3.64,-1.46 7.74,-2.52 12.27,-3.27 l 0.26,-0.43 -19.06,-19.06 -75.09,75.09 -18.89,-18.89 115.3,-115.3 18.89,18.89 z m -0.94,78.85 c -6.91,-0.55 -12.78,0.17 -17.59,2.18 -4.85,2.04 -8.71,4.53 -11.67,7.48 -2.93,2.92 -5.1,6.13 -6.56,9.66 -1.46,3.53 -2.21,7.08 -2.3,10.66 -0.02,3.58 0.57,7.05 1.83,10.38 1.26,3.32 3.15,6.24 5.67,8.77 2.41,2.41 5.25,4.33 8.6,5.73 3.33,1.43 6.79,2.26 10.4,2.44 3.61,0.23 7.25,-0.31 10.89,-1.55 3.61,-1.2 6.96,-3.35 9.98,-6.36 2.98,-2.98 5.07,-6.28 6.36,-9.92 1.29,-3.64 1.92,-7.25 1.8,-10.86 -0.06,-3.61 -0.74,-7.05 -2.03,-10.29 -1.3,-3.24 -3.04,-5.96 -5.22,-8.14 l -10.17,-10.17 z m 169.3,-103.43 c 1.66,-5.39 2.72,-10.46 3.18,-15.28 0.46,-4.81 0.37,-9.26 -0.17,-13.35 -0.55,-4.1 -1.58,-7.71 -3.01,-10.92 -1.46,-3.18 -3.27,-5.84 -5.39,-7.96 -1.41,-1.41 -3.13,-2.72 -5.1,-3.96 -2.04,-1.23 -4.19,-2.06 -6.45,-2.49 -2.23,-0.4 -4.56,-0.31 -6.94,0.23 -2.35,0.57 -4.58,1.89 -6.7,4.01 -2.18,2.17 -3.78,4.87 -4.73,8.05 -0.98,3.16 -1.49,6.54 -1.43,10.15 0,3.61 0.46,7.33 1.32,11.12 0.83,3.81 1.95,7.51 3.41,11.09 l 55.08,55.09 -21.89,21.89 -27.63,-27.63 -0.26,0.09 c -0.23,1.15 -0.55,2.55 -1.03,4.3 -0.43,1.75 -1.09,3.67 -2.01,5.79 -0.89,2.15 -2.09,4.39 -3.58,6.8 -1.52,2.43 -3.47,4.78 -5.82,7.13 -4.93,4.93 -10.69,8.63 -17.39,11.09 -6.65,2.46 -13.5,3.64 -20.61,3.52 -7.13,-0.09 -14.16,-1.55 -21.13,-4.33 -6.99,-2.75 -13.21,-6.91 -18.69,-12.38 -4.58,-4.58 -8.2,-9.74 -10.8,-15.39 -2.61,-5.7 -4.04,-11.55 -4.28,-17.57 -0.26,-5.99 0.78,-12.01 3.04,-18 2.32,-5.99 6.1,-11.61 11.38,-16.88 3.72,-3.72 7.94,-6.79 12.64,-9.14 4.72,-2.38 10.69,-4.1 18,-5.21 l 0.09,-0.26 -18.23,-18.23 -69.13,69.13 -18.89,-18.89 161.64,-161.64 18.89,18.89 -70.62,70.62 19.81,19.8 0.26,-0.09 c 0.2,-3.75 0.75,-7.22 1.69,-10.4 0.94,-3.18 2.15,-6.1 3.52,-8.74 1.41,-2.61 2.89,-4.95 4.44,-6.96 1.57,-2.03 3.07,-3.75 4.53,-5.21 4.93,-4.93 10.31,-8.31 16.13,-10.24 5.81,-1.92 11.67,-2.61 17.51,-2.15 5.85,0.46 11.49,2.04 16.96,4.65 5.45,2.58 10.29,5.99 14.47,10.17 4.39,4.39 7.88,9.43 10.63,15.16 2.69,5.73 4.61,11.95 5.65,18.6 1.06,6.68 1.29,13.67 0.75,21.04 -0.61,7.36 -1.98,14.87 -4.19,22.53 l -28.94,-7.63 z m -65.83,-0.31 c -2.27,-0.03 -4.62,0.03 -7.08,0.14 -2.46,0.12 -4.9,0.49 -7.31,1.06 -2.46,0.57 -4.87,1.49 -7.25,2.66 -2.38,1.24 -4.61,2.9 -6.74,5.02 -2.58,2.57 -4.41,5.28 -5.44,8.14 -1.09,2.87 -1.52,5.7 -1.35,8.57 0.15,2.84 0.92,5.62 2.24,8.31 1.35,2.67 3.15,5.16 5.39,7.39 2.58,2.58 5.42,4.56 8.48,5.96 3.06,1.41 6.25,2.12 9.51,2.24 3.27,0.06 6.48,-0.52 9.66,-1.8 3.18,-1.24 6.13,-3.27 8.94,-6.08 3.18,-3.18 5.24,-6.39 6.19,-9.69 0.92,-3.27 1.06,-6.44 0.4,-9.57 -0.63,-3.09 -1.86,-6.05 -3.64,-8.85 -1.81,-2.78 -3.81,-5.3 -6.04,-7.54 z m 106.12,-183.74 -18.29,18.28 106.3,106.3 -21.92,21.92 -106.3,-106.3 -18.57,18.57 -18.89,-18.89 58.78,-58.78 18.89,18.89 z m -24.76,-13.01 143.09,-143.1 18.89,18.89 -18.31,18.31 106.3,106.3 -21.92,21.92 -51.99,-51.99 -43.22,43.22 c -1.06,5.47 -3.38,10.89 -6.96,16.42 l 0.17,0.46 c 4.96,1.75 10.06,3.18 15.19,4.3 5.13,1.12 10.49,1.95 16,2.46 5.53,0.54 11.26,0.78 17.25,0.75 5.99,-0.09 12.3,-0.37 18.89,-0.95 l 1.55,29.23 c -7.43,0.43 -15.16,0.43 -23.24,-0.02 -8.11,-0.49 -16.22,-1.26 -24.44,-2.38 -8.2,-1.09 -16.31,-2.44 -24.3,-4.07 -8,-1.63 -15.65,-3.32 -22.93,-5.16 -7.33,-1.83 -14.1,-3.67 -20.37,-5.59 -6.28,-1.92 -11.78,-3.7 -16.48,-5.36 l 9.09,-28.06 c 7.54,3.3 13.79,5.02 18.66,5.13 4.84,0.09 8.54,-1.09 11.06,-3.61 1.46,-1.46 2.32,-3.13 2.63,-4.99 0.31,-1.86 0.15,-3.87 -0.54,-5.93 -0.69,-2.06 -1.81,-4.21 -3.35,-6.45 -1.58,-2.26 -3.5,-4.53 -5.79,-6.82 -4.47,-4.47 -9.46,-8.14 -14.87,-10.98 -5.42,-2.9 -11.44,-4.9 -18.06,-6.14 l -43.07,43.07 -18.89,-18.89 z m 157.34,-48.37 -35.59,-35.6 -37.03,37.03 c 6.51,2.21 12.47,4.85 17.91,7.89 5.42,3 10.43,6.82 15.02,11.41 1.63,1.63 3.12,3.3 4.53,5.04 1.41,1.75 2.72,3.52 4.01,5.39 l 31.15,-31.15 z m 57.52,-128.71 -18.28,18.29 106.3,106.3 -21.92,21.92 -106.3,-106.3 -18.57,18.57 -18.89,-18.89 58.78,-58.78 18.89,18.89 z m -5.87,5.87 -18.89,-18.89 120.57,-120.57 18.89,18.89 -18.28,18.28 106.3,106.3 -21.93,21.93 -31.15,-31.15 -0.34,0.17 c -0.35,2.24 -0.8,4.58 -1.43,7.05 -0.6,2.44 -1.46,4.96 -2.58,7.56 -1.12,2.56 -2.58,5.22 -4.39,7.88 -1.78,2.69 -4.04,5.42 -6.76,8.14 -7.17,7.17 -14.87,12 -23.01,14.53 -8.2,2.52 -16.42,3.29 -24.73,2.38 -8.31,-0.92 -16.48,-3.19 -24.48,-6.82 -8,-3.64 -15.48,-8.08 -22.33,-13.27 3.12,-4.04 5.36,-7.83 6.68,-11.38 1.29,-3.58 1.89,-6.87 1.78,-9.97 -0.08,-3.07 -0.8,-5.91 -2.09,-8.46 -1.26,-2.58 -2.95,-4.9 -5.05,-6.99 -2.49,-2.5 -5.53,-4.62 -9.06,-6.36 -3.52,-1.75 -7.8,-3.15 -12.76,-4.21 z m 72.48,-33.15 c 5.41,5.41 8.77,11.57 10.11,18.48 1.32,6.93 0.43,14.3 -2.67,22.21 4.13,2.53 8.02,4.24 11.81,5.16 3.78,0.92 7.34,1.2 10.67,0.86 3.35,-0.37 6.44,-1.29 9.31,-2.78 2.89,-1.46 5.5,-3.39 7.88,-5.76 5.24,-5.25 8.46,-11.09 9.69,-17.48 1.21,-6.42 0.72,-13.21 -1.41,-20.37 l -47.52,-47.52 -33.67,33.67 c 5.56,1.26 10.49,3.1 14.79,5.45 4.3,2.35 7.96,5.04 11.01,8.08 z m 73.05,-140.58 79.67,86.21 -21.49,21.49 -86.07,-79.82 27.89,-27.89 z m 108.54,136.11 c -4.47,4.47 -9.52,6.82 -15.13,6.99 -5.62,0.23 -10.38,-1.61 -14.24,-5.47 -4.04,-4.04 -5.85,-8.83 -5.5,-14.33 0.37,-5.53 2.78,-10.46 7.2,-14.87 4.5,-4.5 9.46,-6.88 14.9,-7.11 5.48,-0.26 10.17,1.57 14.16,5.56 4.04,4.04 5.93,8.8 5.76,14.24 -0.23,5.44 -2.58,10.44 -7.13,14.99 z"
         id="path1496" />
      <path
         style="fill:#000000;fill-rule:nonzero"
         inkscape:connector-curvature="0"
         class="fil6"
         d="m 6215.5906,1779.86 c 5.39,1.66 10.46,2.72 15.28,3.18 4.81,0.46 9.26,0.37 13.35,-0.17 4.1,-0.54 7.71,-1.58 10.92,-3.01 3.18,-1.46 5.84,-3.26 7.96,-5.39 1.41,-1.41 2.72,-3.12 3.96,-5.1 1.23,-2.04 2.06,-4.19 2.49,-6.45 0.4,-2.23 0.31,-4.56 -0.23,-6.93 -0.57,-2.35 -1.89,-4.59 -4.01,-6.71 -2.18,-2.18 -4.87,-3.78 -8.05,-4.72 -3.16,-0.98 -6.54,-1.49 -10.15,-1.43 -3.61,0 -7.33,0.46 -11.12,1.32 -3.81,0.83 -7.51,1.94 -11.09,3.41 l -55.09,55.09 -21.89,-21.9 27.63,-27.63 -0.09,-0.26 c -1.15,-0.23 -2.55,-0.54 -4.3,-1.03 -1.75,-0.44 -3.67,-1.09 -5.79,-2.01 -2.15,-0.89 -4.39,-2.09 -6.8,-3.58 -2.43,-1.52 -4.78,-3.47 -7.13,-5.82 -4.93,-4.93 -8.63,-10.69 -11.09,-17.39 -2.46,-6.65 -3.64,-13.5 -3.52,-20.61 0.09,-7.13 1.55,-14.16 4.33,-21.12 2.75,-6.99 6.91,-13.21 12.38,-18.69 4.58,-4.59 9.74,-8.2 15.39,-10.8 5.7,-2.61 11.55,-4.04 17.57,-4.27 5.99,-0.26 12.01,0.78 18,3.04 5.99,2.33 11.61,6.11 16.88,11.38 3.72,3.72 6.79,7.94 9.14,12.64 2.38,4.73 4.1,10.69 5.21,18 l 0.26,0.09 18.23,-18.23 -69.13,-69.13 18.89,-18.89 161.64,161.64 -18.89,18.89 -70.61,-70.61 -19.81,19.8 0.09,0.26 c 3.75,0.2 7.22,0.74 10.41,1.69 3.18,0.94 6.1,2.15 8.74,3.52 2.61,1.41 4.95,2.9 6.96,4.44 2.03,1.57 3.75,3.07 5.21,4.53 4.93,4.93 8.31,10.32 10.24,16.14 1.92,5.81 2.61,11.66 2.15,17.51 -0.46,5.85 -2.04,11.49 -4.65,16.96 -2.58,5.45 -5.99,10.29 -10.17,14.48 -4.39,4.38 -9.43,7.88 -15.16,10.63 -5.73,2.69 -11.95,4.61 -18.6,5.65 -6.68,1.06 -13.67,1.29 -21.04,0.74 -7.36,-0.6 -14.87,-1.98 -22.53,-4.19 l 7.63,-28.94 z m 0.31,-65.83 c 0.03,-2.27 -0.03,-4.61 -0.14,-7.08 -0.12,-2.47 -0.49,-4.9 -1.06,-7.31 -0.57,-2.47 -1.49,-4.87 -2.66,-7.25 -1.24,-2.38 -2.9,-4.62 -5.02,-6.74 -2.57,-2.58 -5.28,-4.41 -8.14,-5.45 -2.87,-1.09 -5.7,-1.52 -8.57,-1.35 -2.84,0.15 -5.62,0.92 -8.31,2.24 -2.67,1.34 -5.16,3.15 -7.39,5.39 -2.58,2.58 -4.56,5.42 -5.96,8.48 -1.41,3.07 -2.12,6.25 -2.24,9.51 -0.06,3.27 0.52,6.48 1.8,9.66 1.24,3.18 3.27,6.13 6.08,8.94 3.18,3.18 6.39,5.24 9.69,6.19 3.27,0.92 6.44,1.06 9.57,0.4 3.09,-0.63 6.05,-1.86 8.85,-3.64 2.78,-1.81 5.3,-3.81 7.54,-6.05 l 5.96,-5.96 z m 115.98,250.97 73.63,-73.62 c -0.54,-0.78 -1.09,-1.55 -1.66,-2.3 -0.54,-0.72 -1.2,-1.43 -1.95,-2.18 -2.35,-2.35 -4.85,-3.93 -7.45,-4.75 -2.63,-0.86 -5.27,-1.09 -7.85,-0.75 -2.61,0.37 -5.13,1.23 -7.56,2.52 -2.44,1.35 -4.59,2.93 -6.51,4.85 -0.77,0.78 -1.55,1.66 -2.26,2.61 -0.71,0.94 -1.41,1.86 -2.09,2.78 l -19.49,-19.48 c 2.24,-2.93 4.36,-5.91 6.36,-9 2.04,-3.06 3.56,-6.07 4.64,-9 1.06,-2.9 1.49,-5.68 1.29,-8.34 -0.2,-2.66 -1.35,-5.02 -3.41,-7.08 -1.69,-1.69 -3.52,-2.72 -5.53,-3.12 -2,-0.4 -4.15,-0.26 -6.42,0.4 -2.3,0.63 -4.59,1.78 -6.94,3.38 -2.35,1.6 -4.67,3.58 -6.96,5.87 -5.82,5.82 -9.97,12.15 -12.47,18.94 -2.49,6.79 -3.78,13.81 -3.92,21.07 -0.15,7.25 0.63,14.61 2.32,22.09 1.72,7.45 3.87,14.81 6.5,22.04 l -26.28,6.79 c -1.32,-3.04 -2.81,-7.11 -4.41,-12.21 -1.57,-5.13 -2.89,-10.92 -3.98,-17.34 -1.06,-6.45 -1.72,-13.36 -1.95,-20.69 -0.26,-7.37 0.29,-14.79 1.63,-22.21 1.32,-7.45 3.67,-14.73 7,-21.89 3.35,-7.14 7.99,-13.67 13.98,-19.67 5.04,-5.04 10.52,-9.08 16.45,-12.09 5.96,-3.04 11.95,-4.85 17.96,-5.47 6.05,-0.6 11.95,0.03 17.74,1.92 5.76,1.92 11.03,5.25 15.79,10 3.24,3.24 5.65,6.5 7.25,9.77 1.58,3.3 2.61,6.45 3.09,9.52 0.46,3.04 0.6,5.93 0.32,8.69 -0.29,2.75 -0.66,5.19 -1.12,7.31 l 0.52,0.34 c 3.2,-0.97 6.33,-1.41 9.4,-1.37 3.09,0.06 6.02,0.52 8.83,1.37 2.78,0.83 5.39,2.01 7.8,3.5 2.43,1.52 4.58,3.27 6.53,5.22 1.03,1.03 2.01,2.12 2.95,3.29 0.98,1.15 1.89,2.41 2.78,3.76 l 11.75,-11.75 -97.33,-97.33 18.89,-18.89 137.54,137.54 -18.89,18.89 -18.29,-18.29 -106.3,106.3 -21.92,-21.93 z m 199.41,-13.19 -18.29,-18.28 -106.3,106.3 -21.92,-21.93 106.3,-106.3 -18.57,-18.57 18.89,-18.89 58.78,58.78 z m 52.91,52.91 -18.29,-18.29 -106.39,106.39 -21.92,-21.93 106.39,-106.39 -18.57,-18.57 18.89,-18.89 18.91,18.91 c 3.78,-10.09 8.69,-18.08 14.62,-24.02 4.47,-4.47 9.51,-7.91 15.1,-10.23 5.59,-2.38 11.58,-3.33 17.94,-2.92 6.33,0.43 13.01,2.41 20,6.02 6.99,3.56 14.19,9.03 21.5,16.34 8.8,8.8 15.85,18.37 21.12,28.69 5.3,10.35 9.11,21.32 11.49,32.93 2.38,11.61 3.5,23.84 3.27,36.68 -0.17,12.84 -1.35,26.17 -3.47,39.93 l -20.15,-20.15 c 0,-3.9 -0.09,-8.4 -0.22,-13.47 -0.15,-5.07 -0.55,-10.46 -1.21,-16.17 -0.66,-5.7 -1.66,-11.57 -2.95,-17.63 -1.26,-6.07 -2.98,-12.04 -5.15,-17.94 -2.13,-5.9 -4.85,-11.6 -8.09,-17.08 -3.27,-5.5 -7.17,-10.49 -11.69,-15.02 -3.98,-3.98 -7.85,-7 -11.63,-9 -3.84,-2 -7.51,-3.15 -11.01,-3.44 -3.55,-0.28 -6.88,0.23 -9.97,1.55 -3.09,1.32 -6.02,3.33 -8.69,5.99 -2.35,2.35 -4.41,5.1 -6.13,8.26 -1.75,3.12 -3.21,6.76 -4.44,10.92 l 19.63,19.63 -18.89,18.89 z m 109.42,109.42 -18.31,-18.31 -106.3,106.3 -21.89,-21.89 24.67,-24.68 -0.43,-0.6 c -5.53,-1.17 -10.6,-3.04 -15.19,-5.56 -4.59,-2.52 -8.63,-5.53 -12.15,-9.06 -5.16,-5.16 -9.14,-11.21 -11.89,-18.2 -2.78,-6.96 -4.24,-14.16 -4.33,-21.58 -0.11,-7.45 1.15,-14.79 3.73,-21.96 2.61,-7.19 6.7,-13.58 12.32,-19.2 5.13,-5.13 10.92,-8.97 17.31,-11.46 6.45,-2.5 12.95,-3.73 19.6,-3.67 6.68,0.09 13.21,1.41 19.63,4.1 6.39,2.67 12.18,6.56 17.31,11.69 0.92,0.92 2.15,2.26 3.67,4.07 1.55,1.83 3.12,4.1 4.7,6.82 1.61,2.69 3.13,5.87 4.59,9.52 1.46,3.64 2.52,7.74 3.27,12.27 l 0.43,0.26 19.06,-19.06 -75.09,-75.09 18.89,-18.89 115.3,115.3 -18.89,18.89 z m -78.85,-0.94 c 0.55,-6.91 -0.17,-12.78 -2.17,-17.59 -2.04,-4.85 -4.53,-8.71 -7.48,-11.67 -2.93,-2.92 -6.14,-5.1 -9.66,-6.56 -3.53,-1.46 -7.08,-2.21 -10.67,-2.3 -3.58,-0.02 -7.05,0.57 -10.37,1.83 -3.32,1.26 -6.25,3.15 -8.77,5.67 -2.41,2.41 -4.33,5.25 -5.73,8.6 -1.44,3.33 -2.27,6.8 -2.44,10.41 -0.23,3.61 0.31,7.25 1.55,10.89 1.2,3.61 3.35,6.96 6.36,9.98 2.98,2.98 6.28,5.07 9.92,6.36 3.64,1.29 7.25,1.92 10.86,1.81 3.61,-0.06 7.05,-0.74 10.28,-2.04 3.24,-1.29 5.96,-3.04 8.14,-5.22 l 10.17,-10.17 z m 63.97,198.67 73.63,-73.63 c -0.54,-0.78 -1.09,-1.55 -1.66,-2.3 -0.55,-0.72 -1.2,-1.43 -1.95,-2.18 -2.35,-2.35 -4.84,-3.93 -7.45,-4.76 -2.64,-0.86 -5.28,-1.09 -7.86,-0.75 -2.6,0.37 -5.13,1.23 -7.56,2.52 -2.44,1.35 -4.58,2.93 -6.5,4.85 -0.78,0.78 -1.55,1.66 -2.26,2.61 -0.72,0.94 -1.41,1.86 -2.09,2.78 l -19.49,-19.49 c 2.24,-2.93 4.36,-5.91 6.36,-9 2.04,-3.07 3.56,-6.08 4.65,-9 1.06,-2.9 1.49,-5.67 1.29,-8.34 -0.2,-2.66 -1.35,-5.01 -3.41,-7.08 -1.69,-1.69 -3.52,-2.72 -5.53,-3.12 -2,-0.4 -4.16,-0.26 -6.42,0.4 -2.3,0.63 -4.58,1.78 -6.93,3.38 -2.35,1.61 -4.67,3.58 -6.96,5.87 -5.82,5.82 -9.98,12.15 -12.47,18.94 -2.49,6.79 -3.78,13.81 -3.92,21.07 -0.15,7.25 0.63,14.61 2.32,22.09 1.72,7.45 3.87,14.81 6.51,22.04 l -26.28,6.8 c -1.32,-3.04 -2.81,-7.11 -4.42,-12.21 -1.57,-5.13 -2.89,-10.92 -3.98,-17.34 -1.06,-6.45 -1.72,-13.35 -1.95,-20.69 -0.26,-7.37 0.29,-14.79 1.63,-22.21 1.32,-7.45 3.67,-14.73 7,-21.9 3.35,-7.14 7.99,-13.67 13.98,-19.66 5.04,-5.04 10.52,-9.08 16.45,-12.09 5.96,-3.04 11.95,-4.84 17.97,-5.47 6.05,-0.6 11.95,0.03 17.74,1.92 5.76,1.93 11.03,5.25 15.79,10.01 3.24,3.24 5.65,6.5 7.25,9.77 1.58,3.3 2.61,6.44 3.09,9.51 0.46,3.04 0.61,5.93 0.32,8.69 -0.29,2.74 -0.66,5.19 -1.12,7.3 l 0.52,0.35 c 3.21,-0.98 6.33,-1.41 9.4,-1.38 3.1,0.06 6.02,0.52 8.83,1.38 2.78,0.83 5.39,2.01 7.8,3.5 2.43,1.52 4.58,3.27 6.53,5.22 1.04,1.03 2.01,2.12 2.95,3.29 0.98,1.15 1.89,2.41 2.78,3.76 l 11.75,-11.75 -97.33,-97.33 18.89,-18.89 137.54,137.54 -18.89,18.89 -18.29,-18.29 -106.3,106.3 -21.93,-21.92 z m 199.41,-13.19 -18.28,-18.28 -106.3,106.3 -21.93,-21.92 106.3,-106.3 -18.57,-18.57 18.89,-18.89 58.78,58.78 -18.89,18.89 z m 13.01,-24.76 143.1,143.1 -18.89,18.89 -18.31,-18.31 -106.3,106.3 -21.93,-21.92 51.99,-51.99 -43.22,-43.22 c -5.48,-1.06 -10.89,-3.38 -16.43,-6.96 l -0.46,0.17 c -1.75,4.96 -3.18,10.06 -4.3,15.19 -1.12,5.13 -1.95,10.49 -2.46,16 -0.54,5.53 -0.77,11.26 -0.74,17.25 0.08,5.99 0.37,12.3 0.94,18.89 l -29.23,1.55 c -0.43,-7.43 -0.43,-15.16 0.03,-23.24 0.48,-8.11 1.26,-16.22 2.38,-24.44 1.09,-8.2 2.44,-16.31 4.07,-24.3 1.63,-8 3.32,-15.65 5.16,-22.93 1.83,-7.33 3.67,-14.1 5.59,-20.37 1.92,-6.28 3.7,-11.78 5.36,-16.48 l 28.06,9.09 c -3.3,7.54 -5.02,13.78 -5.13,18.66 -0.09,4.84 1.09,8.54 3.61,11.06 1.46,1.46 3.13,2.32 4.99,2.63 1.86,0.31 3.87,0.14 5.93,-0.54 2.06,-0.69 4.21,-1.81 6.44,-3.35 2.26,-1.57 4.53,-3.5 6.82,-5.79 4.47,-4.47 8.14,-9.46 10.98,-14.87 2.89,-5.42 4.9,-11.44 6.13,-18.06 l -43.07,-43.07 18.89,-18.89 z m 48.38,157.34 35.59,-35.6 -37.03,-37.03 c -2.21,6.51 -4.85,12.47 -7.88,17.91 -3.01,5.42 -6.82,10.43 -11.41,15.02 -1.64,1.63 -3.3,3.12 -5.05,4.52 -1.75,1.41 -3.52,2.72 -5.39,4.02 l 31.16,31.15 z m 128.97,29.57 -86.21,79.67 -21.5,-21.49 79.82,-86.07 z m -136.11,108.54 c -4.47,-4.47 -6.82,-9.52 -7,-15.13 -0.23,-5.62 1.61,-10.37 5.48,-14.24 4.04,-4.04 8.83,-5.85 14.33,-5.5 5.53,0.37 10.46,2.78 14.87,7.2 4.5,4.5 6.88,9.46 7.11,14.9 0.26,5.48 -1.57,10.17 -5.56,14.16 -4.04,4.04 -8.8,5.93 -14.25,5.76 -5.44,-0.23 -10.43,-2.58 -14.99,-7.13 z m 192.37,-52.28 -86.21,79.67 -21.5,-21.49 79.82,-86.07 z m -136.11,108.54 c -4.47,-4.47 -6.82,-9.52 -6.99,-15.13 -0.23,-5.62 1.61,-10.38 5.48,-14.24 4.04,-4.04 8.83,-5.85 14.33,-5.5 5.53,0.37 10.46,2.78 14.87,7.2 4.5,4.5 6.88,9.46 7.11,14.9 0.26,5.48 -1.57,10.17 -5.56,14.16 -4.04,4.04 -8.8,5.93 -14.24,5.76 -5.44,-0.23 -10.43,-2.58 -14.99,-7.13 z"
         id="path1498" />
    </g>
    <g
       style="clip-rule:evenodd;fill-rule:evenodd;image-rendering:optimizeQuality;shape-rendering:geometricPrecision;text-rendering:geometricPrecision"
       id="g1508"
       transform="matrix(0.02720892,0,0,0.02720892,-127.39168,126.30589)">
      <path
         style="fill:#000000;fill-rule:nonzero"
         inkscape:connector-curvature="0"
         class="fil6"
         d="m 5777.38,4206.98 h -25.86 v 150.33 h -31.01 v -61.53 h -53.3 v 16.98 c 0,1.58 -0.08,3.24 -0.2,4.94 -0.12,1.7 -0.48,3.28 -1.05,4.7 -0.61,1.42 -1.5,2.59 -2.68,3.57 -1.17,0.93 -2.84,1.42 -4.98,1.42 -2.92,0 -6.12,-0.85 -9.52,-2.55 -3.41,-1.7 -6.81,-3.93 -10.3,-6.73 -3.49,-2.76 -6.85,-5.96 -10.05,-9.57 -3.2,-3.61 -6.04,-7.25 -8.51,-10.98 -2.43,-3.69 -4.42,-7.37 -5.92,-10.98 -1.5,-3.57 -2.27,-6.81 -2.27,-9.65 0,-0.97 0.12,-1.91 0.37,-2.88 0.24,-0.93 0.77,-1.78 1.62,-2.47 0.81,-0.73 1.99,-1.3 3.45,-1.78 1.46,-0.48 3.44,-0.73 6,-0.73 h 13.05 v -62.09 h -41.58 v -26.71 h 182.75 v 26.71 z m -110.16,0 v 62.09 h 53.3 v -62.09 z M 5861,4320.96 c 5.96,-2.27 10.26,-4.62 12.93,-6.97 2.72,-2.39 4.06,-5.43 4.06,-9.16 0,-2.15 -0.44,-4.13 -1.38,-6 -0.89,-1.87 -2.35,-3.49 -4.38,-4.87 -2.03,-1.38 -4.62,-2.47 -7.78,-3.28 -3.16,-0.77 -6.97,-1.17 -11.39,-1.17 -3.73,0 -7.38,0.32 -10.94,1.01 -3.57,0.69 -6.73,1.91 -9.48,3.69 -2.8,1.78 -5.03,4.17 -6.73,7.17 -1.7,3 -2.56,6.81 -2.56,11.39 0,4.82 0.93,9.32 2.76,13.5 1.83,4.13 4.22,8.03 7.22,11.59 3.04,3.53 6.48,6.81 10.42,9.77 3.89,2.96 7.98,5.67 12.16,8.15 4.22,2.43 8.39,4.62 12.52,6.48 4.18,1.82 8.03,3.44 11.59,4.78 l -11.76,25.05 c -6.2,-2.59 -12.32,-5.39 -18.48,-8.43 -6.12,-3 -12,-6.24 -17.55,-9.77 -5.59,-3.53 -10.74,-7.38 -15.52,-11.55 -4.74,-4.14 -8.88,-8.68 -12.4,-13.62 -3.53,-4.98 -6.28,-10.37 -8.23,-16.21 -1.98,-5.88 -3,-12.24 -3,-19.13 0,-6.97 1.02,-13.17 3.04,-18.6 2.03,-5.39 4.82,-10.13 8.39,-14.19 -1.66,-2.43 -3.24,-5.03 -4.66,-7.74 -1.42,-2.76 -2.63,-5.52 -3.61,-8.27 -1.01,-2.76 -1.78,-5.51 -2.39,-8.27 -0.57,-2.71 -0.89,-5.35 -0.89,-7.9 0,-3.32 0.57,-6.53 1.66,-9.61 1.14,-3.08 2.92,-5.8 5.43,-8.19 2.47,-2.39 5.71,-4.26 9.65,-5.71 3.97,-1.42 8.8,-2.11 14.51,-2.11 h 48.43 v -15.81 h -103.56 v -26.71 h 162.32 v 26.71 h -27.52 v 41.1 h -70.89 c -1.06,0 -2.11,0.12 -3.16,0.41 -1.06,0.28 -2.07,0.77 -2.96,1.42 -0.93,0.69 -1.66,1.62 -2.27,2.8 -0.61,1.18 -0.89,2.67 -0.89,4.5 0,1.82 0.24,3.52 0.77,5.07 0.53,1.54 1.22,3 2.07,4.33 8.35,-2.8 17.14,-4.17 26.51,-4.17 7.41,0 14.51,0.85 21.2,2.55 6.69,1.7 12.56,4.3 17.63,7.78 5.07,3.48 9.08,7.9 12.04,13.3 2.96,5.39 4.46,11.75 4.46,19.13 0,6.32 -1.06,11.75 -3.2,16.33 -2.15,4.54 -4.94,8.47 -8.39,11.79 -3.44,3.33 -7.34,6.16 -11.67,8.51 -4.38,2.31 -8.8,4.38 -13.3,6.12 l -10.82,-26.99 z m 145.22,-113.98 h -25.86 v 150.33 h -31 v -150.33 h -26.26 v -26.71 h 83.13 v 26.71 z m 129.33,0 h -39.76 c 3,6.16 5.39,12.24 7.17,18.24 1.78,5.96 2.67,12.2 2.67,18.69 0,5.8 -0.77,11.19 -2.31,16.25 -1.58,5.07 -3.97,9.65 -7.21,13.74 -3.24,4.06 -7.38,7.54 -12.4,10.38 -5.03,2.88 -11.02,4.9 -18,6.2 l -0.2,0.44 c 3.33,4.74 6.69,9.36 10.13,13.78 3.44,4.42 7.05,8.8 10.86,13.05 3.81,4.3 7.82,8.51 12.12,12.73 4.26,4.17 8.96,8.43 14.02,12.69 l -19.61,21.76 c -6.24,-4.94 -12.28,-10.33 -18.04,-16.21 -5.8,-5.92 -11.31,-12.07 -16.5,-18.48 -5.23,-6.41 -10.13,-12.89 -14.75,-19.45 -4.58,-6.61 -8.8,-13.01 -12.65,-19.26 -3.81,-6.24 -7.26,-12.2 -10.33,-17.87 -3.04,-5.67 -5.63,-10.74 -7.74,-15.24 l 26.22,-13.46 c 2.68,7.13 5.59,12.16 8.67,15.12 3.08,2.92 6.32,4.38 9.73,4.38 2.23,0 4.34,-0.53 6.28,-1.54 1.98,-1.05 3.73,-2.55 5.23,-4.58 1.5,-2.03 2.72,-4.46 3.65,-7.38 0.89,-2.88 1.34,-6.2 1.34,-10.01 0,-5.31 -0.93,-11.03 -2.83,-17.11 -1.91,-6.08 -4.66,-11.71 -8.31,-16.86 h -65.09 v -26.71 h 137.64 z m 74.78,0 h -25.86 v 150.33 h -31 v -150.33 h -26.26 v -26.71 h 83.13 v 26.71 z m 38.26,88.11 c -2.76,-0.97 -5.35,-2.47 -7.78,-4.58 -2.43,-2.11 -4.54,-4.82 -6.37,-8.15 -1.82,-3.32 -3.24,-7.34 -4.33,-12.04 -1.06,-4.7 -1.58,-10.17 -1.58,-16.45 v -46.9 h -26.5 v -26.71 h 162.2 v 26.71 h -25.86 v 41.43 c 0,6.97 -0.69,13.09 -2.11,18.36 -1.38,5.27 -3.24,9.85 -5.55,13.7 -2.35,3.89 -5.11,7.21 -8.31,10.01 -3.2,2.76 -6.61,5.19 -10.21,7.21 -3.61,2.07 -7.33,3.85 -11.23,5.35 -3.89,1.5 -7.74,2.96 -11.51,4.42 -4.06,1.5 -7.87,3 -11.47,4.5 -3.61,1.5 -6.77,3.24 -9.48,5.27 -2.76,2.03 -4.91,4.46 -6.52,7.26 -1.66,2.8 -2.47,6.28 -2.47,10.38 0,4.3 0.89,8.06 2.63,11.43 1.74,3.32 4.09,6.08 7.05,8.35 2.96,2.27 6.44,3.97 10.46,5.11 4.01,1.13 8.31,1.74 12.89,1.74 3.89,0 7.78,-0.44 11.75,-1.26 3.97,-0.85 7.87,-1.98 11.76,-3.44 3.89,-1.46 7.7,-3.2 11.47,-5.19 3.73,-1.94 7.46,-4.09 11.11,-6.4 v 31.49 c -6.81,4.01 -13.7,7.01 -20.63,8.96 -6.93,1.94 -14.55,2.92 -22.86,2.92 -10.13,0 -19.29,-1.33 -27.52,-4.01 -8.23,-2.63 -15.28,-6.36 -21.16,-11.23 -5.84,-4.82 -10.38,-10.57 -13.58,-17.3 -3.2,-6.73 -4.82,-14.19 -4.82,-22.33 0,-4.58 0.53,-8.87 1.54,-12.81 1.06,-3.97 2.47,-7.54 4.34,-10.7 1.86,-3.16 4.05,-5.96 6.52,-8.31 2.51,-2.39 5.23,-4.38 8.15,-5.96 v -0.81 z m 48.31,-21.6 -37.49,-53.58 -0.48,0.12 v 31.82 c 0,6.04 0.57,10.98 1.7,14.87 1.18,3.85 2.72,6.93 4.66,9.2 1.91,2.23 4.17,3.81 6.69,4.74 2.55,0.89 5.19,1.38 7.94,1.38 3.32,-1.3 6.41,-2.55 9.2,-3.81 2.84,-1.26 5.39,-2.72 7.66,-4.3 l 0.12,-0.45 z m -26.1,-66.15 36.07,53.66 0.49,0.12 c 0.24,-1.01 0.41,-2.07 0.48,-3.16 0.08,-1.05 0.12,-2.23 0.12,-3.48 v -47.5 h -37.17 v 0.37 z m 56.25,241.28 -32.06,-28 -31.69,28 -17.47,-21.24 49.16,-41.34 50.14,43.45 z m -1370.1,106.98 h -25.86 v 150.45 h -31 V 4555.6 h -26.26 v -26.71 h 26.75 c -4.46,-9.81 -6.65,-18.93 -6.65,-27.32 0,-6.32 1.13,-12.32 3.44,-17.91 2.27,-5.63 5.83,-10.54 10.62,-14.75 4.78,-4.18 10.9,-7.5 18.4,-9.89 7.46,-2.43 16.41,-3.65 26.75,-3.65 12.44,0 24.2,1.78 35.22,5.35 11.06,3.57 21.52,8.63 31.41,15.16 9.89,6.52 19.33,14.39 28.25,23.63 8.96,9.2 17.55,19.46 25.78,30.69 h -28.49 c -2.76,-2.76 -6,-5.88 -9.69,-9.37 -3.69,-3.48 -7.78,-7.01 -12.28,-10.57 -4.5,-3.57 -9.36,-7.01 -14.55,-10.38 -5.19,-3.41 -10.62,-6.41 -16.33,-9.04 -5.68,-2.67 -11.63,-4.78 -17.8,-6.36 -6.2,-1.58 -12.48,-2.35 -18.89,-2.35 -5.63,0 -10.5,0.61 -14.59,1.86 -4.13,1.3 -7.54,3.08 -10.22,5.35 -2.71,2.31 -4.7,5.03 -5.96,8.15 -1.26,3.12 -1.91,6.61 -1.91,10.37 0,3.32 0.49,6.73 1.5,10.17 0.97,3.44 2.51,7.05 4.58,10.86 h 27.76 v 26.71 z m 172.09,0 h -24.97 v 150.33 h -31.81 V 4669 l -0.44,-0.36 c -2.8,2.39 -5.72,4.38 -8.8,6 -3.08,1.62 -6.24,2.92 -9.41,3.93 -3.16,0.97 -6.28,1.7 -9.36,2.11 -3.08,0.45 -6.08,0.69 -8.92,0.69 -7.21,0 -13.78,-1.22 -19.7,-3.57 -5.96,-2.39 -11.02,-5.63 -15.28,-9.69 -4.22,-4.09 -7.5,-8.88 -9.85,-14.39 -2.31,-5.47 -3.48,-11.31 -3.48,-17.51 0,-4.17 0.65,-8.59 2.03,-13.21 1.33,-4.66 3.73,-9.12 7.21,-13.38 l -0.12,-0.73 h -30.15 v -26.71 h 92.85 v 26.71 h -14.35 c -5.39,0 -9.77,0.77 -13.13,2.27 -3.36,1.5 -6,3.4 -7.94,5.63 -1.95,2.27 -3.28,4.7 -3.97,7.3 -0.73,2.63 -1.09,4.98 -1.09,7.13 0,2.39 0.41,4.82 1.17,7.3 0.81,2.51 2.07,4.78 3.81,6.85 1.74,2.07 4.01,3.73 6.77,5.02 2.8,1.34 6.16,1.99 10.09,1.99 3.73,0 7.21,-0.57 10.41,-1.74 3.2,-1.13 6.12,-2.63 8.84,-4.46 2.67,-1.82 5.11,-3.85 7.25,-6.16 2.11,-2.31 3.97,-4.58 5.56,-6.89 v -77.54 h -123.62 v -26.71 h 180.4 v 26.71 z m 95.09,95.7 -0.69,-0.33 -63.43,45.6 -16.74,-22.82 80.86,-53.91 v -1.54 c -4.98,-3.65 -9.2,-6.73 -12.65,-9.28 -3.44,-2.51 -6.44,-4.54 -9,-6.04 -2.59,-1.5 -4.82,-2.59 -6.73,-3.28 -1.91,-0.65 -3.77,-1.01 -5.59,-1.01 -1.74,0 -3.85,0.32 -6.41,0.89 -2.51,0.61 -5.63,1.54 -9.24,2.8 -3.65,1.3 -7.98,2.92 -13.01,4.94 -5.03,2.02 -10.91,4.46 -17.63,7.3 l -11.19,-25.9 c 6.65,-2.67 12.65,-5.07 18,-7.17 5.35,-2.11 10.21,-3.89 14.55,-5.35 4.37,-1.46 8.27,-2.55 11.75,-3.32 3.49,-0.73 6.65,-1.13 9.52,-1.13 3.08,0 5.96,0.48 8.63,1.46 2.72,0.93 5.47,2.31 8.35,4.09 2.84,1.78 5.88,3.93 9.2,6.53 3.28,2.55 7.09,5.51 11.43,8.83 v -37.05 h -103.43 v -26.71 h 160.34 v 26.71 h -25.9 v 150.33 h -31.01 v -54.63 z m 211.98,-95.7 h -25.9 v 150.33 h -31.01 v -45.72 l -0.44,-0.12 c -9.36,5.96 -19.09,8.91 -29.22,8.91 -1.74,0 -4.18,-0.16 -7.38,-0.48 -3.16,-0.32 -6.61,-1.13 -10.33,-2.43 -3.69,-1.3 -7.5,-3.24 -11.39,-5.8 -3.85,-2.59 -7.38,-6.12 -10.5,-10.58 -3.12,-4.5 -5.72,-10.09 -7.7,-16.82 -2.03,-6.73 -3.04,-14.87 -3.04,-24.44 v -52.85 h -26.5 v -26.71 h 163.42 v 26.71 z m -56.91,0 h -49.04 v 54.76 c 0,6 0.61,10.94 1.74,14.75 1.14,3.85 2.68,6.89 4.62,9.08 1.94,2.23 4.22,3.77 6.85,4.58 2.59,0.85 5.35,1.26 8.31,1.26 6.32,0 11.63,-1.5 15.89,-4.46 4.3,-2.96 8.19,-7.21 11.63,-12.77 z m 185.15,138.7 c -7.21,4.5 -14.71,7.87 -22.54,10.01 -7.78,2.19 -15.89,3.28 -24.28,3.28 -10.98,0 -20.87,-1.82 -29.63,-5.47 -8.71,-3.65 -16.17,-8.59 -22.29,-14.87 -6.16,-6.32 -10.82,-13.66 -14.11,-22.05 -3.24,-8.39 -4.86,-17.39 -4.86,-26.95 0,-8.96 1.42,-16.82 4.22,-23.59 2.83,-6.77 6.77,-12.4 11.83,-16.9 5.07,-4.5 11.11,-7.9 18.16,-10.21 7.05,-2.31 14.79,-3.44 23.26,-3.44 h 17.71 v -28.5 h -94.07 v -26.71 h 162.44 v 26.71 h -37.41 v 55.08 h -42.35 c -4.98,0 -9.48,0.57 -13.5,1.66 -4.01,1.13 -7.42,2.88 -10.21,5.23 -2.8,2.39 -4.94,5.47 -6.41,9.2 -1.46,3.77 -2.19,8.31 -2.19,13.62 0,5.84 0.89,11.15 2.72,15.89 1.82,4.78 4.33,8.8 7.54,12.12 3.2,3.32 7.01,5.88 11.47,7.66 4.42,1.78 9.28,2.67 14.59,2.67 4.06,0 8.27,-0.53 12.65,-1.54 4.42,-1.01 8.76,-2.39 13.13,-4.06 4.33,-1.66 8.59,-3.52 12.69,-5.67 4.13,-2.15 7.94,-4.33 11.43,-6.52 v 33.35 z m 73.04,-18.28 -17.47,60.07 h -29.22 l 12.12,-60.07 z m 215.14,-120.42 h -39.76 c 3,6.16 5.39,12.24 7.17,18.24 1.78,5.96 2.67,12.2 2.67,18.69 0,5.8 -0.77,11.19 -2.31,16.25 -1.58,5.07 -3.97,9.65 -7.21,13.74 -3.24,4.06 -7.38,7.54 -12.4,10.38 -5.03,2.88 -11.02,4.9 -18,6.2 l -0.2,0.44 c 3.33,4.74 6.69,9.36 10.13,13.78 3.44,4.42 7.05,8.8 10.86,13.05 3.81,4.3 7.82,8.51 12.12,12.73 4.26,4.17 8.96,8.43 14.02,12.69 l -19.61,21.76 c -6.24,-4.94 -12.28,-10.33 -18.04,-16.21 -5.8,-5.92 -11.31,-12.07 -16.5,-18.48 -5.23,-6.41 -10.13,-12.89 -14.75,-19.45 -4.58,-6.61 -8.8,-13.01 -12.65,-19.26 -3.81,-6.24 -7.26,-12.2 -10.33,-17.87 -3.04,-5.67 -5.63,-10.74 -7.74,-15.24 l 26.22,-13.46 c 2.68,7.13 5.59,12.16 8.67,15.12 3.08,2.92 6.32,4.38 9.73,4.38 2.23,0 4.34,-0.53 6.28,-1.54 1.98,-1.05 3.73,-2.55 5.23,-4.58 1.5,-2.03 2.72,-4.46 3.65,-7.38 0.89,-2.88 1.34,-6.2 1.34,-10.01 0,-5.31 -0.93,-11.03 -2.83,-17.11 -1.91,-6.08 -4.66,-11.71 -8.31,-16.86 h -65.09 v -26.71 h 137.64 z m -78.06,-64.72 c 0,-2.35 0.44,-4.58 1.26,-6.65 0.85,-2.02 1.99,-3.81 3.53,-5.35 1.5,-1.5 3.28,-2.67 5.39,-3.52 2.11,-0.89 4.42,-1.34 6.93,-1.34 2.47,0 4.74,0.44 6.89,1.34 2.15,0.85 3.97,2.07 5.52,3.61 1.58,1.54 2.8,3.36 3.69,5.47 0.93,2.07 1.38,4.38 1.38,6.81 0,2.47 -0.41,4.7 -1.26,6.77 -0.81,2.07 -2.02,3.81 -3.57,5.27 -1.54,1.5 -3.36,2.63 -5.43,3.44 -2.11,0.85 -4.38,1.26 -6.85,1.26 -2.43,0 -4.74,-0.41 -6.89,-1.26 -2.15,-0.81 -3.97,-1.99 -5.51,-3.53 -1.54,-1.58 -2.76,-3.36 -3.69,-5.43 -0.89,-2.07 -1.38,-4.34 -1.38,-6.89 z m 243.35,64.72 h -25.9 v 150.45 h -31 V 4555.6 h -43.45 v 89.41 c 0,2.23 -0.04,4.38 -0.16,6.48 -0.12,2.07 -0.49,3.93 -1.09,5.51 -0.57,1.58 -1.54,2.88 -2.84,3.85 -1.3,1.02 -3.12,1.5 -5.39,1.5 -3.16,0 -6.53,-0.89 -10.09,-2.67 -3.57,-1.78 -7.09,-4.13 -10.58,-7.01 -3.48,-2.88 -6.81,-6.12 -9.97,-9.73 -3.16,-3.61 -5.96,-7.26 -8.39,-10.94 -2.39,-3.69 -4.34,-7.21 -5.76,-10.62 -1.42,-3.41 -2.11,-6.32 -2.11,-8.8 0,-1.01 0.16,-2.07 0.52,-3.08 0.33,-1.02 1.06,-1.95 2.07,-2.72 1.02,-0.81 2.43,-1.42 4.22,-1.91 1.78,-0.49 4.09,-0.73 6.93,-0.73 h 11.87 v -48.56 h -42.52 v -26.71 h 173.63 v 26.71 z m 137.24,-26.71 h 56.91 v 26.71 h -25.9 v 150.33 h -31 v -61.53 h -50.1 v 16.98 c 0,1.58 -0.08,3.24 -0.16,4.94 -0.12,1.7 -0.48,3.28 -1.09,4.7 -0.57,1.42 -1.5,2.59 -2.72,3.57 -1.21,0.93 -2.92,1.42 -5.06,1.42 -2.84,0 -6,-0.85 -9.44,-2.55 -3.44,-1.7 -6.89,-3.93 -10.38,-6.73 -3.48,-2.76 -6.85,-5.96 -10.09,-9.57 -3.24,-3.61 -6.12,-7.25 -8.67,-10.98 -2.51,-3.69 -4.58,-7.37 -6.12,-10.98 -1.54,-3.57 -2.31,-6.81 -2.31,-9.65 0,-0.97 0.12,-1.91 0.36,-2.88 0.24,-0.93 0.77,-1.78 1.58,-2.47 0.85,-0.73 1.98,-1.3 3.44,-1.78 1.5,-0.48 3.48,-0.73 6,-0.73 h 14.51 v -57.47 c 0,-4.01 -1.09,-7.17 -3.2,-9.36 -2.15,-2.23 -4.66,-3.32 -7.5,-3.32 -1.66,0 -3.16,0.36 -4.46,1.05 -1.3,0.73 -2.43,1.7 -3.37,2.92 -0.97,1.22 -1.66,2.63 -2.15,4.26 -0.49,1.62 -0.73,3.36 -0.73,5.19 0,6.16 2.88,11.07 8.55,14.71 l -14.95,18.89 c -7.42,-4.5 -12.89,-9.73 -16.33,-15.69 -3.44,-5.92 -5.15,-12.16 -5.15,-18.65 0,-4.82 0.93,-9.4 2.84,-13.7 1.91,-4.33 4.58,-8.11 8.02,-11.35 3.44,-3.24 7.62,-5.8 12.53,-7.66 4.9,-1.86 10.33,-2.8 16.29,-2.8 6,0 11.47,0.97 16.37,2.88 4.91,1.86 9.08,4.5 12.52,7.82 3.44,3.32 6.12,7.25 8.03,11.75 1.86,4.5 2.83,9.41 2.83,14.71 v 55.81 h 50.1 v -88.8 z m 67.93,240.35 c -3.65,-7.06 -7.33,-13.5 -11.02,-19.26 -3.73,-5.8 -7.7,-10.74 -11.96,-14.83 -4.22,-4.13 -8.83,-7.34 -13.78,-9.57 -4.94,-2.27 -10.5,-3.41 -16.66,-3.41 -6.2,0 -10.94,1.09 -14.31,3.28 -3.36,2.19 -5.06,5.15 -5.06,8.96 0,3.57 1.42,6.37 4.3,8.43 2.83,2.07 6.61,3.08 11.27,3.08 4.58,0 9.44,-1.09 14.59,-3.32 l 4.17,19.37 c -6.89,3.16 -14.51,4.74 -22.9,4.74 -5.56,0 -10.82,-0.73 -15.81,-2.15 -4.99,-1.42 -9.36,-3.53 -13.13,-6.32 -3.77,-2.84 -6.73,-6.28 -8.96,-10.34 -2.23,-4.09 -3.32,-8.8 -3.32,-14.06 0,-5.8 1.3,-10.86 3.93,-15.16 2.59,-4.34 6.04,-7.91 10.38,-10.74 4.3,-2.88 9.2,-4.99 14.71,-6.37 5.51,-1.38 11.11,-2.07 16.82,-2.07 7.58,0 14.63,1.02 21.12,3 6.48,2.03 12.48,4.66 17.95,7.91 5.43,3.24 10.42,6.97 14.88,11.11 4.5,4.17 8.47,8.35 12,12.6 3.53,4.22 6.61,8.35 9.28,12.32 2.64,4.01 4.91,7.54 6.81,10.54 l -25.29,12.24 z m 163.38,-213.64 h -25.86 v 150.33 h -31.01 v -61.53 h -53.3 v 16.98 c 0,1.58 -0.08,3.24 -0.2,4.94 -0.12,1.7 -0.48,3.28 -1.05,4.7 -0.61,1.42 -1.5,2.59 -2.68,3.57 -1.17,0.93 -2.84,1.42 -4.98,1.42 -2.92,0 -6.12,-0.85 -9.52,-2.55 -3.41,-1.7 -6.81,-3.93 -10.3,-6.73 -3.49,-2.76 -6.85,-5.96 -10.05,-9.57 -3.2,-3.61 -6.04,-7.25 -8.51,-10.98 -2.43,-3.69 -4.42,-7.37 -5.92,-10.98 -1.5,-3.57 -2.27,-6.81 -2.27,-9.65 0,-0.97 0.12,-1.91 0.37,-2.88 0.24,-0.93 0.77,-1.78 1.62,-2.47 0.81,-0.73 1.99,-1.3 3.45,-1.78 1.46,-0.48 3.44,-0.73 6,-0.73 h 13.05 v -62.09 h -41.58 v -26.71 h 182.75 v 26.71 z m -110.16,0 v 62.09 h 53.3 v -62.09 z m 184.98,0 h -25.86 v 150.33 h -31 V 4555.6 h -26.26 v -26.71 h 26.75 c -1.5,-7.37 -3.41,-13.62 -5.71,-18.76 -2.31,-5.15 -4.78,-9.48 -7.5,-12.93 -2.67,-3.49 -5.47,-6.24 -8.35,-8.23 -2.88,-1.94 -5.67,-3.44 -8.39,-4.5 -2.67,-1.01 -5.19,-1.66 -7.54,-1.94 -2.31,-0.28 -4.26,-0.41 -5.76,-0.41 -7.5,0 -13.13,1.62 -16.86,4.91 -3.73,3.28 -5.55,7.42 -5.59,12.4 0.04,4.74 1.54,9.73 4.58,14.96 3.08,5.23 7.46,10.5 13.25,15.81 h -34.21 c -4.98,-6 -8.71,-12.2 -11.22,-18.52 -2.47,-6.32 -3.73,-12.48 -3.73,-18.4 0,-5.23 1.06,-10.17 3.2,-14.8 2.15,-4.62 5.35,-8.63 9.65,-12.04 4.26,-3.41 9.61,-6.12 16.09,-8.07 6.44,-1.98 14.02,-3 22.7,-3 12.04,0 22.41,1.94 31.09,5.76 8.67,3.85 15.93,9.08 21.76,15.69 5.88,6.61 10.5,14.39 13.91,23.35 3.4,8.96 5.83,18.52 7.25,28.74 h 27.76 v 26.71 z m 183,52.61 c 1.42,0.16 2.72,0.28 3.93,0.41 1.17,0.12 2.51,0.16 4.01,0.16 5.07,0 10.09,-0.57 15.04,-1.74 4.94,-1.22 9.08,-2.64 12.41,-4.3 v -73.85 h 56.86 v 26.71 h -25.86 v 150.33 h -31 v -76.72 c -0.93,0.48 -2.19,0.97 -3.69,1.46 -1.5,0.45 -3.12,0.89 -4.91,1.3 -1.78,0.41 -3.65,0.69 -5.55,0.93 -1.87,0.24 -3.69,0.36 -5.43,0.36 0.37,1.99 0.69,3.77 0.93,5.35 0.24,1.58 0.37,3.41 0.37,5.47 0,7.09 -1.34,13.5 -4.06,19.17 -2.67,5.63 -6.4,10.46 -11.11,14.35 -4.7,3.93 -10.25,6.93 -16.61,9.04 -6.37,2.11 -13.22,3.16 -20.47,3.16 -7.54,0 -14.39,-1.09 -20.55,-3.24 -6.16,-2.11 -11.8,-5.02 -16.86,-8.71 -5.07,-3.69 -9.65,-8.03 -13.74,-13.01 -4.06,-4.98 -7.74,-10.33 -11.03,-16.09 -3.28,-5.72 -6.2,-11.71 -8.8,-17.91 -2.55,-6.2 -4.86,-12.36 -6.93,-18.48 l 26.47,-10.66 c 1.42,4.5 3.04,9.12 4.82,13.9 1.78,4.74 3.81,9.32 6.04,13.82 2.27,4.46 4.74,8.67 7.5,12.57 2.72,3.93 5.72,7.37 9.04,10.33 3.28,2.96 6.81,5.31 10.66,7.01 3.85,1.7 8.03,2.56 12.52,2.56 6.97,0 12.28,-2.03 15.97,-6.04 3.69,-4.06 5.51,-9.48 5.51,-16.3 0,-4.17 -0.65,-7.78 -1.99,-10.78 -1.33,-3.04 -3.2,-5.51 -5.59,-7.5 -2.39,-1.98 -5.19,-3.41 -8.43,-4.33 -3.24,-0.89 -6.77,-1.34 -10.58,-1.34 -0.77,0 -1.74,0 -2.83,0.04 -1.09,0.04 -2.27,0.08 -3.44,0.16 -1.18,0.08 -2.39,0.16 -3.57,0.24 -1.18,0.08 -2.23,0.16 -3.08,0.24 v -26.71 c 0.69,0.08 1.46,0.12 2.19,0.12 0.77,0 1.5,0 2.19,0 4.13,0 7.98,-0.32 11.51,-0.97 3.57,-0.61 6.69,-1.7 9.28,-3.24 2.59,-1.54 4.66,-3.65 6.16,-6.24 1.5,-2.59 2.27,-5.87 2.27,-9.72 0,-5.96 -1.74,-10.26 -5.23,-12.97 -3.49,-2.67 -8.19,-4.01 -14.15,-4.01 -4.42,0 -8.76,0.61 -13.05,1.82 -4.26,1.26 -8.43,2.72 -12.44,4.46 l -7.13,-25.9 c 5.68,-2.76 11.51,-4.82 17.51,-6.16 5.96,-1.34 11.71,-2.03 17.15,-2.03 7.21,0 13.82,1.09 19.78,3.2 6,2.15 11.11,5.07 15.36,8.8 4.3,3.73 7.62,8.11 10.01,13.13 2.35,5.02 3.53,10.41 3.53,16.21 0,6.97 -1.74,13.41 -5.27,19.41 -3.52,5.96 -8.75,11.22 -15.72,15.72 l 0.12,0.61 c 1.82,0.85 3.57,1.86 5.23,2.96 1.66,1.09 3.24,2.27 4.74,3.44 z m 167.07,-52.61 h -25.86 v 150.33 h -31 V 4555.6 h -26.26 v -26.71 h 83.13 v 26.71 z m 74.78,0 h -25.86 v 150.45 h -31 V 4555.6 h -26.26 v -26.71 h 26.75 c -4.46,-9.81 -6.65,-18.93 -6.65,-27.32 0,-6.32 1.13,-12.32 3.44,-17.91 2.27,-5.63 5.83,-10.54 10.62,-14.75 4.78,-4.18 10.9,-7.5 18.4,-9.89 7.46,-2.43 16.41,-3.65 26.75,-3.65 12.44,0 24.2,1.78 35.22,5.35 11.06,3.57 21.52,8.63 31.41,15.16 9.89,6.52 19.33,14.39 28.25,23.63 8.96,9.2 17.55,19.46 25.78,30.69 h -28.49 c -2.76,-2.76 -6,-5.88 -9.69,-9.37 -3.69,-3.48 -7.78,-7.01 -12.28,-10.57 -4.5,-3.57 -9.36,-7.01 -14.55,-10.38 -5.19,-3.41 -10.62,-6.41 -16.33,-9.04 -5.68,-2.67 -11.63,-4.78 -17.8,-6.36 -6.2,-1.58 -12.48,-2.35 -18.89,-2.35 -5.63,0 -10.5,0.61 -14.59,1.86 -4.13,1.3 -7.54,3.08 -10.22,5.35 -2.71,2.31 -4.7,5.03 -5.96,8.15 -1.26,3.12 -1.91,6.61 -1.91,10.37 0,3.32 0.49,6.73 1.5,10.17 0.97,3.44 2.51,7.05 4.58,10.86 h 27.76 v 26.71 z m 199.05,0 h -25.9 v 150.33 h -31.01 V 4555.6 h -26.71 v 64.97 c 0,8.59 -1.26,16.05 -3.73,22.29 -2.52,6.28 -5.92,11.43 -10.26,15.52 -4.38,4.06 -9.52,7.05 -15.44,9 -5.96,1.94 -12.32,2.92 -19.13,2.92 -7.66,0 -14.59,-1.13 -20.71,-3.37 -6.16,-2.27 -11.35,-5.59 -15.61,-9.97 -4.3,-4.42 -7.58,-9.85 -9.81,-16.33 -2.27,-6.48 -3.41,-14.02 -3.41,-22.57 v -62.46 h -25.65 v -26.71 h 207.35 v 26.71 z m -150.69,0 v 59.26 c 0,3.4 0.32,6.69 0.93,9.93 0.65,3.2 1.66,6 3.04,8.47 1.38,2.47 3.24,4.42 5.51,5.88 2.31,1.46 5.11,2.19 8.43,2.19 3.41,0 6.28,-0.73 8.55,-2.19 2.31,-1.46 4.18,-3.41 5.59,-5.88 1.42,-2.47 2.47,-5.27 3.08,-8.47 0.65,-3.24 0.98,-6.53 0.98,-9.93 v -59.26 z"
         id="path1502" />
      <path
         style="fill:#000000;fill-rule:nonzero"
         inkscape:connector-curvature="0"
         class="fil6"
         d="m 5050.83,4877.51 h 202.37 v 26.71 h -25.9 v 150.33 h -31 v -73.52 h -61.12 c -4.62,3.12 -10.09,5.31 -16.54,6.69 l -0.2,0.44 c 2.27,4.74 4.87,9.36 7.7,13.78 2.84,4.42 6.04,8.8 9.57,13.05 3.53,4.3 7.42,8.51 11.67,12.73 4.3,4.17 8.96,8.43 14.02,12.69 l -19.57,21.76 c -5.56,-4.94 -11.03,-10.41 -16.42,-16.45 -5.39,-6.08 -10.58,-12.36 -15.6,-18.97 -5.03,-6.57 -9.81,-13.26 -14.31,-20.06 -4.5,-6.81 -8.72,-13.42 -12.57,-19.86 -3.89,-6.48 -7.38,-12.56 -10.46,-18.36 -3.08,-5.8 -5.71,-10.94 -7.86,-15.44 l 26.26,-13.41 c 3,7.66 6.2,13.3 9.57,16.82 3.36,3.49 6.81,5.27 10.37,5.27 2.07,0 3.85,-0.57 5.39,-1.67 1.54,-1.09 2.84,-2.63 3.81,-4.58 0.97,-1.94 1.7,-4.26 2.19,-6.93 0.48,-2.72 0.73,-5.68 0.73,-8.92 0,-6.32 -0.93,-12.44 -2.76,-18.28 -1.78,-5.88 -4.62,-11.55 -8.43,-17.11 h -60.92 v -26.71 z m 145.46,77.05 v -50.34 h -52.37 c 3.04,6.16 5.39,12.24 7.09,18.24 1.7,5.96 2.56,12.2 2.56,18.69 0,2.31 -0.12,4.54 -0.37,6.77 -0.24,2.23 -0.57,4.42 -0.97,6.65 h 44.06 z m 131.68,-50.34 h -25.86 v 150.33 h -31 v -150.33 h -26.26 v -26.71 h 83.13 v 26.71 z m -58.65,-64.72 c 0,-2.35 0.44,-4.58 1.26,-6.65 0.85,-2.02 1.99,-3.81 3.53,-5.35 1.5,-1.5 3.28,-2.67 5.39,-3.52 2.11,-0.89 4.42,-1.34 6.93,-1.34 2.47,0 4.74,0.44 6.89,1.34 2.15,0.85 3.97,2.07 5.52,3.61 1.58,1.54 2.8,3.36 3.69,5.47 0.93,2.07 1.38,4.38 1.38,6.81 0,2.47 -0.41,4.7 -1.26,6.77 -0.81,2.07 -2.02,3.81 -3.57,5.27 -1.54,1.5 -3.36,2.63 -5.43,3.44 -2.11,0.85 -4.38,1.26 -6.85,1.26 -2.43,0 -4.74,-0.41 -6.89,-1.26 -2.15,-0.81 -3.97,-1.99 -5.51,-3.53 -1.54,-1.58 -2.76,-3.36 -3.69,-5.43 -0.89,-2.07 -1.38,-4.34 -1.38,-6.89 z m 203.3,64.72 h -59.86 c 3.04,6.16 5.39,12.24 7.09,18.24 1.7,5.96 2.56,12.2 2.56,18.69 0,2.31 -0.12,4.54 -0.37,6.77 -0.24,2.23 -0.57,4.42 -0.97,6.65 h 54.03 v 26.46 h -71.09 c -4.62,3.12 -10.09,5.31 -16.54,6.69 l -0.2,0.44 c 2.27,4.74 4.87,9.36 7.7,13.78 2.84,4.42 6.04,8.8 9.57,13.05 3.53,4.3 7.42,8.51 11.67,12.73 4.3,4.17 8.96,8.43 14.02,12.69 l -19.57,21.76 c -5.56,-4.94 -11.03,-10.41 -16.42,-16.45 -5.39,-6.08 -10.58,-12.36 -15.6,-18.97 -5.03,-6.57 -9.81,-13.26 -14.31,-20.06 -4.5,-6.81 -8.72,-13.42 -12.57,-19.86 -3.89,-6.48 -7.38,-12.56 -10.46,-18.36 -3.08,-5.8 -5.71,-10.94 -7.86,-15.44 l 26.26,-13.41 c 3,7.66 6.2,13.3 9.57,16.82 3.36,3.49 6.81,5.27 10.37,5.27 2.07,0 3.85,-0.57 5.39,-1.67 1.54,-1.09 2.84,-2.63 3.81,-4.58 0.97,-1.94 1.7,-4.26 2.19,-6.93 0.48,-2.72 0.73,-5.68 0.73,-8.92 0,-6.32 -0.93,-12.44 -2.76,-18.28 -1.78,-5.88 -4.62,-11.55 -8.43,-17.11 h -60.92 v -26.71 h 152.96 v 26.71 z m 111.74,101.65 c 4.98,-2.63 9.32,-5.47 13.05,-8.55 3.73,-3.08 6.81,-6.28 9.32,-9.57 2.51,-3.28 4.33,-6.57 5.59,-9.85 1.21,-3.28 1.82,-6.44 1.82,-9.44 0,-1.99 -0.28,-4.13 -0.81,-6.41 -0.57,-2.31 -1.5,-4.42 -2.8,-6.32 -1.3,-1.86 -3,-3.44 -5.07,-4.74 -2.07,-1.26 -4.58,-1.91 -7.58,-1.91 -3.08,0 -6.12,0.77 -9.04,2.35 -2.92,1.54 -5.67,3.57 -8.19,6.16 -2.55,2.55 -4.86,5.51 -6.93,8.8 -2.11,3.28 -3.93,6.69 -5.43,10.25 v 77.9 h -30.96 v -39.07 l -0.24,-0.12 c -0.97,0.65 -2.19,1.42 -3.73,2.31 -1.58,0.93 -3.4,1.82 -5.55,2.67 -2.11,0.89 -4.58,1.62 -7.33,2.27 -2.8,0.65 -5.84,0.93 -9.16,0.93 -6.97,0 -13.66,-1.46 -20.15,-4.46 -6.44,-2.96 -12.12,-6.97 -17.06,-12.08 -4.98,-5.11 -8.92,-11.11 -11.87,-18 -3,-6.89 -4.46,-14.22 -4.46,-21.97 0,-6.48 1.09,-12.69 3.24,-18.52 2.19,-5.88 5.31,-11.02 9.4,-15.44 4.06,-4.42 9.04,-7.94 14.88,-10.58 5.87,-2.59 12.52,-3.89 19.98,-3.89 5.27,0 10.42,0.81 15.4,2.47 5.03,1.66 10.46,4.66 16.41,9.04 l 0.24,-0.12 v -25.78 h -97.76 v -26.71 h 228.59 v 26.71 h -99.87 v 28.01 l 0.24,0.12 c 2.8,-2.51 5.63,-4.58 8.55,-6.16 2.92,-1.58 5.84,-2.8 8.68,-3.69 2.83,-0.85 5.55,-1.46 8.06,-1.78 2.56,-0.32 4.82,-0.48 6.89,-0.48 6.97,0 13.17,1.42 18.65,4.17 5.47,2.76 10.09,6.41 13.9,10.86 3.81,4.46 6.69,9.57 8.71,15.28 2.03,5.68 3.04,11.51 3.04,17.43 0,6.2 -1.06,12.24 -3.2,18.24 -2.15,5.96 -5.19,11.71 -9.16,17.15 -3.97,5.47 -8.76,10.58 -14.35,15.4 -5.63,4.78 -11.91,9.12 -18.89,12.97 l -15.08,-25.86 z m -46.33,-46.77 c -1.58,-1.62 -3.28,-3.24 -5.11,-4.91 -1.82,-1.66 -3.81,-3.12 -5.92,-4.42 -2.15,-1.34 -4.5,-2.39 -7.01,-3.24 -2.56,-0.81 -5.31,-1.22 -8.31,-1.22 -3.65,0 -6.85,0.61 -9.61,1.91 -2.8,1.26 -5.11,2.96 -7.01,5.11 -1.91,2.11 -3.33,4.62 -4.3,7.46 -0.93,2.83 -1.42,5.87 -1.42,9.04 0,3.65 0.61,7.06 1.78,10.22 1.18,3.16 2.92,5.92 5.15,8.31 2.27,2.35 4.98,4.22 8.1,5.56 3.12,1.38 6.65,2.02 10.62,2.02 4.5,0 8.23,-0.81 11.22,-2.47 2.96,-1.66 5.31,-3.81 7.06,-6.48 1.74,-2.63 2.96,-5.59 3.69,-8.83 0.69,-3.24 1.05,-6.44 1.05,-9.61 v -8.43 z m 35.3,109.11 h -12.97 c -5.67,0 -9.93,1.3 -12.69,3.93 -2.76,2.59 -4.13,5.83 -4.13,9.73 0,2.27 0.4,4.21 1.3,5.8 0.85,1.58 2.07,2.92 3.57,3.93 1.5,1.02 3.28,1.78 5.39,2.27 2.11,0.44 4.34,0.69 6.69,0.69 3.28,0 6.77,-0.37 10.58,-1.13 3.81,-0.73 7.37,-1.66 10.7,-2.76 l 4.98,20.19 c -4.74,1.58 -9.48,2.76 -14.27,3.56 -4.74,0.77 -9.36,1.18 -13.86,1.18 -6.2,0 -12,-0.73 -17.43,-2.15 -5.39,-1.42 -10.17,-3.57 -14.22,-6.4 -4.09,-2.84 -7.3,-6.41 -9.69,-10.62 -2.39,-4.26 -3.56,-9.12 -3.56,-14.67 0,-5.96 1.3,-11.07 3.85,-15.32 2.59,-4.3 6,-7.78 10.29,-10.58 4.26,-2.76 9.16,-4.82 14.67,-6.16 5.47,-1.34 11.19,-2.03 17.02,-2.03 h 13.78 v 20.55 z m 169.66,-163.99 h -25.86 v 150.45 h -31 v -150.45 h -26.26 v -26.71 h 26.75 c -4.46,-9.81 -6.65,-18.93 -6.65,-27.32 0,-6.32 1.13,-12.32 3.44,-17.91 2.27,-5.63 5.83,-10.54 10.62,-14.75 4.78,-4.18 10.9,-7.5 18.4,-9.89 7.46,-2.43 16.41,-3.65 26.75,-3.65 12.44,0 24.2,1.78 35.22,5.35 11.06,3.57 21.52,8.63 31.41,15.16 9.89,6.52 19.33,14.39 28.25,23.63 8.96,9.2 17.55,19.46 25.78,30.69 h -28.49 c -2.76,-2.76 -6,-5.88 -9.69,-9.37 -3.69,-3.48 -7.78,-7.01 -12.28,-10.57 -4.5,-3.57 -9.36,-7.01 -14.55,-10.38 -5.19,-3.41 -10.62,-6.41 -16.33,-9.04 -5.68,-2.67 -11.63,-4.78 -17.8,-6.36 -6.2,-1.58 -12.48,-2.35 -18.89,-2.35 -5.63,0 -10.5,0.61 -14.59,1.86 -4.13,1.3 -7.54,3.08 -10.22,5.35 -2.71,2.31 -4.7,5.03 -5.96,8.15 -1.26,3.12 -1.91,6.61 -1.91,10.37 0,3.32 0.49,6.73 1.5,10.17 0.97,3.44 2.51,7.05 4.58,10.86 h 27.76 v 26.71 z m 159,0 h -25.86 v 150.45 h -31.01 v -95.25 h -32.75 c -4.54,0 -8.47,0.32 -11.83,0.89 -3.37,0.61 -6.12,1.62 -8.31,3.08 -2.19,1.5 -3.81,3.48 -4.86,6 -1.09,2.55 -1.62,5.71 -1.62,9.52 0,4.98 0.89,9.93 2.63,14.87 1.74,4.98 4.18,9.89 7.34,14.75 3.16,4.87 6.97,9.69 11.43,14.47 4.42,4.78 9.32,9.52 14.71,14.19 l -18.77,21.04 c -1.82,-1.06 -4.26,-2.76 -7.37,-5.19 -3.08,-2.39 -6.41,-5.39 -10.01,-9 -3.61,-3.61 -7.26,-7.78 -10.98,-12.52 -3.73,-4.78 -7.09,-10.06 -10.09,-15.85 -3,-5.83 -5.47,-12.16 -7.38,-19.01 -1.91,-6.85 -2.84,-14.15 -2.84,-21.93 0,-8.63 1.26,-15.64 3.73,-21.11 2.52,-5.47 6,-9.73 10.5,-12.85 4.54,-3.08 9.89,-5.19 16.09,-6.32 6.24,-1.17 13.09,-1.74 20.63,-1.74 h 39.76 v -28.5 H 5734.69 V 4877.5 H 5902 v 26.71 z m 136.47,101.65 c 4.98,-2.63 9.32,-5.47 13.05,-8.55 3.73,-3.08 6.81,-6.28 9.32,-9.57 2.51,-3.28 4.33,-6.57 5.59,-9.85 1.22,-3.28 1.82,-6.44 1.82,-9.44 0,-1.99 -0.28,-4.13 -0.81,-6.41 -0.57,-2.31 -1.5,-4.42 -2.8,-6.32 -1.3,-1.86 -3,-3.44 -5.07,-4.74 -2.07,-1.26 -4.58,-1.91 -7.58,-1.91 -3.08,0 -6.12,0.77 -9.04,2.35 -2.92,1.54 -5.68,3.57 -8.19,6.16 -2.56,2.55 -4.86,5.51 -6.93,8.8 -2.11,3.28 -3.93,6.69 -5.43,10.25 v 77.9 h -30.96 v -39.07 l -0.24,-0.12 c -0.97,0.65 -2.19,1.42 -3.77,2.31 -1.54,0.93 -3.37,1.82 -5.52,2.67 -2.15,0.89 -4.58,1.62 -7.33,2.27 -2.8,0.65 -5.83,0.93 -9.16,0.93 -6.97,0 -13.66,-1.46 -20.14,-4.46 -6.44,-2.96 -12.12,-6.97 -17.06,-12.08 -4.98,-5.11 -8.92,-11.11 -11.88,-18 -3,-6.89 -4.46,-14.22 -4.46,-21.97 0,-6.48 1.09,-12.69 3.24,-18.52 2.19,-5.88 5.31,-11.02 9.4,-15.44 4.05,-4.42 9.04,-7.94 14.87,-10.58 5.88,-2.59 12.52,-3.89 19.98,-3.89 5.27,0 10.41,0.81 15.4,2.47 5.02,1.66 10.46,4.66 16.41,9.04 l 0.24,-0.12 v -25.78 h -97.76 v -26.71 h 228.59 v 26.71 h -99.87 v 28.01 l 0.24,0.12 c 2.8,-2.51 5.63,-4.58 8.55,-6.16 2.92,-1.58 5.83,-2.8 8.67,-3.69 2.84,-0.85 5.55,-1.46 8.07,-1.78 2.55,-0.32 4.82,-0.48 6.89,-0.48 6.97,0 13.17,1.42 18.65,4.17 5.47,2.76 10.09,6.41 13.9,10.86 3.81,4.46 6.69,9.57 8.71,15.28 2.03,5.68 3.04,11.51 3.04,17.43 0,6.2 -1.09,12.24 -3.2,18.24 -2.15,5.96 -5.19,11.71 -9.16,17.15 -3.97,5.47 -8.75,10.58 -14.35,15.4 -5.63,4.78 -11.92,9.12 -18.89,12.97 l -15.07,-25.86 z m -46.33,-46.77 c -1.58,-1.62 -3.28,-3.24 -5.11,-4.91 -1.83,-1.66 -3.81,-3.12 -5.92,-4.42 -2.15,-1.34 -4.5,-2.39 -7.01,-3.24 -2.56,-0.81 -5.31,-1.22 -8.31,-1.22 -3.65,0 -6.85,0.61 -9.61,1.91 -2.8,1.26 -5.11,2.96 -7.01,5.11 -1.91,2.11 -3.32,4.62 -4.3,7.46 -0.93,2.83 -1.42,5.87 -1.42,9.04 0,3.65 0.61,7.06 1.78,10.22 1.17,3.16 2.92,5.92 5.15,8.31 2.27,2.35 4.94,4.22 8.11,5.56 3.12,1.38 6.65,2.02 10.62,2.02 4.5,0 8.23,-0.81 11.23,-2.47 2.96,-1.66 5.31,-3.81 7.05,-6.48 1.74,-2.63 2.96,-5.59 3.69,-8.83 0.69,-3.24 1.06,-6.44 1.06,-9.61 v -8.43 z m 272.04,-54.88 h -25.86 v 150.45 h -31 v -150.45 h -26.26 v -26.71 h 26.75 c -4.46,-9.81 -6.65,-18.93 -6.65,-27.32 0,-6.32 1.13,-12.32 3.44,-17.91 2.27,-5.63 5.83,-10.54 10.62,-14.75 4.78,-4.18 10.9,-7.5 18.4,-9.89 7.46,-2.43 16.41,-3.65 26.75,-3.65 12.44,0 24.2,1.78 35.22,5.35 11.06,3.57 21.52,8.63 31.41,15.16 9.89,6.52 19.33,14.39 28.25,23.63 8.96,9.2 17.55,19.46 25.78,30.69 h -28.49 c -2.76,-2.76 -6,-5.88 -9.69,-9.37 -3.69,-3.48 -7.78,-7.01 -12.28,-10.57 -4.5,-3.57 -9.36,-7.01 -14.55,-10.38 -5.19,-3.41 -10.62,-6.41 -16.33,-9.04 -5.68,-2.67 -11.63,-4.78 -17.8,-6.36 -6.2,-1.58 -12.48,-2.35 -18.89,-2.35 -5.63,0 -10.5,0.61 -14.59,1.86 -4.13,1.3 -7.54,3.08 -10.22,5.35 -2.71,2.31 -4.7,5.03 -5.96,8.15 -1.26,3.12 -1.91,6.61 -1.91,10.37 0,3.32 0.49,6.73 1.5,10.17 0.97,3.44 2.51,7.05 4.58,10.86 h 27.76 v 26.71 z m 154.75,0 h -25.9 v 150.33 h -30.96 v -34.9 l -0.73,-0.12 c -4.74,3.08 -9.65,5.35 -14.67,6.81 -5.03,1.46 -10.01,2.19 -15,2.19 -7.3,0 -14.39,-1.46 -21.28,-4.46 -6.89,-2.96 -13.01,-7.01 -18.32,-12.2 -5.35,-5.19 -9.65,-11.27 -12.89,-18.16 -3.24,-6.93 -4.86,-14.35 -4.86,-22.29 0,-7.25 1.38,-14.06 4.13,-20.35 2.8,-6.32 6.52,-11.8 11.27,-16.45 4.78,-4.66 10.33,-8.35 16.78,-10.98 6.4,-2.63 13.25,-3.97 20.51,-3.97 1.3,0 3.12,0.08 5.47,0.28 2.39,0.2 5.11,0.69 8.15,1.5 3.04,0.77 6.36,1.94 9.97,3.48 3.61,1.54 7.25,3.69 10.98,6.36 l 0.48,-0.12 v -26.96 h -106.19 v -26.71 h 163.06 v 26.71 z m -56.42,55.08 c -4.5,-5.27 -9.16,-8.92 -13.98,-10.9 -4.87,-1.99 -9.36,-2.96 -13.54,-2.96 -4.13,0 -7.94,0.73 -11.47,2.19 -3.53,1.46 -6.57,3.44 -9.16,5.92 -2.55,2.52 -4.58,5.39 -6.04,8.63 -1.46,3.24 -2.19,6.65 -2.19,10.21 0,3.41 0.65,6.77 2.03,10.13 1.34,3.37 3.2,6.41 5.63,9.08 2.39,2.72 5.35,4.91 8.8,6.61 3.41,1.7 7.3,2.56 11.55,2.56 4.22,0 8.02,-0.85 11.51,-2.52 3.48,-1.66 6.48,-3.77 8.96,-6.4 2.51,-2.59 4.46,-5.51 5.83,-8.71 1.38,-3.2 2.07,-6.37 2.07,-9.44 v -14.39 z m 192.85,46.57 c 4.98,-2.63 9.32,-5.47 13.05,-8.55 3.73,-3.08 6.81,-6.28 9.32,-9.57 2.51,-3.28 4.33,-6.57 5.59,-9.85 1.22,-3.28 1.82,-6.44 1.82,-9.44 0,-1.99 -0.28,-4.13 -0.81,-6.41 -0.57,-2.31 -1.5,-4.42 -2.8,-6.32 -1.3,-1.86 -3,-3.44 -5.07,-4.74 -2.07,-1.26 -4.58,-1.91 -7.58,-1.91 -3.08,0 -6.12,0.77 -9.04,2.35 -2.92,1.54 -5.68,3.57 -8.19,6.16 -2.56,2.55 -4.86,5.51 -6.93,8.8 -2.11,3.28 -3.93,6.69 -5.43,10.25 v 77.9 h -30.96 v -39.07 l -0.24,-0.12 c -0.97,0.65 -2.19,1.42 -3.77,2.31 -1.54,0.93 -3.37,1.82 -5.52,2.67 -2.15,0.89 -4.58,1.62 -7.33,2.27 -2.8,0.65 -5.83,0.93 -9.16,0.93 -6.97,0 -13.66,-1.46 -20.14,-4.46 -6.44,-2.96 -12.12,-6.97 -17.06,-12.08 -4.98,-5.11 -8.92,-11.11 -11.88,-18 -3,-6.89 -4.46,-14.22 -4.46,-21.97 0,-6.48 1.09,-12.69 3.24,-18.52 2.19,-5.88 5.31,-11.02 9.4,-15.44 4.05,-4.42 9.04,-7.94 14.87,-10.58 5.88,-2.59 12.52,-3.89 19.98,-3.89 5.27,0 10.41,0.81 15.4,2.47 5.02,1.66 10.46,4.66 16.41,9.04 l 0.24,-0.12 v -25.78 h -97.76 v -26.71 h 228.59 v 26.71 h -99.87 v 28.01 l 0.24,0.12 c 2.8,-2.51 5.63,-4.58 8.55,-6.16 2.92,-1.58 5.83,-2.8 8.67,-3.69 2.84,-0.85 5.55,-1.46 8.07,-1.78 2.55,-0.32 4.82,-0.48 6.89,-0.48 6.97,0 13.17,1.42 18.65,4.17 5.47,2.76 10.09,6.41 13.9,10.86 3.81,4.46 6.69,9.57 8.71,15.28 2.03,5.68 3.04,11.51 3.04,17.43 0,6.2 -1.09,12.24 -3.2,18.24 -2.15,5.96 -5.19,11.71 -9.16,17.15 -3.97,5.47 -8.75,10.58 -14.35,15.4 -5.63,4.78 -11.92,9.12 -18.89,12.97 l -15.07,-25.86 z m -46.33,-46.77 c -1.58,-1.62 -3.28,-3.24 -5.11,-4.91 -1.83,-1.66 -3.81,-3.12 -5.92,-4.42 -2.15,-1.34 -4.5,-2.39 -7.01,-3.24 -2.56,-0.81 -5.31,-1.22 -8.31,-1.22 -3.65,0 -6.85,0.61 -9.61,1.91 -2.8,1.26 -5.11,2.96 -7.01,5.11 -1.91,2.11 -3.32,4.62 -4.3,7.46 -0.93,2.83 -1.42,5.87 -1.42,9.04 0,3.65 0.61,7.06 1.78,10.22 1.17,3.16 2.92,5.92 5.15,8.31 2.27,2.35 4.94,4.22 8.11,5.56 3.12,1.38 6.65,2.02 10.62,2.02 4.5,0 8.23,-0.81 11.23,-2.47 2.96,-1.66 5.31,-3.81 7.05,-6.48 1.74,-2.63 2.96,-5.59 3.69,-8.83 0.69,-3.24 1.06,-6.44 1.06,-9.61 v -8.43 z m 204.96,-54.88 h -25.86 v 150.33 h -31 v -150.33 h -26.26 v -26.71 h 83.13 v 26.71 z m -8.31,-26.71 h 202.37 v 26.71 h -25.9 v 150.33 h -31 v -73.52 h -61.12 c -4.62,3.12 -10.09,5.31 -16.54,6.69 l -0.2,0.44 c 2.27,4.74 4.87,9.36 7.7,13.78 2.84,4.42 6.04,8.8 9.57,13.05 3.53,4.3 7.42,8.51 11.67,12.73 4.3,4.17 8.96,8.43 14.02,12.69 l -19.57,21.76 c -5.56,-4.94 -11.03,-10.41 -16.42,-16.45 -5.39,-6.08 -10.58,-12.36 -15.6,-18.97 -5.03,-6.57 -9.81,-13.26 -14.31,-20.06 -4.5,-6.81 -8.72,-13.42 -12.57,-19.86 -3.89,-6.48 -7.38,-12.56 -10.46,-18.36 -3.08,-5.8 -5.71,-10.94 -7.86,-15.44 l 26.26,-13.41 c 3,7.66 6.2,13.3 9.57,16.82 3.36,3.49 6.81,5.27 10.37,5.27 2.07,0 3.85,-0.57 5.39,-1.67 1.54,-1.09 2.84,-2.63 3.81,-4.58 0.97,-1.94 1.7,-4.26 2.19,-6.93 0.48,-2.72 0.73,-5.68 0.73,-8.92 0,-6.32 -0.93,-12.44 -2.76,-18.28 -1.78,-5.88 -4.62,-11.55 -8.43,-17.11 h -60.92 v -26.71 z m 145.46,77.05 v -50.34 h -52.37 c 3.04,6.16 5.39,12.24 7.09,18.24 1.7,5.96 2.56,12.2 2.56,18.69 0,2.31 -0.12,4.54 -0.37,6.77 -0.24,2.23 -0.57,4.42 -0.97,6.65 h 44.06 z m -1430.92,298.28 h -25.86 v 150.33 h -31.01 v -61.53 h -53.3 v 16.98 c 0,1.58 -0.08,3.24 -0.2,4.94 -0.12,1.7 -0.48,3.28 -1.05,4.7 -0.61,1.42 -1.5,2.59 -2.68,3.57 -1.17,0.93 -2.84,1.42 -4.98,1.42 -2.92,0 -6.12,-0.85 -9.52,-2.55 -3.41,-1.7 -6.81,-3.93 -10.3,-6.73 -3.49,-2.76 -6.85,-5.96 -10.05,-9.57 -3.2,-3.61 -6.04,-7.25 -8.51,-10.98 -2.43,-3.69 -4.42,-7.37 -5.92,-10.98 -1.5,-3.57 -2.27,-6.81 -2.27,-9.65 0,-0.97 0.12,-1.91 0.37,-2.88 0.24,-0.93 0.77,-1.78 1.62,-2.47 0.81,-0.73 1.99,-1.3 3.45,-1.78 1.46,-0.48 3.44,-0.73 6,-0.73 h 13.05 v -62.09 h -41.58 v -26.71 h 182.75 v 26.71 z m -110.16,0 v 62.09 h 53.3 v -62.09 z m 193.78,113.98 c 5.96,-2.27 10.26,-4.62 12.93,-6.97 2.72,-2.39 4.06,-5.43 4.06,-9.16 0,-2.15 -0.44,-4.13 -1.38,-6 -0.89,-1.87 -2.35,-3.49 -4.38,-4.87 -2.03,-1.38 -4.62,-2.47 -7.78,-3.28 -3.16,-0.77 -6.97,-1.17 -11.39,-1.17 -3.73,0 -7.38,0.32 -10.94,1.01 -3.57,0.69 -6.73,1.91 -9.48,3.69 -2.8,1.78 -5.03,4.17 -6.73,7.17 -1.7,3 -2.56,6.81 -2.56,11.39 0,4.82 0.93,9.32 2.76,13.5 1.83,4.13 4.22,8.03 7.22,11.59 3.04,3.53 6.48,6.81 10.42,9.77 3.89,2.96 7.98,5.67 12.16,8.15 4.22,2.43 8.39,4.62 12.52,6.48 4.18,1.82 8.03,3.44 11.59,4.78 l -11.76,25.05 c -6.2,-2.59 -12.32,-5.39 -18.48,-8.43 -6.12,-3 -12,-6.24 -17.55,-9.77 -5.59,-3.53 -10.74,-7.38 -15.52,-11.55 -4.74,-4.14 -8.88,-8.68 -12.4,-13.62 -3.53,-4.98 -6.28,-10.37 -8.23,-16.21 -1.98,-5.88 -3,-12.24 -3,-19.13 0,-6.97 1.02,-13.17 3.04,-18.6 2.03,-5.39 4.82,-10.13 8.39,-14.19 -1.66,-2.43 -3.24,-5.03 -4.66,-7.74 -1.42,-2.76 -2.63,-5.52 -3.61,-8.27 -1.01,-2.76 -1.78,-5.51 -2.39,-8.27 -0.57,-2.71 -0.89,-5.35 -0.89,-7.9 0,-3.32 0.57,-6.53 1.66,-9.61 1.14,-3.08 2.92,-5.8 5.43,-8.19 2.47,-2.39 5.71,-4.26 9.65,-5.71 3.97,-1.42 8.8,-2.11 14.51,-2.11 h 48.43 v -15.81 h -103.56 v -26.71 h 162.32 v 26.71 h -27.52 v 41.1 h -70.89 c -1.06,0 -2.11,0.12 -3.16,0.41 -1.06,0.28 -2.07,0.77 -2.96,1.42 -0.93,0.69 -1.66,1.62 -2.27,2.8 -0.61,1.18 -0.89,2.67 -0.89,4.5 0,1.82 0.24,3.52 0.77,5.07 0.53,1.54 1.22,3 2.07,4.33 8.35,-2.8 17.14,-4.17 26.51,-4.17 7.41,0 14.51,0.85 21.2,2.55 6.69,1.7 12.56,4.3 17.63,7.78 5.07,3.48 9.08,7.9 12.04,13.3 2.96,5.39 4.46,11.75 4.46,19.13 0,6.32 -1.06,11.75 -3.2,16.33 -2.15,4.54 -4.94,8.47 -8.39,11.79 -3.44,3.33 -7.34,6.16 -11.67,8.51 -4.38,2.31 -8.8,4.38 -13.3,6.12 l -10.82,-26.99 z m 145.22,-113.98 h -25.86 v 150.33 h -31 v -150.33 h -26.26 v -26.71 h 83.13 v 26.71 z m 174.44,0 h -25.86 v 150.33 h -31.01 v -61.53 h -53.3 v 16.98 c 0,1.58 -0.08,3.24 -0.2,4.94 -0.12,1.7 -0.48,3.28 -1.05,4.7 -0.61,1.42 -1.5,2.59 -2.68,3.57 -1.17,0.93 -2.84,1.42 -4.98,1.42 -2.92,0 -6.12,-0.85 -9.52,-2.55 -3.41,-1.7 -6.81,-3.93 -10.3,-6.73 -3.49,-2.76 -6.85,-5.96 -10.05,-9.57 -3.2,-3.61 -6.04,-7.25 -8.51,-10.98 -2.43,-3.69 -4.42,-7.37 -5.92,-10.98 -1.5,-3.57 -2.27,-6.81 -2.27,-9.65 0,-0.97 0.12,-1.91 0.37,-2.88 0.24,-0.93 0.77,-1.78 1.62,-2.47 0.81,-0.73 1.99,-1.3 3.45,-1.78 1.46,-0.48 3.44,-0.73 6,-0.73 h 13.05 v -62.09 h -41.58 v -26.71 h 182.75 v 26.71 z m -110.16,0 v 62.09 h 53.3 v -62.09 z m 51.52,-64.72 c 0,-2.35 0.44,-4.58 1.26,-6.65 0.85,-2.02 1.99,-3.81 3.53,-5.35 1.5,-1.5 3.28,-2.67 5.39,-3.52 2.11,-0.89 4.42,-1.34 6.93,-1.34 2.47,0 4.74,0.44 6.89,1.34 2.15,0.85 3.97,2.07 5.52,3.61 1.58,1.54 2.8,3.36 3.69,5.47 0.93,2.07 1.38,4.38 1.38,6.81 0,2.47 -0.41,4.7 -1.26,6.77 -0.81,2.07 -2.02,3.81 -3.57,5.27 -1.54,1.5 -3.36,2.63 -5.43,3.44 -2.11,0.85 -4.38,1.26 -6.85,1.26 -2.43,0 -4.74,-0.41 -6.89,-1.26 -2.15,-0.81 -3.97,-1.99 -5.51,-3.53 -1.54,-1.58 -2.76,-3.36 -3.69,-5.43 -0.89,-2.07 -1.38,-4.34 -1.38,-6.89 z m 239.05,64.72 h -37.29 v 40.25 h -59.74 c -4.02,0 -6.77,0.61 -8.23,1.78 -1.5,1.18 -2.23,3.08 -2.23,5.72 0,1.34 0.24,2.8 0.65,4.38 0.44,1.58 1.26,3.04 2.47,4.42 1.18,1.33 2.8,2.47 4.87,3.44 2.02,0.93 4.7,1.42 7.94,1.42 h 33.24 c 6.57,0 12.12,1.02 16.58,3 4.46,2.03 8.06,4.78 10.82,8.27 2.72,3.48 4.66,7.58 5.88,12.28 1.18,4.7 1.78,9.73 1.78,15.04 0,7.5 -1.26,14.63 -3.77,21.36 -2.47,6.73 -6.24,12.65 -11.23,17.75 -4.98,5.11 -11.23,9.16 -18.76,12.16 -7.5,3.04 -16.3,4.54 -26.35,4.54 -10.62,0 -20.75,-1.91 -30.44,-5.63 -9.72,-3.77 -18.6,-9 -26.67,-15.65 -8.06,-6.65 -15.2,-14.59 -21.32,-23.79 -6.12,-9.24 -10.9,-19.29 -14.31,-30.24 l 26.71,-10.66 c 2.63,7.5 6.12,14.71 10.46,21.61 4.33,6.89 9.36,13.01 15.07,18.32 5.72,5.35 12,9.61 18.81,12.77 6.85,3.2 14.11,4.78 21.69,4.78 4.66,0 8.8,-0.65 12.4,-1.91 3.61,-1.3 6.61,-3.04 9.04,-5.35 2.43,-2.31 4.26,-5.07 5.51,-8.31 1.26,-3.24 1.91,-6.85 1.91,-10.82 0,-2.84 -0.28,-5.19 -0.89,-7.01 -0.61,-1.83 -1.54,-3.24 -2.83,-4.26 -1.3,-1.02 -2.96,-1.74 -4.94,-2.07 -1.99,-0.37 -4.3,-0.57 -7.01,-0.57 H 5900 c -6.08,0 -11.31,-1.46 -15.72,-4.37 -4.38,-2.92 -8.02,-6.65 -10.9,-11.11 -2.92,-4.46 -5.03,-9.36 -6.44,-14.67 -1.38,-5.31 -2.07,-10.37 -2.07,-15.2 0,-5.23 0.73,-9.53 2.15,-12.97 1.42,-3.44 3.44,-6.24 6.04,-8.35 2.64,-2.07 5.72,-3.56 9.32,-4.42 3.61,-0.89 7.54,-1.33 11.83,-1.33 h 41.43 v -14.59 h -120.42 v -26.71 h 188.71 v 26.71 z"
         id="path1504" />
      <path
         style="fill:#000000;fill-rule:nonzero"
         inkscape:connector-curvature="0"
         class="fil6"
         d="m 6172.98,5252.84 v 17.8 c 5.72,1.74 10.82,4.33 15.32,7.74 4.54,3.41 8.35,7.34 11.47,11.8 3.12,4.5 5.51,9.36 7.13,14.63 1.62,5.27 2.43,10.58 2.43,15.97 0,8.71 -1.58,16.66 -4.74,23.91 -3.16,7.25 -7.42,13.5 -12.72,18.72 -5.31,5.19 -11.39,9.28 -18.32,12.16 -6.93,2.88 -14.15,4.34 -21.56,4.34 -8.47,0 -16.29,-1.91 -23.51,-5.63 -7.21,-3.77 -14.31,-9.04 -21.28,-15.77 -4.66,6.2 -10.13,11.19 -16.38,15 -6.24,3.77 -13.74,5.67 -22.45,5.67 -8.23,0 -15.69,-1.42 -22.41,-4.33 -6.73,-2.88 -12.48,-6.85 -17.22,-11.92 -4.74,-5.07 -8.43,-10.98 -11.07,-17.71 -2.59,-6.73 -3.89,-13.94 -3.89,-21.72 0,-8.39 1.38,-16.01 4.13,-22.9 2.8,-6.89 6.61,-12.77 11.51,-17.63 4.94,-4.87 10.74,-8.63 17.43,-11.31 6.69,-2.63 13.94,-3.97 21.76,-3.97 8.87,0 17.15,1.78 24.85,5.31 7.66,3.53 15.28,8.59 22.78,15.24 3.33,-3.97 7.06,-7.54 11.23,-10.74 4.13,-3.2 9,-5.59 14.55,-7.17 v -17.47 h -146.44 v -26.71 h 238.69 v 26.71 h -61.28 z m -102.22,40.86 c -3.73,0 -7.13,0.73 -10.26,2.23 -3.16,1.54 -5.84,3.61 -8.11,6.32 -2.23,2.67 -4.01,5.88 -5.27,9.61 -1.26,3.73 -1.91,7.74 -1.91,12.12 0,3.89 0.53,7.54 1.54,10.98 1.06,3.44 2.56,6.44 4.5,9.04 1.98,2.55 4.33,4.58 7.09,6.08 2.72,1.54 5.84,2.27 9.32,2.27 4.18,0 7.82,-1.01 10.86,-3.08 3.04,-2.07 5.84,-4.94 8.35,-8.67 2.55,-3.73 5.07,-8.19 7.54,-13.42 2.51,-5.23 5.35,-11.02 8.51,-17.35 -5.72,-5.76 -11.23,-9.89 -16.58,-12.4 -5.35,-2.47 -10.54,-3.73 -15.6,-3.73 z m 87.26,0.93 c -4.42,0 -8.27,1.18 -11.55,3.53 -3.28,2.31 -6.36,5.47 -9.16,9.44 -2.8,3.93 -5.51,8.55 -8.15,13.82 -2.59,5.27 -5.43,10.86 -8.55,16.78 1.99,2.15 4.09,4.13 6.32,5.96 2.19,1.82 4.5,3.4 6.89,4.74 2.35,1.34 4.78,2.39 7.3,3.16 2.47,0.73 5.03,1.13 7.66,1.13 3.85,0 7.58,-0.65 11.11,-1.86 3.53,-1.22 6.61,-3.12 9.32,-5.67 2.67,-2.59 4.82,-5.84 6.4,-9.81 1.58,-3.97 2.35,-8.67 2.35,-14.15 0,-3.73 -0.41,-7.21 -1.3,-10.5 -0.85,-3.28 -2.15,-6.16 -3.85,-8.59 -1.7,-2.47 -3.81,-4.42 -6.28,-5.84 -2.51,-1.42 -5.35,-2.15 -8.51,-2.15 z m 227.06,147.25 h -30.64 c -25.57,-28.17 -38.34,-62.82 -38.34,-103.88 0,-39.68 12.76,-74.7 38.34,-105.1 h 30.4 c -24,31.82 -35.95,66.84 -35.95,105.1 0,38.22 12.04,72.83 36.19,103.88 z m 180.61,-189.04 h -25.86 v 150.33 h -31.01 v -61.53 h -53.3 v 16.98 c 0,1.58 -0.08,3.24 -0.2,4.94 -0.12,1.7 -0.48,3.28 -1.05,4.7 -0.61,1.42 -1.5,2.59 -2.68,3.57 -1.17,0.93 -2.84,1.42 -4.98,1.42 -2.92,0 -6.12,-0.85 -9.52,-2.55 -3.41,-1.7 -6.81,-3.93 -10.3,-6.73 -3.49,-2.76 -6.85,-5.96 -10.05,-9.57 -3.2,-3.61 -6.04,-7.25 -8.51,-10.98 -2.43,-3.69 -4.42,-7.37 -5.92,-10.98 -1.5,-3.57 -2.27,-6.81 -2.27,-9.65 0,-0.97 0.12,-1.91 0.37,-2.88 0.24,-0.93 0.77,-1.78 1.62,-2.47 0.81,-0.73 1.99,-1.3 3.45,-1.78 1.46,-0.48 3.44,-0.73 6,-0.73 h 13.05 v -62.09 h -41.58 v -26.71 h 182.75 v 26.71 z m -110.16,0 v 62.09 h 53.3 v -62.09 z m 138.57,153.29 c -6.2,0 -11.35,-1.91 -15.44,-5.68 -4.13,-3.81 -6.16,-8.47 -6.16,-14.02 0,-5.71 2.11,-10.37 6.32,-14.02 4.26,-3.65 9.52,-5.47 15.85,-5.47 6.44,0 11.67,1.87 15.77,5.56 4.05,3.65 6.08,8.31 6.08,13.94 0,5.76 -2.07,10.5 -6.2,14.19 -4.18,3.69 -9.57,5.52 -16.21,5.52 z m 65.9,35.75 h -30.4 c 24.2,-30.89 36.31,-65.5 36.31,-103.88 0,-38.1 -12.12,-73.12 -36.31,-105.1 h 30.64 c 25.61,30.48 38.46,65.5 38.46,105.1 0,40.73 -12.93,75.39 -38.7,103.88 z"
         id="path1506" />
    </g>
    <path
       id="path1511"
       d="m 33.25536,201.36349 c 0.41605,-1.27508 1.15113,-1.95758 2.04775,-2.34037 0.89662,0.38279 1.63169,1.06529 2.04775,2.34037 0.2766,-0.55576 0.72186,-0.95758 1.34137,-1.17018 0.54864,0.39572 0.86969,1.03021 1.14503,1.97459 0.57226,-0.67691 1.24739,-1.01828 2.09397,-0.80264 -0.43967,0.60783 -0.23774,2.17247 -0.38531,3.87731 -0.2314,2.67486 -1.17018,5.69468 -5.69062,5.90854 -0.0145,0.64847 -0.0287,1.29744 -0.0429,1.94538 -0.0155,0.69902 -0.031,1.39853 -0.0465,2.09753 -0.15444,0 -0.30912,0 -0.4633,0 -0.15443,0 -0.30886,0 -0.46304,0 -0.0155,-0.699 -0.031,-1.39851 -0.0465,-2.09753 l -0.0429,-1.94564 c -4.520181,-0.2136 -5.459221,-3.23366 -5.690611,-5.90854 -0.14757,-1.70485 0.0541,-3.26949 -0.38532,-3.87731 0.84658,-0.21564 1.52197,0.12573 2.09398,0.80264 0.27533,-0.94436 0.59664,-1.57885 1.145281,-1.97459 0.61976,0.21259 1.06477,0.61442 1.34137,1.17017 z"
       class="fil4"
       inkscape:connector-curvature="0"
       style="clip-rule:evenodd;fill:#ff0000;fill-rule:evenodd;stroke-width:0.02539998;image-rendering:optimizeQuality;shape-rendering:geometricPrecision;text-rendering:geometricPrecision" />
  </g>
</svg>
