<?xml version="1.0" standalone="no"?>
<!DOCTYPE svg PUBLIC "-//W3C//DTD SVG 1.1//EN" "http://www.w3.org/Graphics/SVG/1.1/DTD/svg11.dtd">
<svg xmlns="http://www.w3.org/2000/svg">
<metadata>Generated by Fontastic.me</metadata>
<defs>
<font id="tssfont" horiz-adv-x="512">
<font-face font-family="tssfont" units-per-em="512" ascent="480" descent="-32"/>
<missing-glyph horiz-adv-x="512" />

<glyph glyph-name="action-items" unicode="&#97;" d="M230 343l-35 32-37-36 72-68 124 119-37 36z m0-178l-35 33-37-36 72-69 124 120-37 36z m185 345l-318 0c-29 0-53-23-53-51l0-406c0-28 24-51 53-51l318 0c29 0 53 23 53 51l0 406c0 28-24 51-53 51z m-318-457l0 406 318 0 0-406z"/>
<glyph glyph-name="add" unicode="&#98;" d="M256 509c-140 0-253-113-253-253 0-140 113-253 253-253 140 0 253 113 253 253 0 140-113 253-253 253z m0-478c-124 0-225 101-225 225 0 124 101 225 225 225 124 0 225-101 225-225 0 0 0 0 0 0 0-124-101-225-225-225z m114 239l-100 0 0 100c0 7-6 14-14 14-8 0-14-7-14-14l0-100-100 0c-7 0-14-6-14-14 0-8 7-14 14-14l100 0 0-100c0-7 6-14 14-14 8 0 14 7 14 14l0 100 100 0c7 0 14 6 14 14 0 8-7 14-14 14z"/>
<glyph glyph-name="address" unicode="&#99;" d="M203 229l146 0c9 0 17 4 23 12 5 8 6 19 2 30l-1 3c-7 16-41 42-54 52 5 9 8 21 8 33 0 54-32 62-51 62-19 0-51-8-51-62 0-12 3-23 8-33-13-9-47-35-54-51l-2-5c-3-10-2-21 3-29 6-8 14-12 23-12z m73 176c15 0 35-5 35-46 0-25-15-45-35-45-19 0-35 21-35 45 0 41 20 46 35 46z m-84-142l2 5c4 10 31 32 49 45 9-9 20-16 33-16 13 0 25 6 34 16 17-13 44-35 48-46l2-3c2-5 1-10-1-14-3-3-6-5-10-5l-146 0c-4 0-7 2-10 5-2 4-3 9-1 13z m-112-87c-23 0-41-19-41-42 0-23 18-42 41-42l3 0 0-13c0-37 29-68 64-68l226 0c34 0 62 29 64 64l8 0c15 0 28 12 28 26l0 48c0 15-13 26-28 26l-7 0 0 23 7 0c15 0 28 12 28 26l0 48c0 14-13 26-28 26l-7 0 0 23 7 0c15 0 28 11 28 26l0 48c0 14-13 26-28 26l-7 0 0 12c0 37-30 68-65 68l-226 0c-35 0-64-31-64-68l0-21-3 0c-23 0-41-18-41-42 0-23 18-41 41-41l3 0 0-36-3 0c-23 0-41-18-41-41 0-24 18-42 41-42l3 0 0-34-3 0z m-25-42c0 16 12 25 24 25l10 0c1 0 1 0 1 0l11 0c12 0 25-9 25-25 0-13-9-25-25-25l-9 0c-1 0-1 0-2 0l-10 0c-16 0-25 13-25 25z m390 25c6 0 12-4 12-10l0-48c0-5-6-9-12-9l-7 0 0 67 7 0z m0 123c6 0 12-5 12-10l0-48c0-5-6-10-12-10l-7 0 0 68z m0 123c6 0 12-5 12-10l0-48c0-6-6-10-12-10l-7 0 0 68z m-347 28c0 28 22 51 49 51l226 0c27 0 49-23 49-51l0-354c0-28-22-51-49-51l-226 0c-27 0-49 23-49 51l0 13 3 0c23 0 41 18 41 42 0 23-18 41-41 41l-3 0 0 35 3 0c23 0 41 19 41 42 0 23-18 42-41 42l-3 0 0 35 3 0c23 0 41 18 41 41 0 24-18 42-41 42l-3 0z m-43-63c0 16 12 26 24 26l22 0c12 0 25-10 25-26 0-12-9-25-25-25l-21 0c-16 0-25 13-25 25z m0-118c0 16 12 25 24 25l11 0c1 0 1 0 2 0l9 0c12 0 25-9 25-25 0-12-9-25-25-25l-11 0c0 0 0 0-1-1l-9 0c-16 0-25 13-25 26z m301-59l-159 0c-4 0-7-4-7-8 0-5 3-9 7-9l159 0c4 0 8 4 8 9 0 4-4 8-8 8z m0-45l-159 0c-4 0-7-4-7-8 0-5 3-9 7-9l159 0c4 0 8 4 8 9 0 4-4 8-8 8z"/>
<glyph glyph-name="admin" unicode="&#100;" d="M256 412c-87 0-157-70-157-156 0-86 70-156 157-156 87 0 157 70 157 156 0 86-70 156-157 156z m-96-259c20 35 56 56 96 56 40 0 77-22 96-56-25-23-59-37-96-37-37 0-71 14-96 37z m204 12c-17 26-42 45-71 54 20 13 35 35 35 60 0 40-32 71-71 71-40 0-71-31-71-71 0-25 13-47 34-60-29-8-55-28-71-54-22 25-35 56-35 91 0 77 64 141 142 141 78 0 142-64 142-141 0-35-13-66-34-91z m-108 60c-31 0-55 24-55 54 0 31 24 55 55 55 31 0 55-24 55-55 0-30-24-54-55-54z m236 86l-31 0c-4 18-11 35-21 50l22 22c3 3 3 8 0 11l-67 67c-3 3-8 3-11 0l-22-22c-15 9-33 16-51 21l0 30c0 5-3 8-8 8l-94 0c-5 0-8-3-8-8l0-30c-18-5-35-12-51-21l-22 22c-3 3-8 3-11 0l-67-67c-3-3-3-8 0-11l22-22c-10-15-17-32-21-50l-31 0c-5 0-8-3-8-8l0-94c0-4 3-8 8-8l31 0c4-18 11-35 21-50l-22-22c-3-3-3-8 0-11l67-67c3-3 8-3 11 0l22 22c15-9 33-16 51-21l0-30c0-5 3-8 8-8l94 0c5 0 8 3 8 8l0 30c18 5 35 12 51 21l22-22c3-3 8-3 11 0l67 67c3 3 3 8 0 11l-22 22c10 15 17 32 21 50l31 0c5 0 8 4 8 8l0 94c0 5-3 8-8 8z m-8-94l-29 0c-4 0-7-2-8-6-4-21-12-40-23-57-2-3-2-7 0-10l21-21-55-54-21 20c-2 2-6 3-9 1-18-11-37-19-58-24-4 0-6-3-6-7l0-29-79 0 0 29c0 4-3 7-7 7-20 5-40 13-57 24-3 1-7 1-10-1l-21-20-55 54 21 21c2 2 3 6 0 9-11 18-19 37-23 57-1 4-4 6-8 6l-29 0 0 79 29 0c4 0 7 2 8 6 4 21 12 40 23 57 2 3 2 7 0 10l-21 21 55 54 21-20c2-2 6-3 9-1 18 11 37 19 58 24 3 0 6 4 6 7l0 29 79 0 0-28c0-4 2-7 6-8 20-5 40-13 57-24 4-1 7-1 10 1l22 20 55-54-21-21c-2-2-3-6 0-9 11-18 19-37 23-57 1-4 4-6 8-6l29 0 0-79 0 0z"/>
<glyph glyph-name="admin-1" unicode="&#101;" d="M496 312l-31 0c-5 18-12 36-22 52l23 23c3 3 3 8 0 11l-68 68c-3 3-8 3-11 0l-23-23c-16 10-34 17-52 22l0 31c0 5-3 8-8 8l-96 0c-5 0-8-3-8-8l0-31c-18-5-36-12-52-22l-23 23c-3 3-8 3-11 0l-68-68c-3-3-3-8 0-11l23-23c-10-16-17-34-22-52l-31 0c-5 0-8-3-8-8l0-96c0-5 3-8 8-8l31 0c5-18 12-36 22-52l-23-23c-3-3-3-8 0-11l68-68c3-3 8-3 11 0l23 23c16-10 34-17 52-22l0-31c0-5 3-8 8-8l96 0c5 0 8 3 8 8l0 31c18 5 36 12 52 22l23-23c3-3 8-3 11 0l68 68c3 3 3 8 0 11l-23 23c10 16 17 34 22 52l31 0c5 0 8 3 8 8l0 96c0 5-3 8-8 8z m-8-96l-29 0c-4 0-8-2-8-6-5-21-13-41-24-59-2-3-2-7 0-10l21-21-56-56-21 21c-2 2-6 3-9 0-19-11-38-19-60-24-4 0-6-4-6-8l0-29-80 0 0 29c0 4-2 8-6 8-21 5-41 13-60 24-3 2-7 2-9 0l-21-21-56 56 21 21c2 2 3 6 0 9-11 19-19 38-24 59 0 4-4 6-8 6l-29 0 0 81 29 0c4 0 8 2 8 6 5 21 13 41 24 59 2 3 2 7 0 10l-21 21 56 56 21-21c2-2 6-3 9 0 19 11 38 19 60 24 4 0 6 4 6 8l0 29 80 0 0-29c0-4 2-8 6-8 21-5 41-13 60-24 3-2 7-2 9 0l21 21 56-56-21-21c-2-2-3-6 0-9 11-19 19-38 24-59 0-4 4-6 8-6l29 0z m-72 40c0-45-18-86-49-115-17 44-61 75-111 75 35 0 64 29 64 64 0 35-29 64-64 64-35 0-64-29-64-64 0-35 29-64 64-64-50 0-94-31-111-75-31 29-49 70-49 115 0 88 72 160 160 160 88 0 160-72 160-160z"/>
<glyph glyph-name="admin-2" unicode="&#102;" d="M500 148l-11 3c-2 9-5 17-10 25l6 10c2 4 3 8 0 11l-22 23c-1 1-3 2-5 2-2 0-4-1-6-2l-10-6c-7 4-15 8-24 10l-3 12c-1 4-3 8-7 8l-31 0c-5 0-7-4-8-8l-3-12c-9-2-17-6-24-10l-10 6c-2 1-4 2-6 2-2 0-4-1-5-2l-22-23c-3-3-2-7 0-11l6-10c-4-8-8-17-10-25l-11-3c-4-1-8-4-8-8l0-32c0-5 4-7 8-8l11-3c2-9 6-18 10-26l-6-10c-2-3-3-8 0-11l22-23c1-1 3-2 5-2 2 0 4 1 6 2l10 6c7-4 15-8 24-10l3-12c1-4 3-8 8-8l31 0c4 0 6 4 7 8l3 12c9 2 17 6 24 10l10-6c2-1 4-2 7-2 1 0 3 1 4 2l22 23c3 3 2 8 0 11l-6 10c4 8 8 17 10 26l11 3c4 1 8 3 8 8l0 32c0 4-4 7-8 8m-108-79c-29 0-53 24-53 55 0 30 24 54 53 54 29 0 53-24 53-54 0-31-24-55-53-55m-83-40l-280 0c6 43 43 60 79 73 24 7 67 33 67 89 0 48-19 72-30 84-1 2-2 3-3 5 0 0-1 0-1 1-1 2-6 13 1 40 1 6 0 11-2 17-6 13-22 50-11 77 14 37 27 45 51 55 1 1 2 1 3 2 6 4 25 11 45 11 11 0 20-2 27-6 9-5 17-14 29-43 17-42 13-77 1-93-4-6-5-14-4-21 6-26 2-36 1-38-1-1-1-1-2-2-1-2-2-3-3-5-11-12-30-36-30-84 0-23 8-41 18-55 5 7 11 13 18 17-7 10-11 22-11 38 0 46 20 63 28 74 0 0 16 14 5 61 18 25 21 70 2 117-12 30-23 47-40 56-12 7-26 10-39 10-25 0-49-9-58-16-28-12-46-24-64-68-14-36 3-78 12-98-11-46 4-62 4-62 8-11 28-28 28-74 0-52-49-64-49-64-32-12-97-35-97-111 0 0 0-13 12-13l296 0c-2 8-3 17-3 26"/>
<glyph glyph-name="alert1" unicode="&#103;" d="M207 442c27 47 71 47 98 0l188-323c27-46 5-84-49-84l-376 0c-54 0-76 38-49 84z m16-136l0-106c0-9 8-16 17-16l32 0c9 0 17 7 17 16l0 106c0 9-8 17-17 17l-32 0c-9 0-17-8-17-17z m0-163l0-32c0-10 8-17 17-17l32 0c9 0 17 8 17 17l0 32c0 9-8 16-17 16l-32 0c-9 0-17-7-17-16z"/>
<glyph glyph-name="alighments" unicode="&#104;" d="M465 117l-190 0c-5 23-25 40-49 40-24 0-44-17-48-40l-131 0c-5 0-10-5-10-10 0-6 5-10 10-10l131 0c4-23 24-40 48-40 24 0 44 17 49 40l190 0c5 0 10 4 10 10 0 5-5 10-10 10m-239-40c-16 0-30 14-30 30 0 16 14 30 30 30 17 0 30-14 30-30 0-16-13-30-30-30m-179 318l51 0c5-23 25-40 49-40 24 0 44 17 48 40l270 0c5 0 10 5 10 10 0 6-5 10-10 10l-270 0c-4 23-24 40-48 40-24 0-44-17-49-40l-51 0c-5 0-10-4-10-10 0-5 5-10 10-10m100 40c16 0 30-14 30-30 0-16-14-30-30-30-17 0-30 14-30 30 0 16 13 30 30 30m318-169l-31 0c-5 23-25 40-49 40-24 0-44-17-49-40l-289 0c-5 0-10-4-10-10 0-5 5-10 10-10l289 0c5-23 25-40 49-40 24 0 44 17 49 40l31 0c5 0 10 5 10 10 0 6-5 10-10 10m-80-40c-16 0-30 14-30 30 0 16 14 30 30 30 17 0 30-14 30-30 0-16-13-30-30-30"/>
<glyph glyph-name="align-center" unicode="&#105;" d="M455 117l-278 0c-11 0-20-9-20-20l0-40c0-11 9-20 20-20l278 0c11 0 20 9 20 20l0 40c0 11-9 20-20 20m0-60l-278 0 0 40 278 0 0-40z m0 298l-278 0c-11 0-20-9-20-19l0-40c0-11 9-20 20-20l278 0c11 0 20 9 20 20l0 40c0 10-9 19-20 19m0-59l-278 0 0 39 278 0 0-39z m0-60l-398 0c-11 0-20-9-20-20l0-39c0-11 9-20 20-20l398 0c11 0 20 9 20 20l0 39c0 11-9 20-20 20m0-59l-398 0 0 39 398 0z m0 298l-398 0c-11 0-20-9-20-20l0-40c0-11 9-20 20-20l398 0c11 0 20 9 20 20l0 40c0 11-9 20-20 20m0-60l-398 0 0 40 398 0z"/>
<glyph glyph-name="align-lfet" unicode="&#106;" d="M337 114l-284 0c-11 0-20-9-20-20l0-41c0-11 9-20 20-20l284 0c11 0 20 9 20 20l0 41c0 11-9 20-20 20m0-61l-284 0 0 41 284 0z m-284 223l284 0c11 0 20 9 20 21l0 40c0 11-9 20-20 20l-284 0c-11 0-20-9-20-20l0-40c0-12 9-21 20-21m0 61l284 0 0-40-284 0z m406-101l-406 0c-11 0-20-9-20-21l0-40c0-11 9-20 20-20l406 0c11 0 20 9 20 20l0 40c0 12-9 21-20 21m0-61l-406 0 0 40 406 0z m0 304l-406 0c-11 0-20-9-20-20l0-41c0-11 9-20 20-20l406 0c11 0 20 9 20 20l0 41c0 11-9 20-20 20m0-61l-406 0 0 41 406 0z"/>
<glyph glyph-name="align-middle" unicode="&#107;" d="M438 128l-359 0c-10 0-18-8-18-18l0-36c0-10 8-18 18-18l359 0c10 0 18 8 18 18l0 36c0 10-8 18-18 18m0-54l-359 0 0 36 359 0z m0 377l-359 0c-10 0-18-8-18-18l0-36c0-9 8-17 18-17l359 0c10 0 18 8 18 17l0 36c0 10-8 18-18 18m0-54l-359 0 0 36 359 0z m0-53l-359 0c-10 0-18-8-18-18l0-36c0-10 8-18 18-18l359 0c10 0 18 8 18 18l0 36c0 10-8 18-18 18m0-54l-359 0 0 36 359 0z m0-54l-359 0c-10 0-18-8-18-18l0-36c0-10 8-18 18-18l359 0c10 0 18 8 18 18l0 36c0 10-8 18-18 18m0-54l-359 0 0 36 359 0z"/>
<glyph glyph-name="align-right" unicode="&#108;" d="M384 128l-252 0c-9 0-17-8-17-18l0-36c0-10 8-18 17-18l252 0c10 0 18 8 18 18l0 36c0 10-8 18-18 18m0-54l-252 0 0 36 252 0z m0 198c10 0 18 8 18 18l0 36c0 10-8 18-18 18l-252 0c-9 0-17-8-17-18l0-36c0-10 8-18 17-18z m-252 54l252 0 0-36-252 0z m306-90l-359 0c-10 0-18-8-18-18l0-36c0-10 8-18 18-18l359 0c10 0 18 8 18 18l0 36c0 10-8 18-18 18m0-54l-359 0 0 36 359 0z m0 269l-359 0c-10 0-18-8-18-18l0-36c0-9 8-17 18-17l359 0c10 0 18 8 18 17l0 36c0 10-8 18-18 18m0-54l-359 0 0 36 359 0z"/>
<glyph glyph-name="alignments-1" unicode="&#109;" d="M393 164l-118 0c-4 15-18 27-35 27-16 0-30-12-34-27l-83 0c-4 0-8-4-8-9 0-5 4-9 8-9l83 0c4-15 18-27 34-27 17 0 31 12 35 27l118 0c5 0 9 4 9 9 0 5-4 9-9 9m-153-27c-10 0-18 8-18 18 0 10 8 18 18 18 10 0 18-8 18-18 0-10-8-18-18-18m153 126l-28 0c-4 15-18 27-35 27-17 0-31-12-35-27l-172 0c-4 0-8-4-8-9 0-5 4-9 8-9l172 0c4-16 18-27 35-27 17 0 31 11 35 27l28 0c5 0 9 4 9 9 0 5-4 9-9 9m-63-27c-10 0-18 8-18 18 0 10 8 18 18 18 10 0 18-8 18-18 0-10-8-18-18-18m63 126l-154 0c-4 15-18 27-35 27-16 0-30-12-34-27l-47 0c-4 0-8-4-8-9 0-5 4-9 8-9l47 0c4-16 18-27 34-27 17 0 31 11 35 27l154 0c5 0 9 4 9 9 0 5-4 9-9 9m-189-27c-10 0-18 8-18 18 0 10 8 18 18 18 10 0 18-8 18-18 0-10-8-18-18-18m216 116l-323 0c-20 0-36-16-36-36l0-323c0-20 16-36 36-36l323 0c20 0 36 16 36 36l0 323c0 20-16 36-36 36m18-359c0-10-8-18-18-18l-323 0c-10 0-18 8-18 18l0 323c0 10 8 18 18 18l323 0c10 0 18-8 18-18z"/>
<glyph glyph-name="ambrilla" unicode="&#110;" d="M258 326c-10 0-18-8-18-18 0-10 8-18 18-18 10 0 18 8 18 18 0 10-8 18-18 18m9 107l0 9c0 5-4 9-9 9-5 0-9-4-9-9l0-9c-105-5-188-87-188-188 0-5 4-9 9-9l179 0 0-126c0-20-16-36-36-36-20 0-36 16-36 36 0 5-4 9-9 9-5 0-9-4-9-9 0-30 25-54 54-54 27 0 49 20 53 45l1 0 0 135 180 0c5 0 9 4 9 9 0 101-84 183-189 188m-188-179c5 90 83 161 179 161 96 0 174-71 179-161z m53 54c-9 0-17-8-17-18 0-10 8-18 17-18 10 0 18 8 18 18 0 10-8 18-18 18m72 54c-10 0-18-8-18-18 0-10 8-18 18-18 10 0 18 8 18 18 0 10-8 18-18 18m162-54c-10 0-18-8-18-18 0-10 8-18 18-18 10 0 18 8 18 18 0 10-8 18-18 18m-54 72c-10 0-18-9-18-18 0-10 8-18 18-18 10 0 18 8 18 18 0 9-8 18-18 18"/>
<glyph glyph-name="analysis" unicode="&#111;" d="M509 20l-124 123c36 39 57 91 57 148 0 122-99 221-221 221-122 0-221-99-221-221 0-122 99-221 221-221 57 0 109 21 148 57l123-124c2-2 5-3 8-3 7 0 12 5 12 12 0 3-1 6-3 8m-288 73c-109 0-198 89-198 198 0 109 89 198 198 198 109 0 198-89 198-198 0-109-89-198-198-198m-99 178l-38 0c-4 0-7-3-7-7l0-60c0-3 3-6 7-6l38 0c3 0 6 3 6 6l0 60c0 4-3 7-6 7m153 40l-38 0c-4 0-7-3-7-7l0-100c0-3 3-6 7-6l38 0c3 0 6 3 6 6l0 100c0 4-3 7-6 7m-77 49l-38 0c-3 0-6-3-6-7l0-149c0-3 3-6 6-6l38 0c4 0 7 3 7 6l0 149c0 4-3 7-7 7m153 27l-38 0c-4 0-6-3-6-7l0-176c0-3 3-6 6-6l38 0c4 0 7 3 7 6l0 176c0 4-3 7-7 7"/>
<glyph glyph-name="analysis-2" unicode="&#112;" d="M1 297l80 0 0-280-80 0z m288 0l80 0 0-280-80 0z m143 63l80 0 0-343-80 0z m-287-153l80 0 0-190-80 0z m-104 170c7 0 13 5 13 12 0 7-6 13-13 13-7 0-12-6-12-13 0-7 5-12 12-12m0-28c22 0 40 18 40 40 0 22-18 40-40 40-22 0-40-18-40-40 0-22 18-40 40-40m0 64c13 0 23-11 23-24 0-13-10-23-23-23-13 0-23 10-23 23 0 13 10 24 23 24m144-121c-7 0-13-6-13-12 0-7 6-13 13-13 7 0 12 6 12 13 0 6-5 12-12 12m0 28c-22 0-40-18-40-40 0-23 18-40 40-40 22 0 40 17 40 40 0 22-18 40-40 40m0-64c-13 0-24 11-24 24 0 12 11 23 24 23 13 0 23-11 23-23 0-13-10-24-23-24m144 176c-7 0-13-6-13-13 0-7 6-12 13-12 6 0 12 5 12 12 0 7-6 13-12 13m0 27c-23 0-40-18-40-40 0-22 17-40 40-40 22 0 40 18 40 40 0 22-18 40-40 40m0-63c-13 0-24 10-24 23 0 13 11 23 24 23 12 0 23-10 23-23 0-13-11-23-23-23m-247-27c-3-7-8-13-15-17l74-58c3 7 7 14 13 19z m209 24l-80-76c6-4 11-10 15-17l82 78c-7 4-13 9-17 15m168 53l7-24 46 54-68 18 8-26-83-27c3-7 5-14 5-22 0 0 0 0 0-1z"/>
<glyph glyph-name="android" unicode="&#113;" d="M231 389c-5 0-9-5-9-9 0-5 4-9 9-9 5 0 9 4 9 9 0 4-4 9-9 9m54 0c-5 0-9-5-9-9 0-5 4-9 9-9 5 0 9 4 9 9 0 4-4 9-9 9m90-36c-3 0-6-1-9-2l0 2-1 0c-3 28-22 52-49 66l13 18-1 1c1 1 2 3 2 4 0 5-4 9-9 9-3 0-6-1-7-4l0 0-14-21c-13 5-27 7-42 7-14 0-28-2-41-7l-14 21 0 0c-2 3-5 4-8 4-5 0-9-4-9-9 0-1 1-3 2-4l0-1 12-18c-27-14-46-38-49-66l-1 0 0-2c-2 1-5 2-9 2-14 0-26-12-26-27l0-126c0-15 12-27 26-27 4 0 7 1 9 2l0-29c0-10 8-18 18-18l18 0 0-45c0-15 12-27 27-27 15 0 27 12 27 27l0 45 36 0 0-45c0-15 12-27 27-27 15 0 27 12 27 27l0 45 18 0c10 0 18 8 18 18l0 29c3-1 6-2 9-2 15 0 27 12 27 27l0 126c0 15-12 27-27 27m-225-153c0-5-4-9-9-9-5 0-9 4-9 9l0 126c0 5 4 9 9 9 5 0 9-4 9-9z m108 215c46 0 84-27 89-62l-178 0c6 35 43 62 89 62m-36-332c0-5-4-9-9-9-5 0-9 4-9 9l0 45 18 0z m90 0c0-5-4-9-9-9-5 0-9 4-9 9l0 45 18 0z m36 63l-180 0 0 189 180 0z m36 54c0-5-4-9-9-9-5 0-9 4-9 9l0 126c0 5 4 9 9 9 5 0 9-4 9-9z"/>
<glyph glyph-name="angle-down" unicode="&#114;" d="M429 344c-3 0-5-1-6-3l-165-156-164 156c-2 2-4 3-6 3-5 0-9-4-9-9 0-3 1-5 2-7l171-161c1-2 4-3 6-3 3 0 5 1 7 3l170 161c2 2 3 4 3 7 0 5-4 9-9 9"/>
<glyph glyph-name="angle-left" unicode="&#115;" d="M190 254l155 164c2 2 3 4 3 6 0 5-4 9-9 9-2 0-5-1-6-2l-162-171c-2-2-3-4-3-6 0-3 1-5 3-7l162-170c1-2 4-3 6-3 5 0 9 4 9 9 0 3-1 5-3 6z"/>
<glyph glyph-name="angle-right" unicode="&#116;" d="M345 260l-161 171c-2 1-4 2-7 2-5 0-9-4-9-9 0-2 1-4 3-6l156-164-156-165c-2-1-3-3-3-6 0-5 4-9 9-9 3 0 5 1 7 3l161 170c2 2 3 4 3 7 0 2-1 4-3 6"/>
<glyph glyph-name="angle-up" unicode="&#117;" d="M435 179l-170 162c-2 2-4 3-7 3-2 0-4-1-6-3l-171-162c-1-1-2-4-2-6 0-5 4-9 9-9 2 0 4 1 6 3l164 155 165-155c1-2 3-3 6-3 5 0 9 4 9 9 0 2-1 5-3 6"/>
<glyph glyph-name="application-management" unicode="&#118;" d="M229 198l-24 0c0-2-1-4-2-6 1-4 1-9 0-13l26 0c6 0 10 4 10 9 0 6-4 10-10 10m39 116l-29 0c0-6 0-12-1-18-1 0-1-1-1-2l31 0c5 0 10 5 10 10 0 5-5 10-10 10m0-78l-53 0c-1-3-1-6-2-9 0-4-2-7-3-10l58 0c5 0 10 4 10 10 0 5-5 9-10 9m58-19l77 0c5 0 10 4 10 10 0 5-5 9-10 9l-77 0c-6 0-10-4-10-9 0-6 4-10 10-10m0 77l77 0c5 0 10 5 10 10 0 5-5 10-10 10l-77 0c-6 0-10-5-10-10 0-5 4-10 10-10m0-115l116 0c5 0 9 4 9 9 0 6-4 10-9 10l-116 0c-6 0-10-4-10-10 0-5 4-9 10-9m0 77l116 0c5 0 9 4 9 9 0 6-4 10-9 10l-116 0c-6 0-10-4-10-10 0-5 4-9 10-9m164 193l-308 0c-1-7-2-14-5-20l313 0 0-347-97 0 0 39 20 0c5 0 9 4 9 9 0 6-4 10-9 10l-58 0c-6 0-10-4-10-10 0-5 4-9 10-9l19 0 0-39-120 0c-22 0-45 0-67 0-1 0-3 0-5 0l-64 0c0 0-3 0-3 0 0 0 0 0 0 0 0-7-1-14-3-19l378 0c10 0 19 9 19 19l0 347c0 11-9 20-19 20m-235-292c0 0-39 9-39 49 0 36 16 48 22 57 0 0 13 11 4 46 15 19 17 54 2 90-10 23-19 35-32 42-9 6-20 8-31 8-19 0-38-7-46-12-22-10-36-18-50-52-11-28 2-59 9-75-8-35 4-47 4-47 6-9 22-21 22-57 0-40-39-49-39-49-25-9-77-27-77-85 0 0 0-9 10-9l308 0c10 0 10 9 10 9 0 58-52 76-77 85m-231-75c5 33 34 47 62 57 19 4 53 24 53 67 0 37-15 55-23 65-1 1-2 2-3 3 0 0 0 0-1 1 0 1-4 10 1 31 1 4 1 8-1 12-5 11-18 39-9 59 11 29 22 34 40 42 1 1 2 1 3 2 4 3 20 8 35 8 9 0 16-1 22-4 7-4 14-11 23-34 13-31 10-58 1-71-4-4-5-10-3-16 4-19 1-27 0-28 0-1-1-1-1-2-1-1-2-2-3-3-8-10-23-28-23-65 0-43 33-63 52-67 28-10 58-24 63-57l-288 0z"/>
<glyph glyph-name="appraisal" unicode="&#119;" d="M197 256l69 0c7 0 12 5 12 12 0 6-5 11-12 11l-69 0c-7 0-12-5-12-11 0-7 5-12 12-12m0-70l185 0c7 0 12 6 12 12 0 6-5 12-12 12l-185 0c-7 0-12-6-12-12 0-6 5-12 12-12m0-69l139 0c6 0 11 5 11 12 0 6-5 11-11 11l-139 0c-7 0-12-5-12-11 0-7 5-12 12-12m243 324l-93 0 0 24c0 12-10 23-23 23l-46 0c0 13-11 23-23 23-13 0-24-10-24-23l-46 0c-13 0-23-11-23-23l0-24-93 0c-13 0-23-10-23-23l0-394c0-13 10-23 23-23l371 0c13 0 23 10 23 23l0 394c0 13-10 23-23 23m-255 24l139 0 0-47-139 0z m255-441l-371 0 0 325 371 0z m0 348l-371 0 0 46 93 0c0-13 10-23 23-23l139 0c13 0 23 10 23 23l93 0 0-46z m-275-77c-3 3-8 3-12 0l-29-30-12 12c-3 3-8 3-12 0-3-3-3-9 0-12l17-16c0-1 0-1 1-2 1-2 4-2 6-2 2 0 4 0 6 2 1 1 1 1 1 2l34 34c4 3 4 8 0 12m0-70c-3 3-8 3-12 0l-29-29-12 11c-3 4-8 4-12 0-3-3-3-8 0-12l17-16c0 0 0-1 1-1 1-2 4-3 6-3 2 0 4 1 6 3 1 0 1 1 1 1l34 34c4 4 4 9 0 12m0-69c-3 3-8 3-12 0l-29-30-12 12c-3 3-8 3-12 0-3-4-3-9 0-12l17-16c0-1 0-2 1-2 1-2 4-2 6-2 2 0 4 0 6 2 1 0 1 1 1 2l34 34c4 3 4 8 0 12"/>
<glyph glyph-name="approve" unicode="&#120;" d="M180 228c-49 0-90 40-90 90 0 49 41 90 90 90 50 0 91-41 91-90 0-50-41-90-91-90m0 135c-24 0-45-20-45-45 0-25 21-45 45-45 25 0 46 20 46 45 0 25-21 45-46 45m181-316l-361 0 0 23c0 79 74 135 181 135 106 0 180-56 180-135l0-23z m-312 45l263 0c-13 41-64 68-132 68-67 0-118-27-131-68m334 216l-83 84 32 32 51-52 97 97 32-32z"/>
<glyph glyph-name="arrow" unicode="&#121;" d="M447 182l-45 0c-4 47-37 269-332 269-5 0-9-4-9-9 0-5 4-9 9-9 92 0 158-44 195-133 22-52 27-99 28-118l-44 0c-5 0-9-4-9-9 0-3 1-5 3-6l99-108c1-2 4-3 6-3 3 0 5 1 6 3l99 108c2 1 3 3 3 6 0 5-4 9-9 9m-99-104l-78 86 33 0c5 0 9 4 9 9l0 9c-2 37-16 167-115 234 164-53 184-195 187-234l0-9c0-5 4-9 9-9l33 0z"/>
<glyph glyph-name="arrow-1" unicode="&#122;" d="M453 341l-99 108c-1 1-3 2-6 2-2 0-5-1-6-2l-99-108c-2-2-3-4-3-6 0-5 4-9 9-9l44 0c-1-19-6-67-28-119-37-88-103-133-195-133-5 0-9-4-9-9 0-5 4-9 9-9 295 0 328 222 332 270l45 0c5 0 9 4 9 9 0 2-1 4-3 6m-60 3c-5 0-9-4-9-9l0-9c-3-39-23-182-187-234 99 66 113 197 115 234l0 9c0 5-4 9-9 9l-33 0 78 85 78-85z"/>
<glyph glyph-name="arrow-2" unicode="&#65;" d="M186 398l0 44c0 5-4 9-9 9-2 0-4-1-6-2l-108-99c-1-2-2-4-2-6 0-3 1-5 2-7l108-99c2-1 4-2 6-2 5 0 9 4 9 9l0 44c19-1 67-6 119-28 88-37 133-103 133-196 0-5 4-9 9-9 5 0 9 4 9 9 0 295-222 329-270 333m0-90l-9 0c-5 0-9-4-9-9l0-34-85 79 85 78 0-33c0-5 4-9 9-9l9 0c39-3 182-24 234-188-66 99-197 114-234 116"/>
<glyph glyph-name="arrow-3" unicode="&#66;" d="M453 350l-108 99c-1 1-3 2-6 2-5 0-9-4-9-9l0-44c-47-4-269-38-269-333 0-5 4-9 9-9 5 0 9 4 9 9 0 93 44 159 133 196 52 22 99 27 118 28l0-44c0-5 4-9 9-9 3 0 5 1 6 2l108 99c2 2 3 4 3 7 0 2-1 4-3 6m-105-85l0 34c0 5-4 9-9 9l-9 0c-37-2-167-17-234-116 53 164 195 185 234 188l9 0c5 0 9 4 9 9l0 33 86-78z"/>
<glyph glyph-name="arrow-4" unicode="&#67;" d="M353 362c-58 0-104-47-104-104l0-9c0-47-38-85-85-85-47 0-85 38-85 85l0 9c0 47 38 86 85 86 19 0 35-7 49-18l-36 0c-5 0-9-4-9-9 0-5 4-9 9-9l54 0c5 0 9 4 9 9l0 54c0 5-4 9-9 9-5 0-9-4-9-9l0-30c-17 13-39 21-58 21-57 0-103-47-103-104l0-9c0-57 46-103 103-103 57 0 103 46 103 103l0 9c0 47 38 86 86 86 47 0 85-39 85-86l0-9c0-47-38-85-85-85-19 0-36 6-49 18l35 0c5 0 9 4 9 9 0 5-4 9-9 9l-54 0c-5 0-9-4-9-9l0-54c0-5 4-9 9-9 5 0 9 4 9 9l0 30c18-14 39-21 59-21 57 0 103 46 103 103l0 9c0 57-46 104-103 104"/>
<glyph glyph-name="arrow-all" unicode="&#68;" d="M453 260l-54 54c-1 2-4 3-6 3-5 0-9-4-9-9 0-3 1-5 3-7l38-38-217 0 122 122 0-50c0-5 4-9 9-9 5 0 9 4 9 9l0 71c0 5-4 9-9 9l-72 0c-5 0-9-4-9-9 0-4 4-9 9-9l50 0-134-134-52 0c-4 15-18 27-34 27-20 0-36-16-36-36 0-20 16-36 36-36 16 0 30 11 34 27l52 0 134-135-50 0c-5 0-9-4-9-9 0-5 4-9 9-9l72 0c5 0 9 4 9 9l0 72c0 5-4 9-9 9-5 0-9-4-9-9l0-50-122 122 217 0-38-39c-2-1-3-4-3-6 0-5 4-9 9-9 2 0 5 1 6 3l54 53c2 2 3 4 3 7 0 2-1 4-3 6m-356-24c-10 0-18 8-18 18 0 10 8 18 18 18 9 0 18-8 18-18 0-10-9-18-18-18"/>
<glyph glyph-name="arrow-combine" unicode="&#69;" d="M70 344l103 0 56-69 12 14-57 69 0 0c-1 2-4 4-7 4l-107 0c-5 0-9-4-9-9 0-5 4-9 9-9m347-147c-1 2-4 3-6 3-5 0-9-4-9-9 0-3 1-5 3-6l20-21-82 0-56 68-11-14 56-69 0 0c2-2 4-3 7-3l86 0-20-21c-2-1-3-3-3-6 0-5 4-9 9-9 2 0 5 1 6 3l36 36c2 1 3 3 3 6 0 2-1 5-3 6z m8 147l-20-21c-2-2-3-4-3-6 0-5 4-9 9-9 2 0 5 1 6 2l36 36c2 2 3 4 3 7 0 2-1 4-3 6l-36 36c-1 1-4 2-6 2-5 0-9-4-9-8 0-3 1-5 3-7l20-20-86 0c-3 0-5-2-7-4l0 0-159-194-103 0c-5 0-9-4-9-9 0-5 4-9 9-9l107 0c3 0 6 1 7 3l0 0 159 195z"/>
<glyph glyph-name="arrow-direction-diagnal" unicode="&#70;" d="M231 236c-2 0-4-1-6-3l-146-146 0 104c0 5-4 9-9 9-5 0-9-4-9-9l0-126c0-5 4-9 9-9l125 0c5 0 9 4 9 9 0 5-4 9-9 9l-104 0 147 146c1 2 2 4 2 7 0 5-4 9-9 9m216 215l-126 0c-5 0-9-4-9-9 0-5 4-9 9-9l104 0-146-146c-2-2-3-4-3-6 0-5 4-9 9-9 3 0 5 1 7 2l146 147 0-104c0-5 4-9 9-9 5 0 9 4 9 9l0 125c0 5-4 9-9 9"/>
<glyph glyph-name="arrow-direction-inner" unicode="&#71;" d="M231 236l-125 0c-5 0-9-4-9-9 0-5 4-9 9-9l104 0-147-147c-1-1-2-3-2-6 0-5 4-9 9-9 2 0 4 1 6 3l146 146 0-104c0-5 4-9 9-9 5 0 9 4 9 9l0 126c0 5-4 9-9 9m225 206c0 5-4 9-9 9-3 0-5-1-6-2l-147-147 0 104c0 5-4 9-9 9-5 0-9-4-9-9l0-125c0-5 4-9 9-9l126 0c5 0 9 4 9 9 0 5-4 9-9 9l-104 0 146 146c2 2 3 4 3 6"/>
<glyph glyph-name="arrow-direction-left" unicode="&#72;" d="M453 305l-90 90c-1 1-3 2-6 2-5 0-9-4-9-8l0-81-278 0c-5 0-9-4-9-9l0-180c0-5 4-9 9-9 5 0 9 4 9 9l0 171 269 0 0-81c0-5 4-9 9-9 3 0 5 1 6 3l90 89c2 2 3 4 3 7 0 2-1 4-3 6m-87-74l0 136 68-68z"/>
<glyph glyph-name="arrow-direction-up" unicode="&#73;" d="M153 395l-90-90c-1-2-2-4-2-6 0-5 4-9 9-9 2 0 4 1 6 2l74 75 0-248c0-5 4-9 9-9l288 0c5 0 9 4 9 9 0 5-4 9-9 9l-279 0 0 239 75-75c2-1 4-2 6-2 5 0 9 4 9 9 0 2-1 4-2 6l-90 90c-2 2-4 2-7 2-2 0-4-1-6-2"/>
<glyph glyph-name="arrow-down" unicode="&#74;" d="M348 164c-2 0-5-1-6-3l-75-74 0 355c0 5-4 9-9 9-5 0-9-4-9-9l0-355-74 74c-2 2-4 3-7 3-5 0-9-4-9-9 0-3 1-5 3-6l90-90c2-2 4-3 6-3 3 0 5 1 7 3l89 90c2 1 3 3 3 6 0 5-4 9-9 9"/>
<glyph glyph-name="arrow-down-1" unicode="&#75;" d="M384 200l-81 0 0 215c0 20-16 36-36 36l-18 0c-20 0-36-16-36-36l0-215-81 0c-4 0-9-4-9-9 0-3 1-5 3-6l126-126c1-2 4-3 6-3 3 0 5 1 7 3l125 126c2 1 3 3 3 6 0 5-4 9-9 9m-126-122l-104 104 77 0 0 233c0 10 8 18 18 18l18 0c10 0 18-8 18-18l0-233 77 0z"/>
<glyph glyph-name="arrow-down-c" unicode="&#76;" d="M357 290c-2 0-5-1-6-3l-93-84-92 84c-2 2-4 3-7 3-5 0-9-4-9-9 0-3 1-5 3-7l99-89c2-2 4-3 6-3 3 0 5 1 7 3l98 89c2 2 3 4 3 7 0 5-4 9-9 9m-99 161c-109 0-197-88-197-197 0-109 88-198 197-198 109 0 198 89 198 198 0 109-89 197-198 197m0-377c-99 0-179 81-179 180 0 99 80 179 179 179 99 0 180-80 180-179 0-99-81-180-180-180"/>
<glyph glyph-name="arrow-left" unicode="&#77;" d="M453 260l-90 90c-1 2-3 3-6 3-5 0-9-4-9-9 0-3 1-5 3-7l74-74-355 0c-5 0-9-4-9-9 0-5 4-9 9-9l355 0-74-75c-2-1-3-4-3-6 0-5 4-9 9-9 3 0 5 1 6 3l90 89c2 2 3 4 3 7 0 2-1 4-3 6"/>
<glyph glyph-name="arrow-left-1" unicode="&#78;" d="M453 260l-126 126c-1 2-3 3-6 3-5 0-9-4-9-9l0-81-215 0c-20 0-36-16-36-36l0-18c0-20 16-36 36-36l215 0 0-81c0-5 4-9 9-9 3 0 5 1 6 3l126 125c2 2 3 4 3 7 0 2-1 5-3 6m-123-110l0 77-233 0c-10 0-18 8-18 18l0 18c0 10 8 18 18 18l233 0 0 77 104-104z"/>
<glyph glyph-name="arrow-left-c" unicode="&#79;" d="M238 359c-2 2-4 3-7 3-5 0-9-4-9-9 0-3 1-5 3-7l84-92-84-93c-2-1-3-4-3-6 0-5 4-9 9-9 3 0 5 1 7 3l89 98c2 2 3 4 3 7 0 2-1 4-3 6z m20 92c-109 0-197-88-197-197 0-109 88-198 197-198 109 0 198 89 198 198 0 109-89 197-198 197m0-377c-99 0-179 81-179 180 0 99 80 179 179 179 99 0 180-80 180-179 0-99-81-180-180-180"/>
<glyph glyph-name="arrow-right" unicode="&#80;" d="M447 263l-356 0 75 74c1 2 2 4 2 7 0 5-4 9-9 9-2 0-4-1-6-3l-90-90c-1-2-2-4-2-6 0-3 1-5 2-7l90-89c2-2 4-3 6-3 5 0 9 4 9 9 0 2-1 5-2 6l-75 75 356 0c5 0 9 4 9 9 0 5-4 9-9 9"/>
<glyph glyph-name="arrow-right-1" unicode="&#81;" d="M420 299l-216 0 0 81c0 5-4 9-9 9-2 0-4-1-6-3l-126-126c-1-2-2-4-2-6 0-3 1-5 2-7l126-125c2-2 4-3 6-3 5 0 9 4 9 9l0 81 216 0c20 0 36 16 36 36l0 18c0 20-16 36-36 36m18-54c0-10-8-18-18-18l-234 0 0-77-104 104 104 104 0-77 234 0c10 0 18-8 18-18z"/>
<glyph glyph-name="arrow-right-c" unicode="&#82;" d="M294 353c0 5-4 9-9 9-2 0-5-1-6-3l-90-99c-2-2-3-4-3-6 0-3 1-5 3-7l90-98c1-2 4-3 6-3 5 0 9 4 9 9 0 2-1 5-2 6l-85 93 85 92c1 2 2 4 2 7m-36 98c-109 0-197-88-197-197 0-109 88-198 197-198 109 0 198 89 198 198 0 109-89 197-198 197m0-377c-99 0-179 81-179 180 0 99 80 179 179 179 99 0 180-80 180-179 0-99-81-180-180-180"/>
<glyph glyph-name="arrow-up" unicode="&#83;" d="M354 359l-89 90c-2 1-4 2-7 2-2 0-4-1-6-2l-90-90c-2-2-3-4-3-6 0-5 4-9 9-9 3 0 5 1 7 2l74 75 0-356c0-5 4-9 9-9 5 0 9 4 9 9l0 356 75-75c1-1 4-2 6-2 5 0 9 4 9 9 0 2-1 4-3 6"/>
<glyph glyph-name="arrow-up-1" unicode="&#84;" d="M390 323l-125 126c-2 1-4 2-7 2-2 0-4-1-6-2l-126-126c-2-2-3-4-3-6 0-5 5-9 9-9l81 0 0-216c0-20 16-36 36-36l18 0c20 0 36 16 36 36l0 216 81 0c5 0 9 4 9 9 0 2-1 4-3 6m-105 3l0-234c0-10-8-18-18-18l-18 0c-10 0-18 8-18 18l0 234-77 0 104 104 104-104z"/>
<glyph glyph-name="arrow-up-c" unicode="&#85;" d="M258 451c-109 0-197-88-197-197 0-109 88-198 197-198 109 0 198 89 198 198 0 109-89 197-198 197m0-377c-99 0-179 81-179 180 0 99 80 179 179 179 99 0 180-80 180-179 0-99-81-180-180-180m7 249c-2 2-4 3-7 3-2 0-4-1-6-3l-99-90c-2-1-3-4-3-6 0-5 4-9 9-9 3 0 5 1 7 2l92 85 93-85c1-1 4-2 6-2 5 0 9 4 9 9 0 2-1 5-3 6z"/>
<glyph glyph-name="at" unicode="&#86;" d="M431 157c-9-12-19-23-31-33-11-10-24-19-38-27-14-7-28-13-44-18-16-4-32-6-49-6-26 0-50 4-73 12-23 7-43 19-61 34-17 15-31 35-41 57-10 23-15 49-15 79 0 25 4 48 14 70 10 21 23 41 40 57 17 16 37 29 60 38 24 9 49 14 76 14 24 0 47-4 67-11 21-7 39-17 54-30 15-13 27-29 35-47 9-18 13-38 13-60 0-19-4-37-11-53-7-17-16-32-26-44-10-12-22-21-35-28-12-7-24-10-35-10-6 0-11 1-15 3-3 3-5 6-5 11-1 4 0 10 1 16 2 7 5 15 8 22l65 160-19 0-12-31c-6 12-15 21-28 28-15 9-32 13-50 13-21 0-40-5-57-15-17-10-31-23-43-39-12-16-22-33-28-51-7-19-10-37-10-54 0-11 2-22 6-31 4-10 10-19 17-26 7-7 16-13 26-18 21-9 47-8 73 1 12 4 23 11 33 22 0-7 3-14 8-19 8-7 17-10 29-10 14 0 29 4 44 12 15 8 28 19 41 33 12 14 22 30 29 49 8 18 12 38 12 59 0 25-5 49-15 69-10 20-23 38-40 52-17 14-37 25-60 33-22 8-46 11-72 11-28 0-55-5-81-14-25-10-47-24-66-41-19-18-34-39-45-62-11-24-16-51-16-79 0-34 6-64 18-89 12-26 28-46 47-63 20-16 42-28 67-35 25-8 50-12 76-12 18 0 35 2 53 7 17 5 34 11 49 19 16 9 31 19 44 31 14 12 25 25 34 40l3 5-20 0z m-144 25c-7-8-14-15-21-19-7-5-15-8-22-10-18-4-35-3-49 2-8 4-15 8-20 14-6 6-11 12-14 20-3 8-5 16-5 25 0 15 3 31 9 47 6 16 14 32 24 46 10 14 23 25 37 35 15 9 30 13 48 13 6 0 14 0 21-2 8-1 15-4 21-8 7-3 13-8 18-14 5-5 8-12 11-20l-40-98c-5-13-11-23-18-31"/>
<glyph glyph-name="attach" unicode="&#87;" d="M181 200c14-14 37-14 51 0l95 95c4 4 4 10 0 13-4 4-9 4-13 0l-95-95c-7-7-18-7-25 0-7 7-7 18 0 25l152 153-13 12-152-152c-14-14-14-37 0-51m-76-73c-35 35-35 89 0 124 0 0 0 0 0 0l133 133c4 4 4 10 0 13-3 4-9 4-13 0l-133-133c-42-42-42-107 0-149 42-42 110-42 152 0l-12 12c-36-35-92-35-127 0m330 276c-28 28-74 28-102 0l13-12c21 21 55 21 76 0 21-21 21-55 0-76l-190-188 12-12 191 187c28 28 28 73 0 101m-191-139c0 0 0 0 0 0l0 0z"/>
<glyph glyph-name="b-c" unicode="&#88;" d="M258 451c-109 0-197-88-197-197 0-109 88-198 197-198 109 0 198 89 198 198 0 109-89 197-198 197m0-377c-99 0-179 81-179 180 0 99 80 179 179 179 99 0 180-80 180-179 0-99-81-180-180-180m34 228l6 23-15 3-5-22c-4 1-8 2-12 3l6 22-15 4-6-23c-3 0-6 1-9 2l0 0-20 5-3-15c0 0 10-3 10-3 6-1 7-5 7-8l-7-26c0 0 1 0 1-1 0 0-1 1-1 1l-9-37c-1-2-3-4-7-3 0-1-11 2-11 2l-7-16 19-4c4-1 7-2 10-3l-6-23 15-4 6 23c4-1 7-2 11-3l-6-23 15-3 6 23c24-4 43-3 51 19 6 17-1 28-14 34 10 2 17 8 19 21 2 17-11 26-29 32m-4-77c-5-18-35-8-45-6l8 31c10-2 41-7 37-25m4 45c-4-16-29-8-37-6l7 28c8-2 34-6 30-22"/>
<glyph glyph-name="b-currency" unicode="&#89;" d="M438 362l-359 0c-10 0-18-8-18-18l0-180c0-10 8-18 18-18l359 0c10 0 18 8 18 18l0 180c0 10-8 18-18 18m-350-18c5 0 9-4 9-9 0-5-4-9-9-9-5 0-9 4-9 9 0 5 4 9 9 9m0-180c-5 0-9 4-9 9 0 5 4 9 9 9 5 0 9-4 9-9 0-5-4-9-9-9m341 0c-5 0-9 4-9 9 0 5 4 9 9 9 5 0 9-4 9-9 0-5-4-9-9-9m9 34c-3 1-6 2-9 2-15 0-27-12-27-27 0-3 1-6 2-9l-291 0c1 3 2 6 2 9 0 15-13 27-27 27-4 0-7-1-9-2l0 111c2-1 5-1 9-1 14 0 27 12 27 27 0 3-1 6-2 9l291 0c-1-3-2-6-2-9 0-15 12-27 27-27 3 0 6 0 9 1l0-111z m-9 128c-5 0-9 4-9 9 0 5 4 9 9 9 5 0 9-4 9-9 0-5-4-9-9-9m-270 0l-18 0c-5 0-9-4-9-9 0-5 4-9 9-9l18 0c5 0 9 4 9 9 0 5-4 9-9 9m216-126l-18 0c-5 0-9-4-9-9 0-5 4-9 9-9l18 0c5 0 9 4 9 9 0 5-4 9-9 9m-117 126c-39 0-72-33-72-72 0-40 33-72 72-72 40 0 72 32 72 72 0 39-32 72-72 72m37-62c-1-8-5-12-11-13 8-5 12-11 8-23-5-14-17-16-33-13l-3-15-10 2 4 16c-2 0-5 1-7 1l-4-15-9 2 3 16c-2 0-4 1-6 2l-12 3 4 10c0 0 7-1 7-1 3-1 4 1 4 2l6 24c1 0 1 0 1 0 0 0 0 0-1 0l5 18c0 2-1 4-5 5 1 0-6 2-6 2l2 10 13-3 0 0c2-1 4-1 6-2l4 16 9-3-4-15c3 0 5-1 8-1l3 14 10-2-4-15c12-4 20-10 18-22m-37 15l-5-18c5-2 21-7 24 4 3 11-14 13-19 14m-7-28l-5-20c6-2 25-8 28 3 3 13-17 16-23 17"/>
<glyph glyph-name="b-currency-1" unicode="&#90;" d="M141 380l234 0c5 0 9 4 9 9 0 4-4 8-9 8l-234 0c-5 0-9-4-9-8 0-5 4-9 9-9m-35-36l305 0c5 0 9 4 9 9 0 5-4 9-9 9l-305 0c-5 0-9-4-9-9 0-5 4-9 9-9m152-101l-5-18c5-2 21-7 24 4 3 11-14 13-19 14m180 83l-359 0c-10 0-18-8-18-18l0-180c0-10 8-18 18-18l359 0c10 0 18 8 18 18l0 180c0 10-8 18-18 18m-350-18c5 0 9-4 9-9 0-5-4-9-9-9-5 0-9 4-9 9 0 5 4 9 9 9m0-180c-5 0-9 4-9 9 0 5 4 9 9 9 5 0 9-4 9-9 0-5-4-9-9-9m341 0c-5 0-9 4-9 9 0 5 4 9 9 9 5 0 9-4 9-9 0-5-4-9-9-9m9 34c-3 1-6 2-9 2-15 0-27-12-27-27 0-3 1-6 2-9l-291 0c1 3 2 6 2 9 0 15-13 27-27 27-4 0-7-1-9-2l0 111c2-1 5-1 9-1 14 0 27 12 27 27 0 3-1 6-2 9l291 0c-1-3-2-6-2-9 0-15 12-27 27-27 3 0 6 0 9 1z m-9 128c-5 0-9 4-9 9 0 5 4 9 9 9 5 0 9-4 9-9 0-5-4-9-9-9m-54-126l-18 0c-5 0-9-4-9-9 0-5 4-9 9-9l18 0c5 0 9 4 9 9 0 5-4 9-9 9m-216 126l-18 0c-5 0-9-4-9-9 0-5 4-9 9-9l18 0c5 0 9 4 9 9 0 5-4 9-9 9m99 0c-39 0-72-32-72-72 0-40 33-72 72-72 40 0 72 32 72 72 0 40-32 72-72 72m37-62c-1-8-5-12-11-13 8-5 12-11 8-23-5-14-17-16-33-13l-3-15-10 2 4 16c-2 0-5 1-7 2l-4-16-9 2 3 16c-2 1-4 1-6 2l-12 3 4 10c0 0 7-1 7-1 3-1 4 1 4 2l6 24c1 0 1 0 1 0 0 0 0 0-1 1l5 17c0 2-1 4-5 5 1 1-6 2-6 2l2 10 13-3 0 0c2-1 4-1 6-2l4 16 9-3-4-15c3 0 5-1 8-1l3 15 10-3-4-15c12-4 20-10 18-22m-44-13l-5-20c6-2 25-8 28 3 3 13-17 16-23 17"/>
<glyph glyph-name="b-currency-2" unicode="&#48;" d="M141 290c-5 0-9-4-9-9 0-5 4-9 9-9 5 0 9 4 9 9 0 5-4 9-9 9m76-65l-4-17c5-2 20-7 22 3 3 10-13 12-18 14m149 101l-287 0c-10 0-18-8-18-18l0-162c0-10 8-18 18-18l287 0c10 0 18 8 18 18l0 162c0 10-8 18-18 18m-278-18c5 0 9-4 9-9 0-5-4-9-9-9-5 0-9 4-9 9 0 5 4 9 9 9m0-162c-5 0-9 4-9 9 0 5 4 9 9 9 5 0 9-4 9-9 0-5-4-9-9-9m269 0c-5 0-9 4-9 9 0 5 4 9 9 9 5 0 9-4 9-9 0-5-4-9-9-9m9 34c-3 1-6 2-9 2-15 0-27-12-27-27 0-3 1-6 2-9l-219 0c1 3 2 6 2 9 0 15-13 27-27 27-4 0-7-1-9-2l0 93c2-1 5-1 9-1 14 0 27 12 27 27 0 3-1 6-2 9l219 0c-1-3-2-6-2-9 0-15 12-27 27-27 3 0 6 0 9 1l0-93z m-9 110c-5 0-9 4-9 9 0 5 4 9 9 9 5 0 9-4 9-9 0-5-4-9-9-9m81 90l-288 0c-9 0-18-9-18-18l0-9c0-5 4-9 9-9 5 0 9 4 9 9l0 9 288 0 0-162-27 0c-5 0-9-4-9-9 0-5 4-9 9-9l27 0c10 0 18 8 18 18l0 162c0 9-8 18-18 18m-216-132l-3-15c4-2 16-6 18 3 3 9-11 11-15 12m81-66c-5 0-9-4-9-9 0-5 4-9 9-9 5 0 9 4 9 9 0 5-4 9-9 9m-81 108c-34 0-63-28-63-63 0-35 29-63 63-63 35 0 63 28 63 63 0 35-28 63-63 63m30-54c-1-7-5-11-10-12 7-3 10-9 7-19-4-12-13-13-25-10l-3-13-8 2 3 13c-1 0-3 1-5 1l-3-13-8 2 3 13c-1 1-3 1-5 2l-9 2 3 9c0 0 6-1 6-1 2-1 3 1 3 2l5 20c0 0 0 0 1 0-1 0-1 0-1 0l3 15c0 1 0 3-3 4 0 0-5 2-5 2l1 8 10-3 0 0c2 0 3-1 5-1l3 13 7-2-3-13c2 0 4-1 6-1l3 12 7-2-3-12c9-4 16-9 15-18"/>
<glyph glyph-name="bag" unicode="&#49;" d="M402 308l-23 0c-15 83-63 143-121 143-57 0-106-60-121-143l-22 0c-30 0-54-24-54-54 0-10 2-17 2-17l55-160c0 0 6-21 32-21l216 0c27 0 34 26 34 26l53 155c2 5 3 11 3 17 0 30-24 54-54 54m-144 125c48 0 89-53 103-125l-205 0c13 72 54 125 102 125m125-345c0 0-3-14-17-14l-216 0c-13 0-17 14-17 14l-32 95c43-23 100-37 162-37 57 0 109 12 151 31z m52 152l-13-39c-41-23-97-37-159-37-68 0-129 17-171 44l-11 32c0 0-2 7-2 14 0 20 16 36 35 36l288 0c20 0 36-16 36-36 0-7-3-14-3-14m-177 14c-15 0-27-12-27-27 0-15 12-27 27-27 15 0 27 12 27 27 0 15-12 27-27 27m0-36c-5 0-9 4-9 9 0 5 4 9 9 9 5 0 9-4 9-9 0-5-4-9-9-9"/>
<glyph glyph-name="bag-1" unicode="&#50;" d="M438 66l0 0-36 270 0 0c-1 4-4 8-9 8l-63 0 0 36c0 39-32 71-72 71-39 0-72-32-72-71l0-36-63 0c-4 0-8-4-8-8l0 0-36-270 0 0c0 0 0 0 0-1 0-5 4-9 9-9l341 0c5 0 9 4 9 9 0 1 0 1 0 1m-234 314c0 29 24 53 54 53 30 0 54-24 54-53l0-36-108 0z m-73-54l55 0 0-39c-5-3-9-9-9-15 0-10 8-18 18-18 10 0 18 8 18 18 0 6-3 12-9 15l0 39 108 0 0-39c-5-3-9-9-9-15 0-10 8-18 18-18 10 0 18 8 18 18 0 6-4 12-9 15l0 39 55 0 29-216-311 0z m-33-252l2 18 316 0 3-18z"/>
<glyph glyph-name="bags" unicode="&#51;" d="M384 66l-18 234 0 0c-1 4-4 8-9 8l-63 0 0 18c0 39-32 71-72 71-39 0-72-32-72-71l0-18-62 0c-5 0-9-4-9-8l0 0-18-234 0 0c0 0 0 0 0-1 0-5 4-9 9-9l305 0c5 0 9 4 9 9 0 1 0 1 0 1z m-216 260c0 29 25 54 54 54 30 0 54-25 54-54l0-18-108 0z m-72-36l54 0 0-39c-5-3-9-9-9-15 0-10 8-18 18-18 10 0 18 8 18 18 0 6-3 12-9 15l0 39 108 0 0-39c-5-3-9-9-9-15 0-10 8-18 18-18 10 0 18 8 18 18 0 6-3 12-9 15l0 39 55 0 14-180-281 0z m-17-216l2 18 283 0 1-18z m377 46l0 0-18 234 0 0c-1 4-5 8-9 8l-63 0 0 18c0 39-32 71-72 71-27 0-50-14-62-36 6-1 12-2 18-4 10 13 26 22 44 22 30 0 54-24 54-53l0-18-43 0c2-6 4-12 5-18l38 0 0-18 9 0c3 0 6-1 9-2l0 20 55 0 13-180-40 0 2-18 40 0 1-18-40 0 2-18 48 0c5 0 9 4 9 9 0 0 0 1 0 1"/>
<glyph glyph-name="baned" unicode="&#52;" d="M258 451c-109 0-197-88-197-197 0-109 88-198 197-198 109 0 198 89 198 198 0 109-89 197-198 197m0-377c-99 0-179 81-179 180 0 46 17 88 46 120l254-253c-32-29-74-47-121-47m133 59l-253 254c32 29 74 46 120 46 99 0 180-80 180-179 0-47-18-89-47-121"/>
<glyph glyph-name="bar-chart" unicode="&#53;" d="M123 218l-53 0c-5 0-9-4-9-9l0-108c0-5 4-9 9-9l53 0c5 0 9 4 9 9l0 108c0 5-4 9-9 9m-8-108l-36 0 0 90 36 0z m224 162l-54 0c-5 0-9-4-9-9l0-162c0-5 4-9 9-9l54 0c5 0 9 4 9 9l0 162c0 5-4 9-9 9m-9-162l-36 0 0 144 36 0z m-99 270l-54 0c-5 0-9-4-9-9l0-270c0-5 4-9 9-9l54 0c5 0 9 4 9 9l0 270c0 5-4 9-9 9m-9-270l-36 0 0 252 36 0z m225 305l-54 0c-5 0-9-4-9-9l0-305c0-5 4-9 9-9l54 0c5 0 9 4 9 9l0 305c0 5-4 9-9 9m-9-305l-36 0 0 287 36 0z"/>
<glyph glyph-name="bar-chart-1" unicode="&#54;" d="M123 218l-53 0c-5 0-9-4-9-9l0-108c0-5 4-9 9-9l53 0c5 0 9 4 9 9l0 108c0 5-4 9-9 9m-8-108l-36 0 0 90 36 0z m224 162l-54 0c-5 0-9-4-9-9l0-162c0-5 4-9 9-9l54 0c5 0 9 4 9 9l0 162c0 5-4 9-9 9m-9-162l-36 0 0 144 36 0z m-99 270l-54 0c-5 0-9-4-9-9l0-270c0-5 4-9 9-9l54 0c5 0 9 4 9 9l0 270c0 5-4 9-9 9m-9-270l-36 0 0 252 36 0z m225 305l-54 0c-5 0-9-4-9-9l0-305c0-5 4-9 9-9l54 0c5 0 9 4 9 9l0 305c0 5-4 9-9 9m-9-305l-36 0 0 287 36 0z"/>
<glyph glyph-name="barchart" unicode="&#55;" d="M17 471c-5-1-10-6-10-12l0-407c0-5 6-11 12-11l474 0c6 0 12 5 12 11 0 6-6 12-12 12l-45 0 0 237c0 6-5 11-10 11-1 0-1 0-1 0l-68 0c-6 0-11-5-11-11l0-237-57 0 0 135c0 6-5 12-11 12l-68 0c0 0-1 0-1 0-6-1-10-6-10-12l0-135-57 0 0 192c0 6-5 11-11 11l-68 0c0 0-1 0-1 0-5 0-10-6-10-11l0-192-34 0 0 219 112 67 107-75c4-3 10-3 14 0l181 147c3 3 5 9 3 13-1 4-6 8-10 8-3-1-5-2-7-3l-174-142-107 75c-3 2-8 2-12 0l-107-63 0 149c0 7-6 12-13 12z m363-181l45 0 0-226-45 0z m-294-45l46 0 0-181-46 0z m147-57l46 0 0-124-46 0z"/>
<glyph glyph-name="barcode" unicode="&#56;" d="M249 110l18 0 0 287-18 0z m-63 0l45 0 0 287-45 0z m-89 0l35 0 0 287-35 0z m-36 270l0-252c0-10 8-18 18-18l0 287c-10 0-18-8-18-17m89-270l18 0 0 287-18 0z m288 287l-18 0 0-287 18 0c10 0 18 8 18 18l0 252c0 9-8 17-18 17m-54-287l18 0 0 287-18 0z m-63 0l45 0 0 287-45 0z m-36 0l18 0 0 287-18 0z"/>
<glyph glyph-name="barcode-1" unicode="&#57;" d="M285 380l-126 0c-5 0-9-4-9-9 0-5 4-9 9-9l126 0c5 0 9 4 9 9 0 5-4 9-9 9m-144-117c5 0 9 4 9 9 0 5-4 9-9 9-5 0-9-4-9-9 0-5 4-9 9-9m297 63l-18 0 0 54-72 71-233 0c-10 0-18-8-18-18l0-107-18 0c-10 0-18-8-18-18l0-72c0-10 8-18 18-18l18 0 0-153c0-5 4-9 9-9 4 0 9 4 9 9l0 153 17 0 0-99c0-5 4-9 9-9 5 0 9 4 9 9l0 99 18 0 0-45c0-5 4-9 9-9 5 0 9 4 9 9l0 45 18 0 0-135c0-5 4-9 9-9 5 0 9 4 9 9l0 135 27 0 0-117c0-5 4-9 9-9 5 0 9 4 9 9l0 117 27 0 0-63c0-5 4-9 9-9 5 0 9 4 9 9l0 63 18 0 0-81c0-5 4-9 9-9 5 0 9 4 9 9l0 81 18 0 0-135c0-5 4-9 9-9 5 0 9 4 9 9l0 135 18 0 0-117c0-5 4-9 9-9 5 0 9 4 9 9l0 117 18 0c10 0 18 8 18 18l0 72c0 10-8 18-18 18m-90 98l45-44-45 0z m-233 9l215 0 0-62c0-5 4-9 9-9l63 0 0-36-287 0z m323-197l-359 0 0 72 359 0z m-332 27c4 0 9 4 9 9 0 5-5 9-9 9-5 0-9-4-9-9 0-5 4-9 9-9"/>
<glyph glyph-name="barcode-scane" unicode="&#33;" d="M276 397l-36 0 0-143 36 0z m-54 0l-18 0 0-143 18 0z m-36 0l-36 0 0-143 36 0z m-54 0l-17 0 0-143 17 0z m-35 0c-10 0-18-8-18-17l0-126 18 0z m287 0l-18 0 0-143 18 0z m-72 0l-18 0 0-143 18 0z m126-17c0 9-8 17-18 17l-18 0 0-143 36 0z m-90 17l-18 0 0-143 18 0z m54-287l18 0c10 0 18 8 18 18l0 36-36 0z m-72 0l18 0 0 54-18 0z m36 0l18 0 0 54-18 0z m-287 18c0-10 8-18 18-18l0 54-18 0z m359 108l-359 0c-10 0-18-8-18-18l0-18c0-10 8-18 18-18l359 0c10 0 18 8 18 18l0 18c0 10-8 18-18 18m0-36l-359 0 0 18 359 0z m-144-90l18 0 0 54-18 0z m-144 0l36 0 0 54-36 0z m-35 0l17 0 0 54-17 0z m89 0l18 0 0 54-18 0z m36 0l36 0 0 54-36 0z"/>
<glyph glyph-name="barcode-search" unicode="&#34;" d="M132 348l0 103-35 0 0-146c9 17 21 31 35 43m-71 85l0-251c0-10 8-18 18-18l0 287c-10 0-18-8-18-18m107 18l-18 0 0-91c6 3 12 6 18 9z m63-72l0 72-45 0 0-76c12 3 24 5 36 5 3 0 6-1 9-1m72 72l-18 0 0-86c6-3 12-7 18-10z m-206-287l1 0c0 1-1 1-1 2z m170 287l-18 0 0-74c6-1 12-3 18-5z m99 0l-45 0 0-111c28-26 45-63 45-104z m0-287l0 72c0-26-7-51-19-72z m18 0l18 0 0 287-18 0z m-67-10c19 22 31 50 31 82 0 69-56 126-126 126-69 0-125-57-125-126 0-70 56-126 125-126 32 0 61 12 83 31l82-82c1-2 3-3 6-3 5 0 9 4 9 9 0 3-1 5-3 7z m-95-26c-59 0-107 48-107 108 0 59 48 108 107 108 60 0 108-49 108-108 0-60-48-108-108-108m216 323l-18 0 0-287 18 0c10 0 18 8 18 18l0 251c0 10-8 18-18 18m-252-153l0-124c11-6 23-10 36-10 3 0 6 0 9 1l0 142c-3 0-6 1-9 1-13 0-25-4-36-10m-18-110l0 95c-11-12-18-29-18-47 0-18 7-35 18-48m117 13c6 10 9 22 9 35 0 12-3 24-9 35z m-36-32c7 3 13 6 18 11l0 112c-5 4-11 8-18 10z"/>
<glyph glyph-name="baskate" unicode="&#35;" d="M438 308l-25 0-148 105 0 0c-2 1-4 2-7 2-2 0-5-1-6-2l0 0-149-105-24 0c-10 0-18-8-18-18l0-18c0-10 8-18 18-18l3 0 33-155 0 0c1-4 4-7 8-7l270 0c4 0 8 3 9 7l0 0 32 155 4 0c10 0 18 8 18 18l0 18c0 10-8 18-18 18m-180 88l125-88-249 0z m-157-142l61 0 6-36-60 0z m11-54l59 0 5-36-57 0z m19-90l-8 36 56 0 6-36z m118 0l-46 0-6 36 52 0z m0 54l-55 0-5 36 60 0z m0 54l-63 0-6 36 69 0z m65-108l-47 0 0 36 52 0z m8 54l-55 0 0 36 61 0z m-55 54l0 36 69 0-5-36z m119-108l-54 0 5 36 56 0z m11 54l-57 0 6 36 59 0z m11 54l-59 0 5 36 62 0z m30 54l-359 0 0 18 359 0z"/>
<glyph glyph-name="baskate-in" unicode="&#36;" d="M252 310c1-1 4-2 6-2 3 0 5 1 7 2l36 36c1 2 2 4 2 7 0 5-4 9-9 9-2 0-5-1-6-3l-21-21 0 86c0 5-4 9-9 9-5 0-9-4-9-9l0-86-20 21c-2 2-4 3-7 3-5 0-9-4-9-9 0-3 1-5 3-7z m186-20l-359 0c-10 0-18-8-18-18l0-18c0-10 8-18 18-18l3 0 33-155 0 0c1-4 4-7 8-7l270 0c4 0 8 3 9 7l0 0 32 155 4 0c10 0 18 8 18 18l0 18c0 10-8 18-18 18m-337-54l61 0 6-36-60 0z m11-54l59 0 5-36-57 0z m19-90l-8 36 56 0 6-36z m118 0l-46 0-6 36 52 0z m0 54l-55 0-5 36 60 0z m0 54l-63 0-6 36 69 0z m65-108l-47 0 0 36 52 0z m8 54l-55 0 0 36 61 0z m-55 54l0 36 69 0-5-36z m119-108l-54 0 5 36 56 0z m11 54l-57 0 6 36 59 0z m11 54l-59 0 5 36 62 0z m30 54l-359 0 0 18 359 0z"/>
<glyph glyph-name="baskate-left" unicode="&#37;" d="M204 380l86 0-20-21c-2-2-3-4-3-6 0-5 4-9 9-9 3 0 5 1 7 2l35 36c2 2 3 4 3 7 0 2-1 4-3 6l-35 36c-2 1-4 2-7 2-5 0-9-4-9-9 0-2 1-4 3-6l20-21-86 0c-5 0-9-4-9-8 0-5 4-9 9-9m234-90l-359 0c-10 0-18-8-18-18l0-18c0-10 8-18 18-18l3 0 33-155 0 0c1-4 4-7 8-7l270 0c4 0 8 3 9 7l0 0 32 155 4 0c10 0 18 8 18 18l0 18c0 10-8 18-18 18m-337-54l61 0 6-36-60 0z m11-54l59 0 5-36-57 0z m19-90l-8 36 56 0 6-36z m118 0l-46 0-6 36 52 0z m0 54l-55 0-5 36 60 0z m0 54l-63 0-6 36 69 0z m65-108l-47 0 0 36 52 0z m8 54l-55 0 0 36 61 0z m-55 54l0 36 69 0-5-36z m119-108l-54 0 5 36 56 0z m11 54l-57 0 6 36 59 0z m11 54l-59 0 5 36 62 0z m30 54l-359 0 0 18 359 0z"/>
<glyph glyph-name="baskate-minus" unicode="&#38;" d="M213 393l90 0c5 0 9 4 9 9 0 5-4 9-9 9l-90 0c-5 0-9-4-9-9 0-5 4-9 9-9m225-81l-359 0c-10 0-18-8-18-18l0-18c0-10 8-18 18-18l3 0 33-155 0 0c1-3 4-6 8-6l270 0c4 0 8 3 9 6l0 0 32 155 4 0c10 0 18 8 18 18l0 18c0 10-8 18-18 18m-337-54l61 0 6-36-60 0z m11-54l59 0 5-36-57 0z m19-89l-8 35 56 0 6-35z m118 0l-46 0-6 35 52 0z m0 53l-55 0-5 36 60 0z m0 54l-63 0-6 36 69 0z m65-107l-47 0 0 35 52 0z m8 53l-55 0 0 36 61 0z m-55 54l0 36 69 0-5-36z m119-107l-54 0 5 35 56 0z m11 53l-57 0 6 36 59 0z m11 54l-59 0 5 36 62 0z m30 54l-359 0 0 18 359 0z"/>
<glyph glyph-name="baskate-out" unicode="&#39;" d="M222 380c3 0 5 1 7 2l20 21 0-86c0-5 4-9 9-9 5 0 9 4 9 9l0 86 21-21c1-1 4-2 6-2 5 0 9 4 9 9 0 2-1 4-2 6l-36 36c-2 1-4 2-7 2-2 0-4-1-6-2l-36-36c-2-2-3-4-3-6 0-5 4-9 9-9m216-90l-359 0c-10 0-18-8-18-18l0-18c0-10 8-18 18-18l3 0 33-155 0 0c1-4 4-7 8-7l270 0c4 0 8 3 9 7l0 0 32 155 4 0c10 0 18 8 18 18l0 18c0 10-8 18-18 18m-337-54l61 0 6-36-60 0z m11-54l59 0 5-36-57 0z m19-90l-8 36 56 0 6-36z m118 0l-46 0-6 36 52 0z m0 54l-55 0-5 36 60 0z m0 54l-63 0-6 36 69 0z m65-108l-47 0 0 36 52 0z m8 54l-55 0 0 36 61 0z m-55 54l0 36 69 0-5-36z m119-108l-54 0 5 36 56 0z m11 54l-57 0 6 36 59 0z m11 54l-59 0 5 36 62 0z m30 54l-359 0 0 18 359 0z"/>
<glyph glyph-name="baskate-plus" unicode="&#40;" d="M213 371l36 0 0-36c0-5 4-9 9-9 5 0 9 4 9 9l0 36 36 0c5 0 9 4 9 9 0 5-4 9-9 9l-36 0 0 35c0 5-4 9-9 9-5 0-9-4-9-9l0-35-36 0c-5 0-9-4-9-9 0-5 4-9 9-9m225-81l-359 0c-10 0-18-8-18-18l0-18c0-10 8-18 18-18l3 0 33-155 0 0c1-4 4-7 8-7l270 0c4 0 8 3 9 7l0 0 32 155 4 0c10 0 18 8 18 18l0 18c0 10-8 18-18 18m-337-54l61 0 6-36-60 0z m11-54l59 0 5-36-57 0z m19-90l-8 36 56 0 6-36z m118 0l-46 0-6 36 52 0z m0 54l-55 0-5 36 60 0z m0 54l-63 0-6 36 69 0z m65-108l-47 0 0 36 52 0z m8 54l-55 0 0 36 61 0z m-55 54l0 36 69 0-5-36z m119-108l-54 0 5 36 56 0z m11 54l-57 0 6 36 59 0z m11 54l-59 0 5 36 62 0z m30 54l-359 0 0 18 359 0z"/>
<glyph glyph-name="baskate-right" unicode="&#41;" d="M198 382l36-36c2-1 4-2 6-2 5 0 9 4 9 9 0 2-1 4-2 6l-21 21 86 0c5 0 9 4 9 9 0 4-4 8-9 8l-86 0 21 21c1 2 2 4 2 6 0 5-4 9-9 9-2 0-4-1-6-2l-36-36 0 0c-2-2-3-4-3-6 0-3 1-5 3-7m240-92l-359 0c-10 0-18-8-18-18l0-18c0-10 8-18 18-18l3 0 33-155 0 0c1-4 4-7 8-7l270 0c4 0 8 3 9 7l0 0 32 155 4 0c10 0 18 8 18 18l0 18c0 10-8 18-18 18m-337-54l61 0 6-36-60 0z m11-54l59 0 5-36-57 0z m19-90l-8 36 56 0 6-36z m118 0l-46 0-6 36 52 0z m0 54l-55 0-5 36 60 0z m0 54l-63 0-6 36 69 0z m65-108l-47 0 0 36 52 0z m8 54l-55 0 0 36 61 0z m-55 54l0 36 69 0-5-36z m119-108l-54 0 5 36 56 0z m11 54l-57 0 6 36 59 0z m11 54l-59 0 5 36 62 0z m30 54l-359 0 0 18 359 0z"/>
<glyph glyph-name="battery-charge" unicode="&#42;" d="M258 308l-126-54 90 0 18-54 126 54-90 0z m180-18l0 36c0 19-16 36-36 36l-305 0c-20 0-36-17-36-36l0-144c0-20 16-36 36-36l305 0c20 0 36 16 36 36l0 36c10 0 18 8 18 18l0 36c0 10-8 18-18 18m-18-108c0-10-8-18-18-18l-305 0c-10 0-18 8-18 18l0 144c0 10 8 18 18 18l305 0c10 0 18-8 18-18z"/>
<glyph glyph-name="battery-empty" unicode="&#43;" d="M438 290l0 36c0 19-16 36-36 36l-305 0c-20 0-36-17-36-36l0-144c0-20 16-36 36-36l305 0c20 0 36 16 36 36l0 36c10 0 18 8 18 18l0 36c0 10-8 18-18 18m-18-108c0-10-8-18-18-18l-305 0c-10 0-18 8-18 18l0 144c0 10 8 18 18 18l305 0c10 0 18-8 18-18z"/>
<glyph glyph-name="battery-low" unicode="&#44;" d="M97 182l89 0 0 144-89 0z m341 108l0 36c0 19-16 36-36 36l-305 0c-20 0-36-17-36-36l0-144c0-20 16-36 36-36l305 0c20 0 36 16 36 36l0 36c10 0 18 8 18 18l0 36c0 10-8 18-18 18m-18-108c0-10-8-18-18-18l-305 0c-10 0-18 8-18 18l0 144c0 10 8 18 18 18l305 0c10 0 18-8 18-18z"/>
<glyph glyph-name="blank" unicode="&#45;" d="M7 327c9 2 22 3 36 3 19 0 32-3 41-11 8-6 13-15 13-27 0-14-10-27-26-33l0 0c15-4 32-16 32-38 0-13-6-23-13-31-11-9-28-14-53-14-13 0-23 1-30 2z m20-62l17 0c21 0 33 11 33 25 0 18-13 25-33 25-9 0-14-1-17-1z m0-73c4 0 9 0 16 0 20 0 39 7 39 29 0 21-18 29-39 29l-16 0z m101 145l20 0 0-159-20 0z m113-159l-1 13-1 0c-6-8-18-16-33-16-22 0-33 16-33 31 0 27 23 41 65 41l0 2c0 9-3 25-25 25-10 0-20-3-28-8l-5 13c9 6 22 10 36 10 33 0 41-23 41-45l0-40c0-10 1-19 2-26z m-3 55c-21 0-46-3-46-24 0-13 9-19 19-19 14 0 23 9 26 18 1 2 1 4 1 6z m51 24c0 11 0 20-1 29l18 0 1-18 0 0c6 11 18 21 36 21 15 0 39-9 39-47l0-64-20 0 0 62c0 18-7 32-25 32-13 0-23-9-27-20-1-2-1-6-1-9l0-65-20 0z m144-21l1 0c2 4 6 9 9 13l32 37 24 0-42-44 48-64-24 0-38 52-10-12 0-40-19 0 0 159 19 0z"/>
<glyph glyph-name="block1" unicode="&#46;" d="M13 260l0 204 486 0 0-204z m0-217l0 204 486 0 0-204-486 0z"/>
<glyph glyph-name="block2" unicode="&#47;" d="M250 27l-205 0 0 458 205 0 0-458z m217 0l-205 0 0 458 205 0z"/>
<glyph glyph-name="block3" unicode="&#58;" d="M250 27l-205 0 0 458 205 0 0-458z m217 0l-205 0 0 223 205 0z m0 235l-205 0 0 223 205 0z"/>
<glyph glyph-name="block4" unicode="&#59;" d="M258 296l-19 0 0 79c0 2-2 3-4 3 0 0 0 0 0 0l-29 0c-2 0-4-1-4-3l0-79-24 0 0 45c0 2-2 4-5 4l-28 0c0 0 0 0 0 0-3 0-5-2-5-4l0-45-23 0 0 64c0 2-2 3-5 3l-28 0c0 0-1 0-1 0-2 0-4-1-4-3l0-64-14 0 0 73 47 22 44-25c2-1 5-1 6 0l76 49c1 1 2 2 1 4-1 1-3 2-4 2-2 0-3 0-3 0l-73-47-44 24c-2 1-4 1-5 0l-45-20 0 49c0 2-3 4-5 4-3 0-5-2-4-4l0-134c0-2 2-4 4-4l198 0c3 0 5 2 5 4 0 2-2 3-5 3z m-151 0l-19 0 0 60 19 0 0-60z m62 0l-19 0 0 41 19 0 0-41z m61 0l-19 0 0 75 19 0z m233 71c-2 30-26 54-57 56-3 0-7-3-7-6 0 0 0-1 0-1l0-51c0-3 3-5 6-5l51 0c4 0 7 3 7 6 0 1 0 1 0 1z m-57 0l0 49c27-2 48-23 49-49l-49 0z m43-14c0 0 0 0-1 0l0 0-40 0c-2 0-5-2-5-5 0-1 1-3 2-4l30-28c1-2 3-2 5-2l1 0c2 0 3 1 5 3 5 8 9 18 9 29 1 4-2 7-6 7z m-9-32l-26 25 34 0c0-9-3-18-8-25z m-11-9l-38 37 0 53c0 5-3 8-8 8l0 0c-35-2-60-32-58-67 3-31 28-56 59-57 1 0 2 0 4 0 15 0 29 5 40 15 2 1 3 3 3 5 0 2-1 4-2 6z m-5-6c-10-9-23-13-36-13-1 0-2 0-3 0-31 1-54 27-53 58 2 28 24 50 51 52 1 0 1 0 1-1l0-54c0-1 0-2 1-3l39-38c0 0 0 0 0-1 0 0 0 0 0 0z m-374-61l0-153 420 0 0 153z m139-150l-135 0 0 35 135 0 0-35z m0 37l-135 0 0 36 135 0 0-36z m0 38l-135 0 0 35 135 0 0-35z m138-75l-134 0 0 35 134 0z m0 37l-134 0 0 36 134 0z m0 38l-134 0 0 35 134 0z m139-75l-134 0 0 35 134 0z m0 37l-134 0 0 36 134 0z m0 38l-134 0 0 35 134 0z"/>
<glyph glyph-name="block5" unicode="&#60;" d="M59 369l-35 0 0 52 35 0z m-20 15l5 0 0 23-5 0z m178-15l-154 0 0 52 154 0z m-139 15l124 0 0 23-124 0z m-19-89l-35 0 0 52 35 0z m-20 15l5 0 0 22-5 0z m178-15l-154 0 0 52 154 0z m-139 15l124 0 0 22-124 0z m-19-89l-35 0 0 52 35 0z m-20 15l5 0 0 22-5 0z m178-15l-154 0 0 52 154 0z m-139 15l124 0 0 22-124 0z m-19-89l-35 0 0 52 35 0z m-20 15l5 0 0 22-5 0z m178-15l-154 0 0 52 154 0z m-139 15l124 0 0 22-124 0z m-19-89l-35 0 0 52 35 0z m-20 15l5 0 0 22-5 0z m178-15l-154 0 0 52 154 0z m-139 15l124 0 0 22-124 0z m377 267l-52 0c-4 0-8 4-8 9l0 52c0 6 5 10 10 10l0 0c32-2 58-28 60-60l0-1c0-5-4-10-10-10z m-50 65c-3 0-4-2-5-4l0-52c0-2 2-3 3-3l52 0c3 0 5 2 5 4-2 30-26 53-55 55 0 0 0 0 0 0z m34-111c-3 0-5 1-7 3l-30 29c-2 1-3 3-3 5 0 5 4 8 8 8l41 0c6 0 10-5 10-10-1-11-5-22-11-31-1-2-4-4-7-4z m-32 40c-1 0-2-1-2-3 0 0 0-1 1-1l30-29c1-1 2-2 3-2l0-2 0 2 1 0c1 0 2 1 3 2 5 9 8 18 9 28 0 2-1 4-4 5z m-21-69c0 0 0 0 0 0l0 0c-1 0-2 0-4 0-33 2-60 28-62 61-3 37 24 69 61 72l1 0c6 0 10-5 10-11l0-53 38-37c2-2 3-5 3-8 0-3-2-6-4-8-12-10-27-16-43-16z m-4 127l-1 0c-33-3-58-32-56-65 3-31 27-55 58-56 1 0 2 0 3 0l0 0c14 0 28 5 39 14 2 1 2 3 2 4 0 1 0 3-1 4l-39 39 0 55c0 3-2 5-5 5z m-112-321l0 167 222 0 0-167-222 0z m0 0l0 167 222 0 0-167-222 0z"/>
<glyph glyph-name="block6" unicode="&#61;" d="M258 96l-19 0 0 79c0 2-2 3-4 3 0 0 0 0 0 0l-29 0c-2 0-4-1-4-3l0-79-24 0 0 45c0 2-2 4-5 4l-28 0c0 0 0 0 0 0-3 0-5-2-5-4l0-45-23 0 0 64c0 2-2 4-5 4l-28 0c0 0-1 0-1 0-2-1-4-2-4-4l0-64-14 0 0 73 47 22 44-25c2-1 5-1 6 0l76 49c1 1 2 3 1 4-1 1-3 2-4 2-2 0-3 0-3 0l-73-47-44 24c-2 1-4 1-5 1l-45-21 0 49c0 2-3 4-5 4-3 0-5-2-5-4l0-134c0-2 3-4 5-4l198 0c3 0 5 2 5 4 0 2-2 3-5 3z m-151 0l-19 0 0 60 19 0 0-60z m62 0l-19 0 0 41 19 0 0-41z m61 0l-19 0 0 75 19 0z m-180 330l0-152 420 0 0 152z m139-150l-135 0 0 35 135 0 0-35z m0 38l-135 0 0 35 135 0 0-35z m0 37l-135 0 0 35 135 0 0-35z m138-75l-134 0 0 35 134 0z m0 38l-134 0 0 35 134 0z m0 37l-134 0 0 35 134 0z m139-75l-134 0 0 35 134 0z m0 38l-134 0 0 35 134 0z m0 37l-134 0 0 35 134 0z m6-266l-186 0 0 164 186 0z m-176 11l165 0 0 142-165 0z"/>
<glyph glyph-name="block7" unicode="&#62;" d="M139 318l-100 0 0 101 100 0z m318-227l-184 0c-3 0-5 3-5 7l0 314c0 3 2 6 4 7l1 0c0 0 0 0 1 0l183 0c3 0 5-3 5-7l0-314c0-4-2-7-5-7z m-184 322c0 0 0 0 0-1l0-314c0-1 0-1 0-1l184 0c0 0 0 0 0 1l0 314c0 1 0 1 0 1z m65-94l-43 0c-3 0-5 3-5 7l0 45c0 3 1 6 4 6l1 0c0 0 0 0 0 0l43 0c3 0 5-2 5-6l0-45c0-4-2-7-5-7z m-43 53c0 0 0-1 0-1l0-45c0-1 0-1 0-1l43 0c0 0 0 0 0 1l0 45c0 0 0 1 0 1z m70-30c-3 0-5 2-5 6-1 3 1 7 4 7l1 0c0 0 0 0 0 0l70 0c3 0 6-3 6-7 0-3-3-6-6-6z m70 7l-70 0c0 0 0 0 0-1 0 0 0 0 0 0l70 0c0 0 1 0 1 0 0 1-1 1-1 1z m-97-123l-43 0c-3 0-5 3-5 6l0 45c0 3 1 6 4 7l1 0c0 0 0 0 0 0l43 0c3 0 5-3 5-7l0-45c0-3-2-6-5-6z m-43 52c0 0 0 0 0-1l0-45c0 0 0 0 0 0l43 0c0 0 0 0 0 0l0 45c0 1 0 1 0 1z m70-30c-3 0-5 3-5 6-1 4 1 7 4 8l1 0c0 0 0 0 0 0l70 0c3 0 6-4 6-7 0-4-3-7-6-7z m70 8l-70 0c0 0 0-1 0-1 0-1 0-1 0-1l70 0c0 0 1 0 1 1 0 0-1 1-1 1z m-113-105c-1 0-2 1-3 1l-8 8c-3 2-3 6-2 9 2 3 6 4 8 2l4-4 26 47c1 2 3 3 4 3 2 0 3-1 4-2 2-2 2-6 1-9l-30-52c-1-2-2-3-4-3z m-8 15c-1-1 0-1 0-2l8-7 30 52c0 1 0 2 0 2l-30-53z m24-34l-43 0c-3 0-5 3-5 7l0 45c0 3 2 6 4 6l22 0c3 0 6-3 6-6 0-4-3-7-5-7l-17 0 0-31 33 0 0 8c0 4 2 7 5 7 3 0 5-3 5-7l0-15c0-4-2-7-5-7z m-22 53l-21 0c0 0 0-1 0-1l0-45c0-1 0-1 0-1l43 0c0 0 0 1 0 1l0 15c0 1 0 1 0 1 0 0 0 0 0-1l0-14-43 0 0 43 21 0c0 0 1 0 1 1 0 0-1 1-1 1z m49-30c-3 0-5 2-5 6-1 4 1 7 4 7l1 0c0 0 0 0 0 0l70 0c3 0 6-3 6-7 0-3-3-6-6-6z m70 7l-70 0c0 0 0 0 0-1 0 0 0 0 0 0l70 0c0 0 1 0 1 0 0 1-1 1-1 1z m-183 156l-100 0 0 101 100 0z m-113-112l-100 0 0 100 100 0z m0-113l-100 0 0 100 100 0z m113 113l-100 0 0 100 100 0z m0-113l-100 0 0 100 100 0z"/>
<glyph glyph-name="block8" unicode="&#63;" d="M288 370l-61 0c-2 0-4 2-4 3 0 8-6 15-14 15l-158 0c-8 0-15-7-15-15l0-241c0-8 7-15 15-15l158 0c3 0 5 1 8 2 3 0 6 2 6 4 0 1 0 1 0 1l0 75 34 0c8 0 15 7 15 14l0 32c0 4-2 7-4 9 2 3 4 6 4 9l0 32c0 2-1 3-1 4l17 0c8 0 15 6 15 14l0 43c0 8-7 14-15 14z m-27-157c0-2-2-3-4-3l-34 0 0 39 34 0c2 0 4-2 4-4z m0 50c0-2-2-3-4-3l-34 0 0 28c0 3 1 11 4 11l28 0c1 0 1-1 2-1 2 0 4-1 4-3z m31 50c0-2-2-4-4-4l-61 0c-4 0-15-2-15-21l0-159c-1-1-2-1-3-1l-158 0c-2 0-4 1-4 3l0 242c0 2 2 4 4 4l158 0c2 0 3-2 3-4 0-7 7-14 15-14l61 0c2 0 4-1 4-3l0-43z m-110 18l-97 0c-3 0-6-2-6-5 0-3 3-6 6-6l97 0c3 0 6 3 6 6 0 3-3 5-6 5z m0-35l-97 0c-3 0-6-3-6-6 0-3 3-5 6-5l97 0c3 0 6 2 6 5 0 3-3 6-6 6z m0-36l-97 0c-3 0-6-3-6-6 0-3 3-5 6-5l97 0c3 0 6 2 6 5 0 3-3 6-6 6z m0-36l-97 0c-3 0-6-2-6-5 0-3 3-6 6-6l97 0c3 0 6 3 6 6 0 3-3 5-6 5z m-36-36l-61 0c-3 0-6-2-6-5 0-3 3-5 6-5l61 0c3 0 5 2 5 5 0 3-2 5-5 5z m331-71l-142 0 0 276 142 0z m-131 11l120 0 0 254-120 0z"/>
<glyph glyph-name="block9" unicode="&#64;" d="M13 75l0 253 486 0 0-253z m42 333l-42 0 0 6 42 0 0-6z m-41 3l40 0z m83-42c-24 0-42 19-42 42 0 24 18 43 42 43 23 0 41-19 41-43 0-23-18-42-41-42z m0 76c-19 0-34-15-34-34 0-18 15-33 34-33 18 0 33 15 33 33 0 19-15 34-33 34z m159-76c-23 0-42 19-42 42 0 24 19 43 42 43 23 0 42-19 42-43 0-23-19-42-42-42z m0 76c-19 0-34-15-34-34 0-18 15-33 34-33 18 0 33 15 33 33 0 19-15 34-33 34z m-42-37l-76 0 0 6 76 0 0-6z m-74 3l73 0z m275-42c-23 0-41 19-41 42 0 23 18 42 41 42 24 0 42-19 42-42 0-23-18-42-42-42z m0 76c-18 0-33-15-33-34 0-19 15-34 33-34 19 0 34 15 34 34 0 19-15 34-34 34z m-41-37l-76 0 0 6 76 0z m-75 3l73 0z m200-3l-42 0 0 6 42 0z m-41 3l40 0z"/>
<glyph glyph-name="bluetooth" unicode="&#91;" d="M364 161l-1 0c0 0 0 0 0 0l-87 88 0 10 87 87 0 0 1 0 0 0c1 2 2 4 2 7 0 2-1 4-3 6l-89 90c-2 1-4 2-7 2-5 0-9-4-9-9l0-176-92 93 0 0c-2 1-4 3-7 3-5 0-9-4-9-9 0-3 1-5 3-7l0 0 0 0 0 0 93-92-93-93 0 0 0 0 0 0c-2-1-3-4-3-6 0-5 4-9 9-9 3 0 5 1 7 3l0 0 92 92 0-176c0-5 4-9 9-9 3 0 5 1 7 3l89 90c2 1 3 3 3 6 0 2-1 5-2 6z m-88 260l68-68-68-69z m0-334l0 136 68-68z"/>
<glyph glyph-name="board-clips" unicode="&#93;" d="M106 415c-5 0-9-4-9-9 0-4 4-9 9-9 4 0 9 5 9 9 0 5-5 9-9 9m58-44l117 0c7 0 13 6 13 13 0 7-6 13-13 13l-117 0c-8 0-14-6-14-13 0-7 6-13 14-13m-58-207c-5 0-9-4-9-9 0-5 4-9 9-9 4 0 9 4 9 9 0 5-5 9-9 9m305 0c-5 0-9-4-9-9 0-5 4-9 9-9 5 0 9 4 9 9 0 5-4 9-9 9m-153 117c-20 0-36-12-36-27 0-15 16-27 36-27 20 0 36 12 36 27 0 15-16 27-36 27m0-36c-10 0-18 4-18 9 0 5 8 9 18 9 10 0 18-4 18-9 0-5-8-9-18-9m162 206l-323 0c-20 0-36-16-36-36l0-323c0-20 16-36 36-36l323 0c20 0 36 16 36 36l0 323c0 20-16 36-36 36m18-359c0-10-8-18-18-18l-323 0c-10 0-18 8-18 18l0 23c5-3 11-5 18-5l323 0c6 0 13 2 18 5z m0 54c0-10-8-18-18-18l-323 0c-10 0-18 8-18 18l0 269c0 10 8 18 18 18l323 0c10 0 18-8 18-18z m-27 269c-5 0-9-4-9-9 0-4 4-9 9-9 5 0 9 5 9 9 0 5-4 9-9 9m-45 0l-61-78c-14 4-30 7-47 7-69 0-126-41-126-90 0-50 57-90 126-90 70 0 126 40 126 90 0 17-7 32-18 46z m-108-233c-59 0-108 32-108 72 0 39 49 72 108 72 20 0 39-4 55-10l35 43 0-66c11-11 18-25 18-39 0-40-48-72-108-72"/>
<glyph glyph-name="bone" unicode="&#94;" d="M435 254c13 9 21 23 21 40 0 27-22 50-50 50-27 0-49-23-49-50 0-1 0-3 0-4l-198 0c0 1 0 3 0 4 0 27-22 50-49 50-27 0-49-23-49-50 0-17 8-31 21-40-13-9-21-24-21-41 0-27 22-49 49-49 27 0 49 22 49 49 0 2 0 3 0 5l198 0c0-2 0-3 0-5 0-27 22-49 49-49 28 0 50 22 50 49 0 17-8 32-21 41m-29-72c-17 0-31 14-31 31 0 9 4 17 9 23l-252 0c6-6 9-14 9-23 0-17-14-31-31-31-17 0-31 14-31 31 0 16 11 29 27 31l0 1c4 0 9 4 9 9 0 5-5 9-9 9l0 0c-16 2-27 15-27 31 0 18 14 32 31 32 17 0 31-14 31-32 0-9-3-17-9-22l252 0c-5 5-9 13-9 22 0 18 14 32 31 32 18 0 32-14 32-32 0-16-12-29-27-31l0 0c-5 0-9-4-9-9 0-5 4-9 9-9l0-1c15-2 27-15 27-31 0-17-14-31-32-31"/>
<glyph glyph-name="bones" unicode="&#95;" d="M145 313c1 1 1 1 1 2l42-42c4-3 9-3 13 0 3 4 3 9 0 13l0 0-60 60c0-8-3-15-9-20-12-12-32-12-44 0-13 12-13 32 0 44 11 11 28 13 40 4l1 0c2-2 6-2 9 1 2 2 2 6 0 9l0 0c-8 12-7 29 4 40 12 13 32 13 44 0 13-12 13-32 0-44-5-6-12-9-19-9l59-60 1 0c3-3 8-3 12 1 3 3 3 8 0 12l-42 42c1 0 1 1 2 1 19 19 19 51 0 70-19 19-51 19-70 0-11-11-15-26-14-40-14 2-29-3-40-14-19-19-19-50 0-70 19-19 51-19 70 0m226-118c0-1-1-2-1-2l-42 42c-4 3-9 3-12-1-4-3-4-8-1-12l0 0 60-60c0 7 3 14 9 20 12 12 32 12 44 0 13-12 13-32 0-45-11-11-28-12-40-3l0 0c-3 2-7 2-9-1-3-2-3-6-1-9l0 0c8-12 7-29-4-40-12-13-32-13-44 0-12 12-12 32 0 44 5 5 12 8 19 9l-59 60 0 0c-4 3-9 3-13-1-3-3-3-8 0-12l42-42c-1 0-1-1-2-1-19-20-19-51 0-70 20-19 51-19 70 0 11 11 15 25 14 40 14-2 29 3 40 14 19 19 19 50 0 70-19 19-51 19-70 0m-174-53l173 173c0-1 1-1 1-2 20-19 51-19 70 0 20 20 20 51 0 70-11 11-25 16-40 14 2 14-3 29-14 40-19 19-50 19-70 0-19-19-19-51 0-70 1 0 2-1 2-1l-173-173c0 0-1 1-1 2-19 19-51 19-70 0-19-20-19-51 0-70 11-11 26-16 40-14-2-15 3-29 14-40 19-20 50-20 70 0 19 19 19 50 0 70-1 0-1 1-2 1m-11-59c-12-12-32-12-44 0-11 11-13 29-4 41l0 0c2 3 2 7-1 9-2 3-6 3-9 1l0 0c-12-9-29-8-40 3-13 13-13 33 0 45 12 12 32 12 44 0 6-6 9-13 9-20l104 105 105 104c-7 0-14 3-20 9-12 12-12 32 0 44 12 13 32 13 45 0 11-11 12-28 3-40l0 0c-2-3-2-7 1-9 2-3 6-3 9-1l0 0c13 9 30 7 41-4 12-12 12-32 0-44-13-12-33-12-45 0-5 5-8 12-9 20l-209-209c8-1 15-4 20-9 12-12 12-32 0-45"/>
<glyph glyph-name="bottle" unicode="&#96;" d="M294 344l0 89c0 10-8 18-18 18l-36 0c-10 0-18-8-18-18l0-89c-29 0-54-25-54-54l0-180c0-30 25-54 54-54l72 0c30 0 54 24 54 54l0 180c0 29-24 54-54 54m-54 89l36 0 0-18-36 0z m0-36l36 0 0-53-36 0z m90-287c0-20-16-36-36-36l-72 0c-20 0-36 16-36 36l0 36 144 0z m0 54l-144 0 0 72 144 0z m0 90l-144 0 0 36c0 20 16 36 36 36l72 0c20 0 36-16 36-36z"/>
<glyph glyph-name="box-g" unicode="&#123;" d="M438 433l-162 0c0 10-8 18-18 18-10 0-18-8-18-18l-161 0c-10 0-18-8-18-18l0-18c0-9 8-17 18-17l0-216c0-10 8-18 18-18l152 0 0-23-51-52c-2-1-3-3-3-6 0-5 4-9 9-9 3 0 5 1 7 3l47 47 48-47c1-2 4-3 6-3 5 0 9 4 9 9 0 3-1 5-3 6l-51 52 0 23 153 0c10 0 18 8 18 18l0 216c10 0 18 8 18 17l0 18c0 10-8 18-18 18m-18-269l-323 0 0 216 323 0z m18 233l-359 0 0 18 359 0z"/>
<glyph glyph-name="box-g-1" unicode="&#124;" d="M438 433l-162 0c0 10-8 18-18 18-10 0-18-8-18-18l-161 0c-10 0-18-8-18-18l0-18c0-9 8-17 18-17l0-216c0-10 8-18 18-18l152 0 0-23-51-52c-2-1-3-3-3-6 0-5 4-9 9-9 3 0 5 1 7 3l47 47 48-47c1-2 4-3 6-3 5 0 9 4 9 9 0 3-1 5-3 6l-51 52 0 23 153 0c10 0 18 8 18 18l0 216c10 0 18 8 18 17l0 18c0 10-8 18-18 18m-18-269l-323 0 0 216 323 0z m18 233l-359 0 0 18 359 0z m-297-143l90 0c5 0 9 4 9 9 0 2 0 3-1 5l0 0-45 72 0 0c-2 2-5 4-8 4-3 0-5-2-7-4l0 0-45-72 0 0c-1-2-2-3-2-5 0-5 4-9 9-9m45 64l29-46-57 0z m144-118c30 0 54 24 54 54 0 30-24 54-54 54-30 0-54-24-54-54 0-30 24-54 54-54m0 90c20 0 36-16 36-36 0-20-16-36-36-36-20 0-36 16-36 36 0 20 16 36 36 36"/>
<glyph glyph-name="box-g-2" unicode="&#125;" d="M285 290l90 0c5 0 9 4 9 9 0 5-4 9-9 9l-90 0c-5 0-9-4-9-9 0-5 4-9 9-9m0 36l54 0c5 0 9 4 9 9 0 5-4 9-9 9l-54 0c-5 0-9-4-9-9 0-5 4-9 9-9m0-72l36 0c5 0 9 4 9 9 0 5-4 9-9 9l-36 0c-5 0-9-4-9-9 0-5 4-9 9-9m-135-36l72 0c10 0 18 8 18 18l0 90c0 10-8 18-18 18l-72 0c-9 0-18-8-18-18l0-90c0-10 9-18 18-18m0 108l72 0 0-90-72 0z m135-108l90 0c5 0 9 4 9 9 0 5-4 9-9 9l-90 0c-5 0-9-4-9-9 0-5 4-9 9-9m153 215l-162 0c0 10-8 18-18 18-10 0-18-8-18-18l-161 0c-10 0-18-8-18-18l0-18c0-9 8-17 18-17l0-216c0-10 8-18 18-18l152 0 0-23-51-52c-2-1-3-3-3-6 0-5 4-9 9-9 3 0 5 1 7 3l47 47 48-47c1-2 4-3 6-3 5 0 9 4 9 9 0 3-1 5-3 6l-51 52 0 23 153 0c10 0 18 8 18 18l0 216c10 0 18 8 18 17l0 18c0 10-8 18-18 18m-18-269l-323 0 0 216 323 0z m18 233l-359 0 0 18 359 0z"/>
<glyph glyph-name="box-g-3" unicode="&#126;" d="M258 290c-34 0-63-28-63-63 0-5 4-9 9-9 5 0 9 4 9 9 0 25 20 45 45 45 25 0 45-20 45-45 0-5 4-9 9-9 5 0 9 4 9 9 0 35-28 63-63 63m0-54c-5 0-9-4-9-9 0-5 4-9 9-9 5 0 9 4 9 9 0 5-4 9-9 9m-108-18c5 0 9 4 9 9 0 54 45 99 99 99 55 0 99-45 99-99 0-5 4-9 9-9 5 0 9 4 9 9 0 64-52 117-117 117-64 0-117-53-117-117 0-5 4-9 9-9m288 215l-162 0c0 10-8 18-18 18-10 0-18-8-18-18l-161 0c-10 0-18-8-18-18l0-18c0-9 8-17 18-17l0-216c0-10 8-18 18-18l152 0 0-23-51-52c-2-1-3-3-3-6 0-5 4-9 9-9 3 0 5 1 7 3l47 47 48-47c1-2 4-3 6-3 5 0 9 4 9 9 0 3-1 5-3 6l-51 52 0 23 153 0c10 0 18 8 18 18l0 216c10 0 18 8 18 17l0 18c0 10-8 18-18 18m-18-269l-323 0 0 216 323 0z m18 233l-359 0 0 18 359 0z"/>
<glyph glyph-name="box-g-4" unicode="&#92;" d="M141 200l234 0c5 0 9 4 9 9 0 2-1 4-2 5l0 0-54 72 0 0c-1 2-4 4-7 4-2 0-5-1-6-3l-30-30-65 66c-2 2-4 3-7 3-3 0-5-2-7-4l0 0-72-108 0 0c-1-2-2-3-2-5 0-5 4-9 9-9m74 103l64-65c1-1 4-2 6-2 3 0 5 1 7 2l28 29 37-49-199 0z m142 5c15 0 27 12 27 27 0 14-12 27-27 27-15 0-27-13-27-27 0-15 12-27 27-27m0 36c5 0 9-4 9-9 0-5-4-9-9-9-5 0-9 4-9 9 0 5 4 9 9 9m81 89l-162 0c0 10-8 18-18 18-10 0-18-8-18-18l-161 0c-10 0-18-8-18-18l0-18c0-9 8-17 18-17l0-216c0-10 8-18 18-18l152 0 0-23-51-52c-2-1-3-3-3-6 0-5 4-9 9-9 3 0 5 1 7 3l47 47 48-47c1-2 4-3 6-3 5 0 9 4 9 9 0 3-1 5-3 6l-51 52 0 23 153 0c10 0 18 8 18 18l0 216c10 0 18 8 18 17l0 18c0 10-8 18-18 18m-18-269l-323 0 0 216 323 0z m18 233l-359 0 0 18 359 0z"/>
<glyph glyph-name="branches" unicode="&#57344;" d="M233 362l46 0c26 0 47 19 47 42l0 42c0 24-21 43-47 43l-46 0c-26 0-47-19-47-43l0-42c0-23 21-42 47-42m-24 84c0 12 11 22 24 22l46 0c13 0 24-10 24-22l0-42c0-12-11-21-24-21l-46 0c-13 0-24 9-24 21z m-139-275c6 0 11 5 11 11l0 74 163 0 0-74c0-6 6-11 12-11 6 0 12 5 12 11l0 74 163 0 0-74c0-6 5-11 11-11 7 0 12 5 12 11l0 85c0 5-5 10-12 10l-174 0 0 53c0 6-6 11-12 11-6 0-12-5-12-11l0-53-174 0c-7 0-12-5-12-10l0-85c0-6 5-11 12-11m23-21l-46 0c-26 0-47-19-47-42l0-42c0-24 21-43 47-43l46 0c26 0 47 19 47 43l0 42c0 23-21 42-47 42m23-84c0-12-10-21-23-21l-46 0c-13 0-24 9-24 21l0 42c0 12 11 21 24 21l46 0c13 0 23-9 23-21z m349 84l-46 0c-26 0-47-19-47-42l0-42c0-24 21-43 47-43l46 0c26 0 47 19 47 43l0 42c0 23-21 42-47 42m24-84c0-12-11-21-24-21l-46 0c-13 0-23 9-23 21l0 42c0 12 10 21 23 21l46 0c13 0 24-9 24-21z m-210 84l-46 0c-26 0-47-19-47-42l0-42c0-24 21-43 47-43l46 0c26 0 47 19 47 43l0 42c0 23-21 42-47 42m24-84c0-12-11-21-24-21l-46 0c-13 0-24 9-24 21l0 42c0 12 11 21 24 21l46 0c13 0 24-9 24-21z"/>
<glyph glyph-name="bs-c" unicode="&#57345;" d="M294 451c-52 0-98-24-128-63 10 4 21 6 31 8 26 23 60 37 97 37 79 0 144-64 144-143 0-38-15-72-38-97-1-11-4-21-7-31 38 30 63 76 63 128 0 89-73 161-162 161m-72-71c-89 0-161-73-161-162 0-89 72-162 161-162 90 0 162 73 162 162 0 89-72 162-162 162m0-306c-79 0-143 65-143 144 0 79 64 143 143 143 80 0 144-64 144-143 0-79-64-144-144-144m22 181l5 18-11 3-5-18c-3 1-6 2-9 2l4 18-11 3-5-18c-2 0-4 1-7 1l0 1-15 3-3-11c0 0 8-2 8-2 4-1 5-4 5-7l-5-20c0 0 1 0 1 0 0 0-1 0-1 0l-8-29c0-1-2-3-5-2 0 0-8 2-8 2l-6-13 15-3c3-1 5-2 8-2l-5-18 12-3 4 18c4-1 7-2 9-2l-4-18 11-3 5 18c19-3 34-2 40 15 5 13 0 21-11 26 8 2 13 6 15 16 2 13-8 21-23 25m-3-60c-3-13-27-6-35-4l6 24c8-2 33-6 29-20m4 35c-4-12-23-6-30-4l6 22c6-2 27-5 24-18"/>
<glyph glyph-name="building" unicode="&#57346;" d="M447 415l-9 0 0 27c0 5-4 9-9 9l-341 0c-5 0-9-4-9-9l0-27-9 0c-5 0-9-4-9-9 0-4 4-9 9-9l9 0 0-332c0-5 4-9 9-9l341 0c5 0 9 4 9 9l0 332 9 0c5 0 9 5 9 9 0 5-4 9-9 9m-171-341l-36 0 0 90 36 0z m144 0l-126 0 0 99c0 5-4 9-9 9l-54 0c-5 0-9-4-9-9l0-99-125 0 0 323 323 0z m0 341l-323 0 0 18 323 0z m-99-125l54 0c5 0 9 4 9 9l0 54c0 5-4 9-9 9l-54 0c-5 0-9-4-9-9l0-54c0-5 4-9 9-9m9 54l36 0 0-36-36 0z m-189-54l54 0c5 0 9 4 9 9l0 54c0 5-4 9-9 9l-54 0c-5 0-9-4-9-9l0-54c0-5 4-9 9-9m9 54l36 0 0-36-36 0z m-9-144l54 0c5 0 9 4 9 9l0 54c0 5-4 9-9 9l-54 0c-5 0-9-4-9-9l0-54c0-5 4-9 9-9m9 54l36 0 0-36-36 0z m171-54l54 0c5 0 9 4 9 9l0 54c0 5-4 9-9 9l-54 0c-5 0-9-4-9-9l0-54c0-5 4-9 9-9m9 54l36 0 0-36-36 0z m-189-144l54 0c5 0 9 4 9 9l0 54c0 5-4 9-9 9l-54 0c-5 0-9-4-9-9l0-54c0-5 4-9 9-9m9 54l36 0 0-36-36 0z m81 126l54 0c5 0 9 4 9 9l0 54c0 5-4 9-9 9l-54 0c-5 0-9-4-9-9l0-54c0-5 4-9 9-9m9 54l36 0 0-36-36 0z m81-234l54 0c5 0 9 4 9 9l0 54c0 5-4 9-9 9l-54 0c-5 0-9-4-9-9l0-54c0-5 4-9 9-9m9 54l36 0 0-36-36 0z m-99 36l54 0c5 0 9 4 9 9l0 54c0 5-4 9-9 9l-54 0c-5 0-9-4-9-9l0-54c0-5 4-9 9-9m9 54l36 0 0-36-36 0z"/>
<glyph glyph-name="c-apuse" unicode="&#57347;" d="M258 451c-109 0-197-88-197-197 0-109 88-198 197-198 109 0 198 89 198 198 0 109-89 197-198 197m0-377c-99 0-179 81-179 180 0 99 80 179 179 179 99 0 180-80 180-179 0-99-81-180-180-180m63 252l-126 0c-5 0-9-4-9-9l0-126c0-5 4-9 9-9l126 0c5 0 9 4 9 9l0 126c0 5-4 9-9 9m-9-126l-108 0 0 108 108 0z"/>
<glyph glyph-name="c-forward" unicode="&#57348;" d="M183 333c-2 1-3 2-6 2-5 0-9-4-9-9l0-144c0-5 4-9 9-9 3 0 4 1 6 2l0 0 39 22 0 21-36-21 0 113 36-20 0 20-39 23z m75 118c-109 0-197-88-197-197 0-109 88-198 197-198 109 0 198 89 198 198 0 109-89 197-198 197m0-377c-99 0-179 81-179 180 0 99 80 179 179 179 99 0 180-80 180-179 0-99-81-180-180-180m123 187l0 0-2 1c0 0 0 0-1 0l-123 71 0 0c-2 1-4 2-6 2-5 0-9-4-9-9l0-144c0-5 4-9 9-9 2 0 4 1 6 2l0 0 123 70c1 1 1 1 1 1l2 1 0 0c2 2 3 4 3 7 0 3-1 5-3 7m-123-64l0 113 99-56z"/>
<glyph glyph-name="c-forward-1" unicode="&#57349;" d="M258 451c-109 0-197-88-197-197 0-109 88-198 197-198 109 0 198 89 198 198 0 109-89 197-198 197m0-377c-99 0-179 81-179 180 0 99 80 179 179 179 99 0 180-80 180-179 0-99-81-180-180-180m81 261l-36 0c-5 0-9-4-9-9l0-57-111 64 0 0c-2 1-4 2-6 2-5 0-9-4-9-9l0-144c0-5 4-9 9-9 2 0 4 1 6 2l0 0 111 63 0-56c0-5 4-9 9-9l36 0c5 0 9 4 9 9l0 144c0 5-4 9-9 9m-153-138l0 113 99-56z m144-6l-18 0 0 126 18 0z"/>
<glyph glyph-name="c-forward-2" unicode="&#57350;" d="M330 236l-144 0c-5 0-9-4-9-9l0-36c0-5 4-9 9-9l144 0c5 0 9 4 9 9l0 36c0 5-4 9-9 9m-9-36l-126 0 0 18 126 0z m16 68l0 1c-1 0-1 0-1 0l-71 71 0 0c-2 2-4 4-7 4-3 0-5-2-7-4l0 0-71-71c0 0 0 0 0 0l-1-1 0 0c-1-1-2-3-2-5 0-5 4-9 9-9l144 0c5 0 9 4 9 9 0 2-1 4-2 5z m-129 4l50 50 50-50z m50 179c-109 0-197-88-197-197 0-109 88-198 197-198 109 0 198 89 198 198 0 109-89 197-198 197m0-377c-99 0-179 81-179 180 0 99 80 179 179 179 99 0 180-80 180-179 0-99-81-180-180-180"/>
<glyph glyph-name="c-music" unicode="&#57351;" d="M339 371c0 0-1-1-1-1l0 0-67 9c-1 0-3 1-4 1 0 0 0-1-1-1l0 0 0 0c-4 0-8-4-8-8l0-162c-7 5-17 9-27 9l-18 0c-25 0-45-20-45-45 0-25 20-45 45-45l18 0c25 0 45 20 45 45l0 134 60-8c1 0 2 0 3 0 0 0 1 0 1 0l0 0 0 0c5 1 8 4 8 9l0 54c0 5-4 9-9 9m-108-225l-18 0c-15 0-27 12-27 27 0 15 12 27 27 27l18 0c15 0 27-12 27-27 0-15-12-27-27-27m99 172l-54 6 0 37 54-7z m-72 133c-109 0-197-88-197-197 0-109 88-198 197-198 109 0 198 89 198 198 0 109-89 197-198 197m0-377c-99 0-179 81-179 180 0 99 80 179 179 179 99 0 180-80 180-179 0-99-81-180-180-180"/>
<glyph glyph-name="c-o" unicode="&#57352;" d="M258 326c-39 0-72-33-72-72 0-40 33-72 72-72 40 0 72 32 72 72 0 39-32 72-72 72m0-126c-30 0-54 24-54 54 0 30 24 54 54 54 30 0 54-24 54-54 0-30-24-54-54-54m0 251c-109 0-197-88-197-197 0-109 88-198 197-198 109 0 198 89 198 198 0 109-89 197-198 197m0-377c-99 0-179 81-179 180 0 99 80 179 179 179 99 0 180-80 180-179 0-99-81-180-180-180"/>
<glyph glyph-name="c-play" unicode="&#57353;" d="M345 261l0 0-2 1c0 0 0 0-1 0l-123 71 0 0c-2 1-4 2-6 2-5 0-9-4-9-9l0-144c0-5 4-9 9-9 2 0 4 1 6 2l0 0 123 70c1 1 1 1 1 1l2 1 0 0c2 2 3 4 3 7 0 3-1 5-3 7m-123-64l0 113 99-56z m36 254c-109 0-197-88-197-197 0-109 88-198 197-198 109 0 198 89 198 198 0 109-89 197-198 197m0-377c-99 0-179 81-179 180 0 99 80 179 179 179 99 0 180-80 180-179 0-99-81-180-180-180"/>
<glyph glyph-name="c-stop" unicode="&#57354;" d="M231 326l-36 0c-5 0-9-4-9-9l0-126c0-5 4-9 9-9l36 0c5 0 9 4 9 9l0 126c0 5-4 9-9 9m-9-126l-18 0 0 108 18 0z m36 251c-109 0-197-88-197-197 0-109 88-198 197-198 109 0 198 89 198 198 0 109-89 197-198 197m0-377c-99 0-179 81-179 180 0 99 80 179 179 179 99 0 180-80 180-179 0-99-81-180-180-180m63 252l-36 0c-5 0-9-4-9-9l0-126c0-5 4-9 9-9l36 0c5 0 9 4 9 9l0 126c0 5-4 9-9 9m-9-126l-18 0 0 108 18 0z"/>
<glyph glyph-name="calander" unicode="&#57355;" d="M420 415l-36 0 0 27c0 5-4 9-9 9-5 0-9-4-9-9l0-27-216 0 0 27c0 5-4 9-9 9-5 0-9-4-9-9l0-27-35 0c-20 0-36-16-36-35l0-288c0-20 16-36 36-36l323 0c20 0 36 16 36 36l0 288c0 19-16 35-36 35m18-323c0-10-8-18-18-18l-323 0c-10 0-18 8-18 18l0 216 359 0z m0 234l-359 0 0 54c0 9 8 17 18 17l35 0 0-26c0-5 4-9 9-9 5 0 9 4 9 9l0 26 216 0 0-26c0-5 4-9 9-9 5 0 9 4 9 9l0 26 36 0c10 0 18-8 18-17z m-117-207l17 0 0 145-13 0c-1-6-2-10-5-14-2-3-5-6-9-8-4-2-8-4-12-4-5-1-9-1-14-1l0-14 36 0z m-85 21c-3-3-6-5-10-6-3-1-7-2-11-2-10 0-17 3-22 9-5 6-8 13-8 23l-17 0c0-8 1-14 3-20 2-6 5-11 9-15 4-4 9-7 15-9 6-2 12-3 20-3 6 0 12 1 18 3 6 2 11 4 16 8 4 4 7 8 10 14 2 5 4 12 4 19 0 8-2 16-6 22-5 7-11 11-20 13l0 0c6 3 11 7 14 12 4 5 6 10 6 17 0 7-1 12-3 17-3 5-6 9-9 12-4 3-9 6-14 7-5 2-11 3-17 3-7 0-13-2-18-4-6-2-10-5-14-9-3-5-6-9-8-15-2-6-3-12-3-19l17 0c0 4 0 8 1 12 1 4 3 7 5 10 2 3 5 5 8 7 4 1 8 2 12 2 7 0 13-2 18-5 5-4 7-10 7-18 0-4-1-7-2-10-2-3-4-6-6-7-2-2-5-4-8-5-4-1-7-2-11-2l-5 0c-1 0-1 1-2 1l0-15c3 0 7 1 10 1 4 0 8-1 12-2 4-1 7-3 9-5 3-3 5-6 7-9 1-4 2-8 2-12 0-4-1-8-2-12-2-3-4-6-7-8"/>
<glyph glyph-name="calander-1" unicode="&#57356;" d="M303 209l-36 0 0-36 36 0z m0 63l-36 0 0-36 36 0z m0-126l-36 0 0-36 36 0z m54 126l-36 0 0-36 36 0z m54 0l-36 0 0-36 36 0z m-54-63l-36 0 0-36 36 0z m54 0l-36 0 0-36 36 0z m-162 0l-36 0 0-36 36 0z m0 63l-36 0 0-36 36 0z m0-126l-36 0 0-36 36 0z m-108 63l-35 0 0-36 35 0z m0 63l-35 0 0-36 35 0z m279 143l-36 0 0 27c0 5-4 9-9 9-5 0-9-4-9-9l0-27-216 0 0 27c0 5-4 9-9 9-5 0-9-4-9-9l0-27-35 0c-20 0-36-16-36-35l0-288c0-20 16-36 36-36l323 0c20 0 36 16 36 36l0 288c0 19-16 35-36 35m18-323c0-10-8-18-18-18l-323 0c-10 0-18 8-18 18l0 216 359 0z m0 234l-359 0 0 54c0 9 8 17 18 17l35 0 0-26c0-5 4-9 9-9 5 0 9 4 9 9l0 26 216 0 0-26c0-5 4-9 9-9 5 0 9 4 9 9l0 26 36 0c10 0 18-8 18-17z m-297-180l-35 0 0-36 35 0z m54 126l-36 0 0-36 36 0z m0-126l-36 0 0-36 36 0z m0 63l-36 0 0-36 36 0z"/>
<glyph glyph-name="calcy" unicode="&#57357;" d="M186 254l36 0 0 36-36 0z m0-54l36 0 0 36-36 0z m0-54l36 0 0 36-36 0z m54-54l36 0 0 36-36 0z m-54 0l36 0 0 36-36 0z m54 54l36 0 0 36-36 0z m-108 54l36 0 0 36-36 0z m0-108l36 0 0 36-36 0z m0 162l36 0 0 36-36 0z m0-108l36 0 0 36-36 0z m216-54l36 0 0 144-36 0z m-108 108l36 0 0 36-36 0z m-108 108l252 0 0 107-252 0z m18 89l216 0 0-71-216 0z m144-143l36 0 0 36-36 0z m90 197l-252 0c-19 0-35-16-35-36l0-323c0-20 16-36 35-36l252 0c20 0 36 16 36 36l0 323c0 20-16 36-36 36m18-359c0-10-8-18-18-18l-252 0c-9 0-17 8-17 18l0 323c0 10 8 18 17 18l252 0c10 0 18-8 18-18z m-54 162l36 0 0 36-36 0z m-54-54l36 0 0 36-36 0z m0-108l36 0 0 36-36 0z m-54 162l36 0 0 36-36 0z m54-108l36 0 0 36-36 0z"/>
<glyph glyph-name="cam-1" unicode="&#57358;" d="M213 362l90 0c5 0 9 4 9 9 0 5-4 9-9 9l-90 0c-5 0-9-4-9-9 0-5 4-9 9-9m45-72c-30 0-54-24-54-54 0-30 24-54 54-54 30 0 54 24 54 54 0 30-24 54-54 54m0-90c-20 0-36 16-36 36 0 20 16 36 36 36 20 0 36-16 36-36 0-20-16-36-36-36m0 126c-49 0-90-41-90-90 0-50 41-90 90-90 50 0 90 40 90 90 0 49-40 90-90 90m0-162c-39 0-72 32-72 72 0 39 33 72 72 72 40 0 72-33 72-72 0-40-32-72-72-72m135 108c-5 0-9-4-9-9 0-5 4-9 9-9 5 0 9 4 9 9 0 5-4 9-9 9m0 72c-15 0-27-12-27-27 0-15 12-27 27-27 15 0 27 12 27 27 0 15-12 27-27 27m0-36c-5 0-9 4-9 9 0 5 4 9 9 9 5 0 9-4 9-9 0-5-4-9-9-9m27 72l-36 0c-27 0-27 35-63 35l-126 0c-36 0-36-35-63-35l-35 0c-20 0-36-17-36-36l0-216c0-20 16-36 36-36l323 0c20 0 36 16 36 36l0 216c0 19-16 36-36 36m18-180l-78 0c-2-6-5-12-9-18l87 0 0-54c0-10-8-18-18-18l-323 0c-10 0-18 8-18 18l0 54 86 0c-3 6-6 12-8 18l-78 0 0 144c0 10 8 18 18 18l35 0c36 0 36 35 63 35l126 0c27 0 27-35 63-35l36 0c10 0 18-8 18-18z"/>
<glyph glyph-name="cam-4" unicode="&#57359;" d="M222 218c-20 0-36-16-36-36 0-20 16-36 36-36 20 0 36 16 36 36 0 20-16 36-36 36m0-54c-10 0-18 8-18 18 0 10 8 18 18 18 10 0 18-8 18-18 0-10-8-18-18-18m0 90c-39 0-72-32-72-72 0-40 33-72 72-72 40 0 72 32 72 72 0 40-32 72-72 72m0-126c-29 0-54 24-54 54 0 30 25 54 54 54 30 0 54-24 54-54 0-30-24-54-54-54m126 162l-36 0c-27 0-27 36-63 36l-54 0c-36 0-36-36-63-36l-35 0c-20 0-36-16-36-36l0-162c0-20 16-36 36-36l251 0c20 0 36 16 36 36l0 162c0 20-16 36-36 36m18-198c0-10-8-18-18-18l-251 0c-10 0-18 8-18 18l0 162c0 10 8 18 18 18l35 0c36 0 36 36 63 36l54 0c27 0 27-36 63-36l36 0c10 0 18-8 18-18z m-36 108c-5 0-9-4-9-9 0-5 4-9 9-9 5 0 9 4 9 9 0 5-4 9-9 9m108 251l-288 0c-9 0-18-8-18-18l0-89c0-5 4-9 9-9 5 0 9 4 9 9l0 89 288 0 0-215-27 0c-5 0-9-4-9-9 0-5 4-9 9-9l27 0 0-54-27 0c-5 0-9-4-9-9 0-5 4-9 9-9l27 0c10 0 18 8 18 18l0 287c0 10-8 18-18 18m-108-197c-10 0-18-8-18-18 0-10 8-18 18-18 10 0 18 8 18 18 0 10-8 18-18 18"/>
<glyph glyph-name="cam-reel" unicode="&#57360;" d="M330 200c-5 0-9-4-9-9 0-5 4-9 9-9 5 0 9 4 9 9 0 5-4 9-9 9m0 54c-10 0-18-8-18-18 0-10 8-18 18-18 10 0 18 8 18 18 0 10-8 18-18 18m18 36l-36 0c-27 0-27 36-63 36l-54 0c-36 0-36-36-63-36l-35 0c-20 0-36-16-36-36l0-162c0-20 16-36 36-36l251 0c20 0 36 16 36 36l0 162c0 20-16 36-36 36m18-198c0-10-8-18-18-18l-251 0c-10 0-18 8-18 18l0 162c0 10 8 18 18 18l35 0c36 0 36 36 63 36l54 0c27 0 27-36 63-36l36 0c10 0 18-8 18-18z m-144 126c-20 0-36-16-36-36 0-20 16-36 36-36 20 0 36 16 36 36 0 20-16 36-36 36m0-54c-10 0-18 8-18 18 0 10 8 18 18 18 10 0 18-8 18-18 0-10-8-18-18-18m0 90c-39 0-72-32-72-72 0-40 33-72 72-72 40 0 72 32 72 72 0 40-32 72-72 72m0-126c-29 0-54 24-54 54 0 30 25 54 54 54 30 0 54-24 54-54 0-30-24-54-54-54m180 234l18 0 0 18-18 0z m18 53l-18 0 0-18 18 0z m-18-251l18 0 0 18-18 0z m0 162l18 0 0 18-18 0z m18-72l-18 0 0-18 18 0z m18 197l-288 0c-9 0-18-8-18-18l0-89c0-5 4-9 9-9 5 0 9 4 9 9l0 71c0 10 8 18 18 18l36 0 0-80c0-5 4-9 9-9 5 0 9 4 9 9l0 80 144 0 0-116c0-5 4-9 9-9 5 0 9 4 9 9l0 116 36 0c10 0 18-8 18-18l0-116-27 0c-5 0-9-4-9-9 0-5 4-9 9-9l27 0 0-117c0-10-8-18-18-18l-9 0c-5 0-9-4-9-9 0-5 4-9 9-9l0 0 9 0 0 0 18 0c10 0 18 8 18 18l0 287c0 10-8 18-18 18m-252-36l-18 0 0-18 18 0z m216-215l18 0 0 18-18 0z m-234 162l18 0 0 18-18 0z"/>
<glyph glyph-name="cam-reel-1" unicode="&#57361;" d="M258 254c-39 0-72-32-72-72 0-40 33-72 72-72 40 0 72 32 72 72 0 40-32 72-72 72m0-126c-30 0-54 24-54 54 0 30 24 54 54 54 30 0 54-24 54-54 0-30-24-54-54-54m180 323l-359 0c-10 0-18-8-18-18l0-269c0-10 8-18 18-18l18 0 0-54c0-20 16-36 35-36l252 0c20 0 36 16 36 36l0 54 18 0c10 0 18 8 18 18l0 269c0 10-8 18-18 18m-36-359c0-10-8-18-18-18l-252 0c-9 0-17 8-17 18l0 162c0 10 8 18 17 18l36 0c36 0 36 36 63 36l54 0c27 0 27-36 63-36l36 0c10 0 18-8 18-18z m36 72l-18 0 0 90c0 20-16 36-36 36l-36 0c-27 0-27 36-63 36l-54 0c-36 0-36-36-63-36l-36 0c-19 0-35-16-35-36l0-90-18 0 0 269 359 0z m-303 146c2-1 4-2 6-2 5 0 9 4 9 9 0 2-1 4-2 6l-21 21 68 0c5 0 9 4 9 9 0 5-4 9-9 9l-68 0 21 20c1 2 2 4 2 7 0 4-4 8-9 8-2 0-4-1-6-2l-36-36c-1-2-2-4-2-6 0-3 1-5 2-7z m123-92c-20 0-36-16-36-36 0-20 16-36 36-36 20 0 36 16 36 36 0 20-16 36-36 36m0-54c-10 0-18 8-18 18 0 10 8 18 18 18 10 0 18-8 18-18 0-10-8-18-18-18m63 180l68 0-20-21c-2-2-3-4-3-6 0-5 4-9 9-9 2 0 5 1 6 2l36 36c2 2 3 4 3 7 0 2-1 4-3 6l-36 36c-1 1-4 2-6 2-5 0-9-4-9-8 0-3 1-5 3-7l20-20-68 0c-5 0-9-4-9-9 0-5 4-9 9-9m45-90c-10 0-18-8-18-18 0-10 8-18 18-18 10 0 18 8 18 18 0 10-8 18-18 18m0-54c-5 0-9-4-9-9 0-5 4-9 9-9 5 0 9 4 9 9 0 5-4 9-9 9"/>
<glyph glyph-name="cams" unicode="&#57362;" d="M222 254c-39 0-72-32-72-72 0-40 33-72 72-72 40 0 72 32 72 72 0 40-32 72-72 72m0-126c-29 0-54 24-54 54 0 30 25 54 54 54 30 0 54-24 54-54 0-30-24-54-54-54m108 72c-5 0-9-4-9-9 0-5 4-9 9-9 5 0 9 4 9 9 0 5-4 9-9 9m0 54c-10 0-18-8-18-18 0-10 8-18 18-18 10 0 18 8 18 18 0 10-8 18-18 18m-108-36c-20 0-36-16-36-36 0-20 16-36 36-36 20 0 36 16 36 36 0 20-16 36-36 36m0-54c-10 0-18 8-18 18 0 10 8 18 18 18 10 0 18-8 18-18 0-10-8-18-18-18m189 153c0 5-4 9-9 9-5 0-9-4-9-9 0-5 4-9 9-9 5 0 9 4 9 9m9 45c0 9-8 18-18 18-10 0-18-9-18-18 0-10 8-18 18-18 10 0 18 8 18 18m-72-72l-36 0c-27 0-27 36-63 36l-54 0c-36 0-36-36-63-36l-35 0c-20 0-36-16-36-36l0-162c0-20 16-36 36-36l251 0c20 0 36 16 36 36l0 162c0 20-16 36-36 36m18-198c0-10-8-18-18-18l-251 0c-10 0-18 8-18 18l0 162c0 10 8 18 18 18l35 0c36 0 36 36 63 36l54 0c27 0 27-36 63-36l36 0c10 0 18-8 18-18z m54 323l-36 0c-27 0-27 36-63 36l-54 0c-36 0-36-36-63-36l-36 0c-19 0-36-16-36-35l0-72c4 0 6 1 13 10 2 1 4 3 5 5l0 57c0 9 8 17 18 17l36 0c36 0 36 36 63 36l54 0c27 0 27-36 63-36l36 0c10 0 18-8 18-17l0-162c0-10-8-18-18-18l-18 0 0-18 18 0c20 0 36 16 36 36l0 162c0 19-16 35-36 35m-145-77c7-3 13-8 17-13 1 0 1 1 2 1 10 0 18-8 18-18l18 0c0 20-16 36-36 36-7 0-13-3-19-6m73-30c6 0 12-2 18-4 0 2 0 3 0 4 0 39-32 72-72 72-26 0-50-15-62-36l17 0c2 0 3-1 5-1 10 11 24 19 40 19 30 0 54-25 54-54"/>
<glyph glyph-name="cancel-c" unicode="&#57363;" d="M347 362l-24 0-65-91-63 91-25 0 75-105-79-111 23 0 69 95 67-95 26 0-80 111z m-89 89c-109 0-197-88-197-197 0-109 88-198 197-198 109 0 198 89 198 198 0 109-89 197-198 197m0-377c-99 0-179 81-179 180 0 99 80 179 179 179 99 0 180-80 180-179 0-99-81-180-180-180"/>
<glyph glyph-name="capsul" unicode="&#57364;" d="M231 236c-5 0-9-4-9-9 0-5 4-9 9-9 5 0 9 4 9 9 0 5-4 9-9 9m-18 45c-5 0-9-4-9-9 0-5 4-9 9-9 5 0 9 4 9 9 0 5-4 9-9 9m-27-27c-5 0-9-4-9-9 0-5 4-9 9-9 5 0 9 4 9 9 0 5-4 9-9 9m54 36c5 0 9 4 9 9 0 5-4 9-9 9-5 0-9-4-9-9 0-5 4-9 9-9m9-99c-5 0-9-4-9-9 0-5 4-9 9-9 5 0 9 4 9 9 0 5-4 9-9 9m9 72c-5 0-9-4-9-9 0-5 4-9 9-9 5 0 9 4 9 9 0 5-4 9-9 9m27 9c5 0 9 4 9 9 0 5-4 9-9 9-5 0-9-4-9-9 0-5 4-9 9-9m18-45c5 0 9 4 9 9 0 5-4 9-9 9-5 0-9-4-9-9 0-5 4-9 9-9m-45 99c0-5 4-9 9-9 5 0 9 4 9 9 0 5-4 9-9 9-5 0-9-4-9-9m198 36c0 49-40 89-90 89-20 0-39-6-54-18l-1 1-8-9-1 0-215-216c-16-16-26-38-26-63 0-50 40-90 89-90 25 0 48 10 64 26l216 216 0 0 9 9-1 1c11 15 18 33 18 54m-255-267c-13-13-31-21-51-21-39 0-71 32-71 72 0 20 8 38 21 51l34 34 101-102z m47 47l-102 102 122 122 102-102z m177 179l1-1-9-9 0 0-34-34-102 101 34 34c0 0 0 0 0 0l9 9 1 0c12 8 26 12 41 12 40 0 72-32 72-71 0-16-5-30-13-41m-95-67c5 0 9 4 9 9 0 5-4 9-9 9-5 0-9-4-9-9 0-5 4-9 9-9m-54-36c-5 0-9-4-9-9 0-5 4-9 9-9 5 0 9 4 9 9 0 5-4 9-9 9"/>
<glyph glyph-name="capsul-1" unicode="&#57365;" d="M384 326l-252 0c-39 0-71-33-71-72 0-40 32-72 71-72l252 0c40 0 72 32 72 72 0 39-32 72-72 72m-252-72c-9 0-17 8-17 18 0 10 8 18 17 18 10 0 18-8 18-18 0-10-8-18-18-18m45-18c-5 0-9 4-9 9 0 5 4 9 9 9 5 0 9-4 9-9 0-5-4-9-9-9m207-36l-117 0 0 108 117 0c30 0 54-24 54-54 0-30-24-54-54-54"/>
<glyph glyph-name="caret-down" unicode="&#57366;" d="M456 353c0 5-4 9-9 9l-377 0c-5 0-9-4-9-9 0-3 1-5 2-7l0 0 189-197 0 0c1-2 4-3 6-3 3 0 5 1 7 3l0 0 188 197 0 0c2 2 3 4 3 7m-198-185l-167 176 335 0z"/>
<glyph glyph-name="caret-left" unicode="&#57367;" d="M357 451c-2 0-5-1-6-2l0 0-198-189 0 0c-1-1-3-4-3-6 0-3 2-5 3-7l0 0 198-188 0 0c1-2 4-3 6-3 5 0 9 4 9 9l0 377c0 5-4 9-9 9m-9-365l-176 168 176 167z"/>
<glyph glyph-name="caret-right" unicode="&#57368;" d="M366 254c0 2-1 5-3 6l0 0-197 189 0 0c-2 1-4 2-7 2-5 0-9-4-9-9l0-377c0-5 4-9 9-9 3 0 5 1 7 3l0 0 197 188 0 0c2 2 3 4 3 7m-198-168l0 335 176-167z"/>
<glyph glyph-name="caret-up" unicode="&#57369;" d="M453 161l0 0-188 198 0 0c-2 1-4 3-7 3-2 0-5-2-6-3l0 0-189-198 0 0c-1-1-2-4-2-6 0-5 4-9 9-9l377 0c5 0 9 4 9 9 0 2-1 5-3 6m-362 3l167 176 168-176z"/>
<glyph glyph-name="cart-left" unicode="&#57370;" d="M231 380l104 0-20-21c-2-2-3-4-3-6 0-5 4-9 9-9 3 0 5 1 6 2l36 36c2 2 3 4 3 7 0 2-1 4-3 6l-36 36c-1 1-3 2-6 2-5 0-9-4-9-9 0-2 1-4 3-6l20-21-104 0c-5 0-9-4-9-8 0-5 4-9 9-9m189-245l0 0 36 162-1 0c1 0 1 1 1 2 0 5-4 9-9 9l-288 0-13 47 0 0c-1 4-4 7-8 7l-68 0c-5 0-9-4-9-9 0-5 4-9 9-9l61 0 56-210 0 0c1-2 2-4 5-5-4-6-6-12-6-19 0-20 16-36 36-36 20 0 36 16 36 36 0 7-2 13-5 18l100 0c-3-5-5-11-5-18 0-20 16-36 36-36 20 0 36 16 36 36 0 7-2 13-5 19 2 1 4 3 5 6m-37 155l53 0-8-36-49 0z m-219 0l59 0 4-36-54 0z m24-90l-10 36 51 0 4-36z m5-18l42 0 4-36-37 0z m29-90c-10 0-18 8-18 18 0 10 8 18 18 18 10 0 18-8 18-18 0-10-8-18-18-18m72 54l-37 0-4 36 41 0z m0 54l-43 0-4 36 47 0z m0 54l-49 0-4 36 53 0z m55-108l-37 0 0 36 41 0z m6 54l-43 0 0 36 47 0z m6 54l-49 0 0 36 53 0z m23-162c-10 0-18 8-18 18 0 10 8 18 18 18 10 0 18-8 18-18 0-10-8-18-18-18m20 54l-37 0 4 36 41 0z m-31 54l4 36 47 0-8-36z"/>
<glyph glyph-name="cart-minus" unicode="&#57371;" d="M258 393l90 0c5 0 9 4 9 9 0 5-4 9-9 9l-90 0c-5 0-9-4-9-9 0-5 4-9 9-9m162-236l0 0 36 162-1 0c1 1 1 1 1 2 0 5-4 9-9 9l-288 0-13 48 0 0c-1 3-4 6-8 6l-68 0c-5 0-9-4-9-9 0-5 4-9 9-9l61 0 56-209 0 0c1-3 2-5 5-6-4-5-6-12-6-18 0-20 16-36 36-36 20 0 36 16 36 36 0 6-2 12-5 17l100 0c-3-5-5-11-5-17 0-20 16-36 36-36 20 0 36 16 36 36 0 6-2 13-6 18 3 1 5 4 6 6m-37 155l53 0-8-36-49 0z m-219 0l59 0 4-36-54 0z m24-90l-10 36 51 0 4-36z m5-18l42 0 4-36-37 0z m29-89c-10 0-18 8-18 18 0 9 8 17 18 17 10 0 18-8 18-17 0-10-8-18-18-18m72 53l-37 0-4 36 41 0 0-36z m0 54l-43 0-4 36 47 0 0-36z m0 54l-49 0-4 36 53 0 0-36z m55-108l-37 0 0 36 41 0z m6 54l-43 0 0 36 47 0z m6 54l-49 0 0 36 53 0z m23-161c-10 0-18 8-18 18 0 9 8 17 18 17 10 0 18-8 18-17 0-10-8-18-18-18m20 53l-37 0 4 36 41 0z m-31 54l4 36 47 0-8-36z"/>
<glyph glyph-name="cart-plus" unicode="&#57372;" d="M258 371l36 0 0-36c0-5 4-9 9-9 5 0 9 4 9 9l0 36 36 0c5 0 9 4 9 9 0 5-4 9-9 9l-36 0 0 35c0 5-4 9-9 9-5 0-9-4-9-9l0-35-36 0c-5 0-9-4-9-9 0-5 4-9 9-9m162-236l0 0 36 162-1 0c1 0 1 1 1 2 0 5-4 9-9 9l-288 0-13 47 0 0c-1 4-4 7-8 7l-68 0c-5 0-9-4-9-9 0-5 4-9 9-9l61 0 56-210 0 0c1-2 2-4 5-5-4-6-6-12-6-19 0-20 16-36 36-36 20 0 36 16 36 36 0 7-2 13-5 18l100 0c-3-5-5-11-5-18 0-20 16-36 36-36 20 0 36 16 36 36 0 7-2 13-5 19 2 1 4 3 5 6m-37 155l53 0-8-36-49 0z m-219 0l59 0 4-36-54 0z m24-90l-10 36 51 0 4-36z m5-18l42 0 4-36-37 0z m29-90c-10 0-18 8-18 18 0 10 8 18 18 18 10 0 18-8 18-18 0-10-8-18-18-18m72 54l-37 0-4 36 41 0z m0 54l-43 0-4 36 47 0z m0 54l-49 0-4 36 53 0z m55-108l-37 0 0 36 41 0z m6 54l-43 0 0 36 47 0z m6 54l-49 0 0 36 53 0z m23-162c-10 0-18 8-18 18 0 10 8 18 18 18 10 0 18-8 18-18 0-10-8-18-18-18m20 54l-37 0 4 36 41 0z m-31 54l4 36 47 0-8-36z"/>
<glyph glyph-name="cart-right" unicode="&#57373;" d="M261 346c1-1 4-2 6-2 5 0 9 4 9 9 0 2-1 4-2 6l-21 21 104 0c5 0 9 4 9 9 0 4-4 8-9 8l-104 0 21 21c1 2 2 4 2 6 0 5-4 9-9 9-2 0-5-1-6-2l-36-36c-2-2-3-4-3-6 0-3 1-5 3-7z m159-211l0 0 36 162-1 0c1 0 1 1 1 2 0 5-4 9-9 9l-288 0-13 47 0 0c-1 4-4 7-8 7l-68 0c-5 0-9-4-9-9 0-5 4-9 9-9l61 0 56-210 0 0c1-2 2-4 5-5-4-6-6-12-6-19 0-20 16-36 36-36 20 0 36 16 36 36 0 7-2 13-5 18l100 0c-3-5-5-11-5-18 0-20 16-36 36-36 20 0 36 16 36 36 0 7-2 13-5 19 2 1 4 3 5 6m-37 155l53 0-8-36-49 0z m-219 0l59 0 4-36-54 0z m24-90l-10 36 51 0 4-36z m5-18l42 0 4-36-37 0z m29-90c-10 0-18 8-18 18 0 10 8 18 18 18 10 0 18-8 18-18 0-10-8-18-18-18m72 54l-37 0-4 36 41 0z m0 54l-43 0-4 36 47 0z m0 54l-49 0-4 36 53 0z m55-108l-37 0 0 36 41 0z m6 54l-43 0 0 36 47 0z m6 54l-49 0 0 36 53 0z m23-162c-10 0-18 8-18 18 0 10 8 18 18 18 10 0 18-8 18-18 0-10-8-18-18-18m20 54l-37 0 4 36 41 0z m-31 54l4 36 47 0-8-36z"/>
<glyph glyph-name="cell" unicode="&#57374;" d="M258 83c5 0 9 4 9 9 0 5-4 9-9 9-5 0-9-4-9-9 0-5 4-9 9-9m72 368l-144 0c-19 0-36-16-36-36l0-323c0-20 17-36 36-36l144 0c20 0 36 16 36 36l0 323c0 20-16 36-36 36m18-359c0-10-8-18-18-18l-144 0c-10 0-18 8-18 18l0 18 180 0z m0 36l-180 0 0 252 180 0z m0 269l-180 0 0 18c0 10 8 18 18 18l144 0c10 0 18-8 18-18z m-81 27l-18 0c-5 0-9-4-9-9 0-5 4-9 9-9l18 0c5 0 9 4 9 9 0 5-4 9-9 9"/>
<glyph glyph-name="check" unicode="&#57375;" d="M456 380c0 4-4 9-9 9-3 0-5-2-7-3l0 0-236-245-128 128c-2 2-4 3-6 3-5 0-9-4-9-9 0-3 1-5 2-7l135-134c2-2 4-3 6-3 3 0 5 1 7 3l0 0 242 251 0 0c2 2 3 4 3 7"/>
<glyph glyph-name="check-1" unicode="&#57376;" d="M456 380c0 4-4 9-9 9-3 0-5-2-7-3l0 0-236-245-128 128c-2 2-4 3-6 3-5 0-9-4-9-9 0-3 1-5 2-7l135-134c2-2 4-3 6-3 3 0 5 1 7 3l0 0 242 251 0 0c2 2 3 4 3 7"/>
<glyph glyph-name="check-c" unicode="&#57377;" d="M258 204l-83 83c-2 2-4 3-7 3-5 0-9-4-9-9 0-3 1-5 3-7l90-89c2-2 4-3 6-3 3 0 5 1 7 3l0 0 150 157c0 0 0 0 0 0l13 13c0 0 0 0 0 0l25 27 0 0c2 2 3 4 3 7 0 4-4 8-9 8-3 0-5-1-7-2l0 0-23-24c0 0 0 0 0 0l-12-14c0 0 0 0 0 0z m182 126c-4 3-9 3-13-1-2-2-3-6-2-9l0 0c8-20 13-43 13-66 0-99-81-180-180-180-99 0-179 81-179 180 0 99 80 179 179 179 51 0 97-21 129-55l1 1c3-4 9-4 12 0 3 3 3 9 0 13-1 0-1 0-1 0-36 37-86 59-141 59-109 0-197-88-197-197 0-109 88-198 197-198 109 0 198 89 198 198 0 25-5 49-14 72 0 1-1 2-2 4"/>
<glyph glyph-name="check-c-1" unicode="&#57378;" d="M258 204l-83 83c-2 2-4 3-7 3-5 0-9-4-9-9 0-3 1-5 3-7l90-89c2-2 4-3 6-3 3 0 5 1 7 3l0 0 150 157c0 0 0 0 0 0l13 13c0 0 0 0 0 0l25 27 0 0c2 2 3 4 3 7 0 4-4 8-9 8-3 0-5-1-7-2l0 0-23-24c0 0 0 0 0 0l-12-14c0 0 0 0 0 0z m182 126c-4 3-9 3-13-1-2-2-3-6-2-9l0 0c8-20 13-43 13-66 0-99-81-180-180-180-99 0-179 81-179 180 0 99 80 179 179 179 51 0 97-21 129-55l1 1c3-4 9-4 12 0 3 3 3 9 0 13-1 0-1 0-1 0-36 37-86 59-141 59-109 0-197-88-197-197 0-109 88-198 197-198 109 0 198 89 198 198 0 25-5 49-14 72 0 1-1 2-2 4"/>
<glyph glyph-name="checkboxes1" unicode="&#57379;" d="M58 505c-3-1-5-3-5-6l0-486c0-3 3-6 6-6l394 0c3 0 6 3 6 6l0 486c0 3-3 6-6 6l-394 0c0 0 0 0-1 0z m7-12l382 0 0-474-382 0z m39-52c-2 0-4-3-4-6l0-69c0-3 2-6 6-6l92 0c3 0 6 3 6 6l0 69c0 4-3 6-6 6l-92 0c-1 0-1 0-2 0z m7-11l81 0 0-58-81 0z m144-24c-3 0-6-3-5-6 0-3 3-5 6-5l150 0c4 0 6 2 6 6 0 3-2 5-5 5 0 0-1 0-1 0l-150 0c0 0-1 0-1 0z m-151-110c-2 0-4-2-4-5l0-70c0-3 2-5 6-5l92 0c3 0 6 2 6 5l0 70c0 3-3 5-6 5l-92 0c-1 1-1 1-2 0z m7-11l81 0 0-58-81 0z m144-23c-3-1-6-3-5-7 0-3 3-5 6-5l150 0c4 0 6 3 6 6 0 3-2 6-5 6 0 0-1 0-1 0l-150 0c0 0-1 0-1 0z m-28-69c-2-1-3-1-4-3l-61-77-13 9c-2 2-6 1-8-2-2-2-1-6 2-8l17-11c3-2 6-1 8 1l64 81c2 3 1 6-1 8-1 1-3 2-4 2z m-122-41c-3 0-5-3-5-6l0-69c0-4 2-6 6-6l92 0c3 0 6 2 6 6l0 23c0 3-3 6-6 6-3 0-6-3-6-6 0 0 0 0 0 0l0-18-81 0 0 58 41 0c3 0 6 3 6 6 0 3-3 6-6 6 0 0 0 0 0 0l-46 0c-1 0-1 0-1 0z m150-35c-3 0-6-3-5-6 0-3 3-6 6-5l150 0c4-1 6 2 6 5 0 3-2 6-5 6 0 0-1 0-1 0l-150 0c0 0-1 0-1 0z"/>
<glyph glyph-name="chrom" unicode="&#57380;" d="M258 451c-109 0-197-88-197-197 0-109 88-198 197-198 109 0 198 89 198 198 0 109-89 197-198 197m0-18c67 0 125-36 156-89l-156 0c-46 0-84-35-89-79l-55 95c33 45 85 73 144 73m-64-212c-5 10-8 21-8 33 0 39 33 72 72 72 40 0 72-33 72-72 0-40-32-72-72-72-27 0-50 15-63 37l0 0z m44-146c-90 10-159 86-159 179 0 33 8 63 24 90l76-132c15-28 45-48 79-48 13 0 25 3 36 7z m20-1l78 135 0 0c8 13 12 29 12 45 0 29-14 55-36 72l111 0c9-22 15-47 15-72 0-99-81-180-180-180"/>
<glyph glyph-name="circle-in" unicode="&#57381;" d="M186 272c-5 0-9-4-9-9 0-3 1-5 3-7l72-71c2-2 4-3 6-3 3 0 5 1 7 3l71 71c2 2 3 4 3 7 0 5-4 9-9 9-2 0-5-1-6-3l-57-56 0 229c0 5-4 9-9 9-5 0-9-4-9-9l0-229-56 56c-2 2-4 3-7 3m112 175c-1 1-2 1-4 1-5 0-9-4-9-9 0-5 4-9 9-9l0 0c82-17 144-89 144-176 0-99-81-180-180-180-99 0-179 81-179 180 0 87 61 159 143 176l0 0c5 0 9 4 9 9 0 5-4 9-9 9-1 0-2 0-4-1-90-18-157-98-157-193 0-109 88-198 197-198 109 0 198 89 198 198 0 95-68 175-158 193"/>
<glyph glyph-name="circute" unicode="&#57382;" d="M258 433c-109 0-197-80-197-179 0-99 88-180 197-180 109 0 198 81 198 180 0 99-89 179-198 179m0-341c-62 0-117 29-149 72l134 0c9-19 42-45 65-45 27 0 49 18 49 54 0 36-22 54-49 54-23 0-56-26-65-45l-146 0c-12 22-18 46-18 72 0 26 6 50 18 72l146 0c9-19 42-45 65-45 27 0 49 18 49 54 0 36-22 54-49 54-23 0-56-26-65-45l-134 0c32 43 87 71 149 71 96 0 174-67 179-152l-181 0c-10 18-42 45-65 45-27 0-50-18-50-54 0-36 23-54 50-54 23 0 56 26 65 45l181 0c-5-85-83-153-179-153"/>
<glyph glyph-name="close" unicode="&#57383;" d="M315 255l177 176c16 16 16 43 0 58-17 16-43 16-58 0l-177-176-179 177c-16 17-42 17-58 0-16-16-16-43 0-58l177-175-177-177c-16-17-16-43 0-58 9-9 20-13 29-13 11 0 21 4 29 13l179 175 177-175c8-9 19-13 29-13 11 0 20 4 29 13 16 16 16 43 0 58z"/>
<glyph glyph-name="close2" unicode="&#57384;" d="M276 256l232 223c2 3 4 6 4 10 0 7-6 14-14 14-4 0-8-2-10-4l-232-224-232 224c-2 2-6 4-10 4-8 0-14-7-14-14 0-4 2-7 4-10l232-223-232-223c-2-3-4-6-4-10 0-7 6-14 14-14 4 0 8 2 10 4l232 224 232-224c2-2 6-4 10-4 8 0 14 7 14 14 0 4-2 7-4 10z"/>
<glyph glyph-name="cloud" unicode="&#57385;" d="M402 282c0 3 0 5 0 8 0 59-48 107-108 107-41 0-77-23-95-57-7 2-14 4-22 4-34 0-62-29-62-63 0-5 0-9 1-13-32-11-55-41-55-77 0-45 36-81 80-81l225 0c50 0 90 40 90 90 0 37-23 69-54 82m-36-154l-225 0c-34 0-62 28-62 63 0 27 17 51 43 60l15 5-4 15c0 3-1 7-1 10 0 24 21 45 45 45 5 0 11-1 16-3l14-5 8 13c15 30 46 49 79 49 50 0 90-41 90-90 0-2 0-3 0-5l0-1-1-13 11-5c27-12 44-37 44-66 0-40-32-72-72-72"/>
<glyph glyph-name="cloud-1" unicode="&#57386;" d="M402 278c0 1 0 2 0 3 0 29-24 54-54 54-14 0-26-5-35-14-20 30-53 50-91 50-54 0-98-40-106-92-32-8-55-36-55-70 0-40 32-72 71-72l252 0c40 0 72 32 72 72 0 33-23 61-54 69m-18-123l-252 0c-29 0-53 24-53 54 0 25 17 46 41 52 7 2 13 8 14 15 6 44 44 77 88 77 31 0 59-16 76-41 2-5 7-8 12-9 1 0 2 0 3 0 4 0 8 2 11 5 7 5 15 9 24 9 20 0 36-16 36-36l0-2c-1-8 5-16 13-18 24-6 41-28 41-52 0-30-24-54-54-54"/>
<glyph glyph-name="cloud-download" unicode="&#57387;" d="M312 128c-2 0-5-1-6-3l-39-38 0 212c0 5-4 9-9 9-5 0-9-4-9-9l0-212-38 38c-2 2-4 3-7 3-5 0-9-4-9-9 0-2 1-5 3-6l54-54c2-2 4-3 6-3 3 0 5 1 7 3l53 54c2 1 3 4 3 6 0 5-4 9-9 9m90 208c0 3 0 5 0 8 0 59-48 107-108 107-41 0-77-23-95-57-7 2-14 4-22 4-34 0-62-29-62-63 0-5 0-9 1-14-32-10-55-40-55-76 0-45 36-81 80-81l81 0c5 0 9 4 9 9 0 5-4 9-9 9l-81 0c-34 0-62 28-62 63 0 27 17 51 43 59l15 5-4 16c0 3-1 7-1 10 0 24 21 45 45 45 6 0 11-1 16-3l14-6 8 14c15 30 46 48 79 48 50 0 90-40 90-89 0-2 0-4 0-5l0-2-1-12 11-5c27-12 44-38 44-66 0-40-32-72-72-72l-72 0c-5 0-9-4-9-9 0-5 4-9 9-9l72 0c50 0 90 40 90 90 0 37-23 68-54 82"/>
<glyph glyph-name="cloud-moon" unicode="&#57388;" d="M419 226c22 20 37 49 37 82 0 59-48 107-108 107-54 0-99-39-106-91-7 1-13 2-20 2-54 0-98-40-106-92-32-8-55-36-55-70 0-40 32-72 71-72l252 0c40 0 72 32 72 72 0 27-15 50-37 62m-71 171c50 0 90-40 90-89 0-30-14-56-36-72 0 30-24 54-54 54-14 0-26-5-35-14-13 20-32 35-54 43 6 44 43 78 89 78m36-287l-252 0c-29 0-53 24-53 54 0 25 17 47 41 52 7 2 13 8 14 15 6 44 44 77 88 77 31 0 50-7 67-32 2-5 16-17 21-17 1-1 3-1 3-1 4 0 8 2 11 5 7 6 15 9 24 9 20 0 36-16 36-36l0-2c-1-8 5-16 13-18 24-6 41-27 41-52 0-30-24-54-54-54"/>
<glyph glyph-name="cloud-rain" unicode="&#57389;" d="M402 341c0 1 0 2 0 3 0 29-24 53-54 53-14 0-26-5-35-13-20 30-53 49-91 49-54 0-98-39-106-91-32-8-55-36-55-70 0-40 32-72 71-72l252 0c40 0 72 32 72 72 0 33-23 61-54 69m-18-123l-252 0c-29 0-53 24-53 54 0 25 17 46 41 52 7 2 13 8 14 15 6 44 44 76 88 76 31 0 50-6 67-32 2-4 16-16 21-17 1 0 3 0 3 0 4 0 8 2 11 5 7 5 15 9 24 9 20 0 36-17 36-37l0-1c-1-8 5-16 13-18 24-6 41-28 41-52 0-30-24-54-54-54m-144-72c0-10 8-18 18-18 10 0 18 8 18 18 0 18-18 36-18 36 0 0-18-18-18-36m-90-54c0-10 8-18 18-18 10 0 18 8 18 18 0 18-18 36-18 36 0 0-18-18-18-36m180 18c0-10 8-18 18-18 10 0 18 8 18 18 0 18-18 36-18 36 0 0-18-18-18-36"/>
<glyph glyph-name="cloud-rain-1" unicode="&#57390;" d="M240 155c0 5-4 9-9 9-2 0-4-1-6-3l-54-54c-2-1-3-3-3-6 0-5 4-9 9-9 3 0 5 1 7 3l54 54c1 1 2 3 2 6m-54 0c0 5-4 9-9 9-2 0-4-1-6-3l-54-54c-1-1-2-3-2-6 0-5 4-9 8-9 3 0 5 1 7 3l54 54c1 1 2 3 2 6m108 0c0 5-4 9-9 9-2 0-5-1-6-3l-54-54c-2-1-3-3-3-6 0-5 4-9 9-9 3 0 5 1 7 3l54 54c1 1 2 3 2 6m45 9c-2 0-5-1-6-3l-54-54c-2-1-3-3-3-6 0-5 4-9 9-9 3 0 5 1 7 3l53 54c2 1 3 3 3 6 0 5-4 9-9 9m63 159c0 1 0 2 0 3 0 29-24 54-54 54-14 0-26-6-35-14-20 30-53 49-91 49-54 0-98-39-106-91-32-8-55-36-55-70 0-40 32-72 71-72l252 0c40 0 72 32 72 72 0 33-23 61-54 69m-18-123l-252 0c-29 0-53 24-53 54 0 25 17 46 41 52 7 2 13 8 14 15 6 44 44 76 88 76 31 0 50-6 67-32 2-4 16-16 21-17 1 0 3 0 3 0 4 0 8 2 11 5 7 5 15 9 24 9 20 0 36-17 36-37l0-1c-1-8 5-16 13-18 24-6 41-28 41-52 0-30-24-54-54-54"/>
<glyph glyph-name="cloud-rain-2" unicode="&#57391;" d="M231 146c-5 0-9-4-9-9l0-54c0-5 4-9 9-9 5 0 9 4 9 9l0 54c0 5-4 9-9 9m54 18c-5 0-9-4-9-9l0-54c0-5 4-9 9-9 5 0 9 4 9 9l0 54c0 5-4 9-9 9m-162 18c-4 0-8-4-8-9l0-54c0-5 4-9 8-9 5 0 9 4 9 9l0 54c0 5-4 9-9 9m54-18c-5 0-9-4-9-9l0-36c0-5 4-9 9-9 5 0 9 4 9 9l0 36c0 5-4 9-9 9m225 177c0 1 0 2 0 3 0 29-24 53-54 53-14 0-26-5-35-13-20 30-53 49-91 49-54 0-98-39-106-91-32-8-55-36-55-70 0-40 32-72 71-72l252 0c40 0 72 32 72 72 0 33-23 61-54 69m-18-123l-252 0c-29 0-53 24-53 54 0 25 17 46 41 52 7 2 13 8 14 15 6 44 44 76 88 76 31 0 50-6 67-32 2-4 16-16 21-17 1 0 3 0 3 0 4 0 8 2 11 5 7 5 15 9 24 9 20 0 36-17 36-37l0-1c-1-8 5-16 13-18 24-6 41-28 41-52 0-30-24-54-54-54m-45-36c-5 0-9-4-9-9l0-54c0-5 4-9 9-9 5 0 9 4 9 9l0 54c0 5-4 9-9 9m54 0c-5 0-9-4-9-9l0-36c0-5 4-9 9-9 5 0 9 4 9 9l0 36c0 5-4 9-9 9"/>
<glyph glyph-name="cloud-rain-3" unicode="&#57392;" d="M204 200c-10 0-18-8-18-18 0-10 8-18 18-18 10 0 18 8 18 18 0 10-8 18-18 18m-54-90c-9 0-18-8-18-18 0-10 9-18 18-18 10 0 18 8 18 18 0 10-8 18-18 18m-35 54c-10 0-18-8-18-18 0-10 8-18 18-18 9 0 17 8 17 18 0 10-8 18-17 18m143-36c-10 0-18-8-18-18 0-10 8-18 18-18 10 0 18 8 18 18 0 10-8 18-18 18m90 36c0 10-8 18-18 18-10 0-18-8-18-18 0-10 8-18 18-18 10 0 18 8 18 18m54 195c0 1 0 2 0 3 0 29-24 53-54 53-14 0-26-5-35-13-20 30-53 49-91 49-54 0-98-39-106-91-32-8-55-36-55-70 0-40 32-72 71-72l252 0c40 0 72 32 72 72 0 33-23 61-54 69m-18-123l-252 0c-29 0-53 24-53 54 0 25 17 46 41 52 7 2 13 8 14 15 6 44 44 76 88 76 31 0 50-6 67-32 2-4 16-16 21-17 1 0 3 0 3 0 4 0 8 2 11 5 7 5 15 8 24 8 20 0 36-16 36-36l0-1c-1-8 5-16 13-18 24-6 41-28 41-52 0-30-24-54-54-54m18-90c-10 0-18-8-18-18 0-10 8-18 18-18 10 0 18 8 18 18 0 10-8 18-18 18m-54-54c-10 0-18-8-18-18 0-10 8-18 18-18 10 0 18 8 18 18 0 10-8 18-18 18"/>
<glyph glyph-name="cloud-rain-4" unicode="&#57393;" d="M276 173c0 5-4 9-9 9-2 0-5-1-6-3l-54-54c-2-1-3-3-3-6 0-5 4-9 9-9l33 0-39-39c-2-1-3-3-3-6 0-5 4-9 9-9 3 0 5 1 7 3l54 54c1 1 2 4 2 6 0 5-4 9-9 9l-32 0 39 39c1 1 2 3 2 6m-99-9c-2 0-4-1-6-3l-54-54c-1-1-2-3-2-6 0-5 4-9 8-9 3 0 5 1 7 3l54 54c1 1 2 3 2 6 0 5-4 9-9 9m225 195c0 1 0 2 0 3 0 29-24 53-54 53-14 0-26-5-35-13-20 30-53 49-91 49-54 0-98-39-106-91-32-8-55-36-55-70 0-40 32-72 71-72l252 0c40 0 72 32 72 72 0 33-23 61-54 69m-18-123l-252 0c-29 0-53 24-53 54 0 25 17 46 41 52 7 2 13 8 14 15 6 44 44 76 88 76 31 0 50-6 67-32 2-4 16-16 21-17 1 0 3 0 3 0 4 0 8 2 11 5 7 5 15 8 24 8 20 0 36-16 36-36l0-1c-1-8 5-16 13-18 24-6 41-28 41-52 0-30-24-54-54-54m-18-72c-2 0-5-1-6-3l-54-54c-2-1-3-3-3-6 0-5 4-9 9-9 3 0 5 1 6 3l54 54c2 1 3 3 3 6 0 5-4 9-9 9"/>
<glyph glyph-name="cloud-rain-5" unicode="&#57394;" d="M276 173c0 5-4 9-9 9-2 0-5-1-6-3l-54-54c-2-1-3-3-3-6 0-5 4-9 9-9l33 0-39-39c-2-1-3-3-3-6 0-5 4-9 9-9 3 0 5 1 7 3l54 54c1 1 2 4 2 6 0 5-4 9-9 9l-32 0 39 39c1 1 2 3 2 6m126 186c0 1 0 2 0 3 0 29-24 53-54 53-14 0-26-5-35-13-20 30-53 49-91 49-54 0-98-39-106-91-32-8-55-36-55-70 0-40 32-72 71-72l252 0c40 0 72 32 72 72 0 33-23 61-54 69m-18-123l-252 0c-29 0-53 24-53 54 0 25 17 46 41 52 7 2 13 8 14 15 6 44 44 76 88 76 31 0 50-6 67-32 2-4 16-16 21-17 1 0 3 0 3 0 4 0 8 2 11 5 7 5 15 8 24 8 20 0 36-16 36-36l0-1c-1-8 5-16 13-18 24-6 41-28 41-52 0-30-24-54-54-54"/>
<glyph glyph-name="cloud-refresh" unicode="&#57395;" d="M258 195c-1 2-3 3-5 4l0 1c-1-1-1-1-2-1l-36 10 0 0c-2 0-4 0-6-1-5-3-6-8-4-12 2-3 4-4 6-5l14-3c-13-10-21-25-21-42 0-22 14-41 34-50l4 18c-11 6-20 18-20 32 0 12 6 22 14 28l-5-18c0-2 0-5 1-7 3-4 8-6 13-3 2 1 3 3 4 5l10 37c0 2 0 5-1 7m144 114c0 3 0 5 0 8 0 59-48 108-108 108-41 0-77-24-95-58-7 2-14 4-22 4-34 0-62-28-62-63 0-5 0-9 1-13-32-11-55-41-55-77 0-45 36-81 80-81l36 0c5 0 9 4 9 9 0 5-4 9-9 9l-36 0c-34 0-62 28-62 63 0 27 17 51 43 60l15 5-4 15c0 4-1 7-1 10 0 25 21 45 45 45 5 0 11-1 16-3l14-5 8 14c15 29 46 48 79 48 50 0 90-41 90-90 0-2 0-3 0-5l0-1-1-13 11-5c27-11 44-37 44-66 0-40-32-72-72-72l-27 0c-5 0-9-4-9-9 0-5 4-9 9-9l27 0c50 0 90 40 90 90 0 37-23 69-54 82m-96-208l-14 3c12 10 20 25 20 42 0 22-13 41-32 50l-5-18c11-6 19-18 19-32 0-11-5-21-13-27l5 17c0 3 0 5-1 7-3 4-8 6-13 3-2-1-3-3-4-5l-10-37c0-2 0-5 1-7 1-2 3-3 5-4l0 0c0 0 1 0 1 0l37-10c2 0 4 0 6 1 5 3 6 8 4 12-2 3-4 4-6 5"/>
<glyph glyph-name="cloud-upload" unicode="&#57396;" d="M312 236c5 0 9 4 9 9 0 2-1 5-3 6l-53 54c-2 2-4 3-7 3-2 0-4-1-6-3l-54-54c-2-1-3-4-3-6 0-5 4-9 9-9 3 0 5 1 7 2l38 39 0-212c0-5 4-9 9-9 5 0 9 4 9 9l0 212 39-39c1-1 4-2 6-2m90 100c0 3 0 5 0 8 0 59-48 107-108 107-41 0-77-23-95-57-7 2-14 4-22 4-34 0-62-29-62-63 0-5 0-9 1-14-32-10-55-40-55-76 0-45 36-81 80-81l81 0c5 0 9 4 9 9 0 5-4 9-9 9l-81 0c-34 0-62 28-62 63 0 27 17 51 43 59l15 5-4 16c0 3-1 7-1 10 0 24 21 45 45 45 5 0 11-1 16-3l14-6 8 14c15 30 46 48 79 48 50 0 90-40 90-89 0-2 0-4 0-5l0-2-1-12 11-5c27-12 44-38 44-66 0-40-32-72-72-72l-72 0c-5 0-9-4-9-9 0-5 4-9 9-9l72 0c50 0 90 40 90 90 0 37-23 68-54 82"/>
<glyph glyph-name="cmd" unicode="&#57397;" d="M420 451l-323 0c-20 0-36-16-36-36l0-323c0-20 16-36 36-36l323 0c20 0 36 16 36 36l0 323c0 20-16 36-36 36m18-359c0-10-8-18-18-18l-323 0c-10 0-18 8-18 18l0 323c0 10 8 18 18 18l323 0c10 0 18-8 18-18z m-198 135c0 3-1 5-3 7l0 0-72 54 0 0c-2 1-4 2-6 2-5 0-9-4-9-9 0-3 2-6 4-7l0 0 62-47-62-47 0 0c-2-2-4-4-4-7 0-5 4-9 9-9 2 0 4 1 6 2l0 0 72 54 0 0c2 1 3 4 3 7m63-63l-54 0c-5 0-9-4-9-9 0-5 4-9 9-9l54 0c5 0 9 4 9 9 0 5-4 9-9 9"/>
<glyph glyph-name="coffee" unicode="&#57398;" d="M222 344c5 0 9 4 9 9l0 89c0 5-4 9-9 9-5 0-9-4-9-9l0-89c0-5 4-9 9-9m108-18c5 0 9 4 9 9l0 89c0 5-4 9-9 9-5 0-9-4-9-9l0-89c0-5 4-9 9-9m-54 18c5 0 9 4 9 9l0 53c0 5-4 9-9 9-5 0-9-4-9-9l0-53c0-5 4-9 9-9m126-81l-18 0 0 27c0 10-8 18-18 18l-287 0c-10 0-18-8-18-18l0-108c0-46 24-86 61-108l-52 0c-5 0-9-4-9-9 0-5 4-9 9-9l305 0c5 0 9 4 9 9 0 5-4 9-9 9l-52 0c29 18 51 47 58 81l21 0c30 0 54 24 54 54 0 30-24 54-54 54m-144-189l-72 0c-32 0-60 14-80 36l232 0c-19-22-48-36-80-36m108 108c0-20-5-38-15-54l-258 0c-9 16-14 34-14 54l0 108 287 0z m36-9l-18 0c0 3 0 6 0 9l0 63 18 0c20 0 36-16 36-36 0-20-16-36-36-36m-287 171c4 0 8 4 8 9l0 53c0 5-4 9-8 9-5 0-9-4-9-9l0-53c0-5 4-9 9-9m53-18c5 0 9 4 9 9l0 89c0 5-4 9-9 9-5 0-9-4-9-9l0-89c0-5 4-9 9-9"/>
<glyph glyph-name="companies" unicode="&#57399;" d="M146 288c-7 0-12-5-12-11l0-63c0-6 5-10 12-10l72 0c7 0 12 4 12 10l0 63c0 6-5 11-12 11z m60-63l-48 0 0 42 48 0z m-60 168c-7 0-12-5-12-11l0-63c0-6 5-10 12-10l72 0c7 0 12 4 12 10l0 63c0 6-5 11-12 11z m60-63l-48 0 0 42 48 0z m133-277l-13 0 0 410c0 11-10 21-24 21l-253 0c-13 0-24-10-24-21l0-410-12 0c-7 0-12-5-12-11 0-5 5-10 12-10l326 0c6 0 12 5 12 10 0 6-6 11-12 11m-109 0l-96 0 0 105 96 0z m72 0l-48 0 0 115c0 6-5 11-12 11l-121 0c-6 0-12-5-12-11l0-115-60 0 0 410 253 0 0-410z m198 0l-12 0 0 263c0 11-11 21-24 21l-133 0c-13 0-24-10-24-21l0-263-12 0c-7 0-12-5-12-11 0-5 5-10 12-10l205 0c7 0 12 5 12 10 0 6-5 11-12 11m-169 0l0 263 133 0 0-263m-94 107c-5 0-9-3-9-8l0-47c0-4 4-8 9-8l55 0c5 0 9 4 9 8l0 47c0 5-4 8-9 8z m46-47l-37 0 0 31 37 0z m-46 152c-5 0-9-3-9-8l0-47c0-4 4-8 9-8l55 0c5 0 9 4 9 8l0 47c0 5-4 8-9 8z m46-47l-37 0 0 31 37 0z"/>
<glyph glyph-name="connect" unicode="&#57400;" d="M411 451c-25 0-45-20-45-45 0-21 16-39 36-43l0-100-100 0c-4 20-22 36-44 36-21 0-40-16-44-36l-108 0c-5 0-9-4-9-9l0-109c-21-4-36-22-36-44 0-25 20-45 45-45 24 0 44 20 44 45 0 22-15 40-35 44l0 100 99 0c4-21 23-36 44-36 22 0 40 15 44 36l109 0c5 0 9 4 9 9l0 109c20 4 36 22 36 43 0 25-20 45-45 45m-278-350c0-15-13-27-27-27-15 0-27 12-27 27 0 15 12 27 27 27 14 0 27-12 27-27m125 126c-15 0-27 12-27 27 0 15 12 27 27 27 15 0 27-12 27-27 0-15-12-27-27-27m153 153c-15 0-27 12-27 27 0 14 12 27 27 27 15 0 27-13 27-27 0-15-12-27-27-27"/>
<glyph glyph-name="counter-cal" unicode="&#57401;" d="M276 326l-144 0 0-126 144 0z m-18-108l-108 0 0 90 108 0z m54 0l-18 0 0-18 18 0z m-108-54l18 0 0 18-18 0z m27-72l54 0c5 0 9 4 9 9 0 5-4 9-9 9l-54 0c-5 0-9-4-9-9 0-5 4-9 9-9m-63 72l18 0 0 18-18 0z m-18 18l-18 0 0-18 18 0z m252 180l-63 0 0 35 27 0c10 0 18 9 18 18l0 18c0 10-8 18-18 18l-108 0c-10 0-18-8-18-18l0-18c0-9 8-18 18-18l27 0 0-35-170 0c-10 0-18-8-18-18l0-270c0-10 8-18 18-18l287 0c10 0 18 8 18 18l0 270c0 10-8 18-18 18m-126 53l-18 0 0 18 18 0z m18 18l72 0 0-18-72 0z m27-71l-18 0 0 35 18 0z m81-288l-287 0 0 54 287 0z m0 72l-287 0 0 198 287 0z m-36 54l18 0 0 18-18 0z m-36 0l18 0 0 18-18 0z m36 36l18 0 0 18-18 0z m0 36l18 0 0 18-18 0z m18 54l-90 0 0-18 90 0z m-36-36l-18 0 0-18 18 0z m-36 0l-18 0 0-18 18 0z m18-126l54 0 0 18-54 0z m0 72l18 0 0 18-18 0z m-18 18l-18 0 0-18 18 0z"/>
<glyph glyph-name="countries" unicode="&#57402;" d="M285 205c-25 21-22 31-53 31-31 0-51-8-43-51 8-44 31-24 29-58-2-33 6-40 11-48 5-8 20-32 26 1 6 33 17 51 29 67 13 16 26 37 1 58m100 2c-8-5-8-16-1-23 7-6 21-14 25 0 4 15-16 28-24 23m-186 74c2 17 29 35 47 43 18 8 35 11 33 24-3 14-8 24-36 24-28 0-16-37-39-15-24 23 5 17 16 22 12 5 24 26 3 28-20 1-16-9-32-3-16 5-23-21-33-17-7 2-25 16-37 29-24-20-43-46-56-75 3-39 24-60 24-60 0 0 11-25 77-56 0 0 12-1-2 14-15 14-31 32-13 42 18 9 24 8 28-9 4-17 19-7 20 9m57 231c-141 0-256-115-256-256 0-141 115-256 256-256 141 0 256 115 256 256 0 141-115 256-256 256m0-489c-129 0-233 104-233 233 0 129 104 233 233 233 129 0 233-104 233-233 0-129-104-233-233-233m208 252c0 2 0 4 0 6-1 5-1 9-2 14-1 2-1 4-2 6-1 5-2 9-3 13 0 2-1 4-1 6-2 5-4 11-7 16 0 2-2 5-3 7-1 3-3 6-4 9-2 3-3 6-5 8-1 3-2 5-4 8-2 2-4 5-6 8-1 2-2 3-3 5-8 11-17 21-27 30-1 0-2 1-2 2-4 3-8 6-11 9-1 0-1 0-1 0-17 13-35 23-55 30-6-9-12-21-19-25-10-6-9-29 10-27 0 0-6-6 0-27 6-21 16-26 45-14 12 5 21 3 20-10-3-27-24-26-8-69 9-26 33-36 41-57 5-11 24-21 39-28 2 5 3 11 5 17 0 2 0 4 1 6 1 4 1 9 2 13 0 2 0 4 1 6 0 6 0 13 0 19 0 7 0 13-1 19"/>
<glyph glyph-name="credit-card" unicode="&#57403;" d="M357 164l36 0c5 0 9 4 9 9l0 36c0 5-4 9-9 9l-36 0c-5 0-9-4-9-9l0-36c0-5 4-9 9-9m81 233l-359 0c-10 0-18-8-18-17l0-252c0-10 8-18 18-18l359 0c10 0 18 8 18 18l0 252c0 9-8 17-18 17m0-269l-359 0 0 144 359 0z m0 216l-359 0 0 36 359 0z m-315-144l162 0c5 0 9 4 9 9 0 5-4 9-9 9l-162 0c-4 0-8-4-8-9 0-5 4-9 8-9m0-36l126 0c5 0 9 4 9 9 0 5-4 9-9 9l-126 0c-4 0-8-4-8-9 0-5 4-9 8-9"/>
<glyph glyph-name="credit-cards" unicode="&#57404;" d="M285 146l36 0c5 0 9 4 9 9l0 36c0 5-4 9-9 9l-36 0c-5 0-9-4-9-9l0-36c0-5 4-9 9-9m-162 36l108 0c5 0 9 4 9 9 0 5-4 9-9 9l-108 0c-4 0-8-4-8-9 0-5 4-9 8-9m0-36l72 0c5 0 9 4 9 9 0 5-4 9-9 9l-72 0c-4 0-8-4-8-9 0-5 4-9 8-9m243 198l-287 0c-10 0-18-8-18-18l0-216c0-10 8-18 18-18l287 0c10 0 18 8 18 18l0 216c0 10-8 18-18 18m0-234l-287 0 0 126 287 0z m0 180l-287 0 0 36 287 0z m72 125l-288 0c-9 0-18-8-18-18l0-26c0-5 4-9 9-9 5 0 9 4 9 9l0 26 288 0 0-215-27 0c-5 0-9-4-9-9 0-5 4-9 9-9l27 0c10 0 18 8 18 18l0 215c0 10-8 18-18 18"/>
<glyph glyph-name="currency-2" unicode="&#57405;" d="M59 372l394 0c7 0 12 5 12 12 0 6-5 11-12 11l-394 0c-7 0-12-5-12-11 0-7 5-12 12-12m46 47l302 0c6 0 12 5 12 11 0 7-6 12-12 12l-302 0c-6 0-12-5-12-12 0-6 6-11 12-11m302-279l-23 0c-7 0-12-5-12-12 0-6 5-11 12-11l23 0c6 0 12 5 12 11 0 7-6 12-12 12m81 209l-464 0c-13 0-24-10-24-23l0-233c0-12 11-23 24-23l464 0c13 0 23 11 23 23l0 233c1 12-10 23-23 23m-453-23c7 0 12-6 12-12 0-6-5-12-12-12-6 0-11 6-11 12 0 6 5 12 11 12m0-233c-6 0-11 6-11 12 0 6 5 12 11 12 7 0 12-6 12-12 0-6-5-12-12-12m442 0c-7 0-12 6-12 12 0 6 5 12 12 12 6 0 11-6 11-12 0-6-5-12-11-12m11 45c-3 1-7 2-11 2-20 0-35-16-35-35 0-4 1-8 2-12l-376 0c1 4 2 8 2 12 0 19-15 35-35 35-4 0-8-1-11-2l0 143c3-1 7-2 11-2 20 0 35 16 35 35 0 4-1 8-2 12l376 0c-1-4-2-8-2-12 0-19 15-35 35-35 4 0 8 1 11 2z m-11 164c-7 0-12 6-12 12 0 6 5 12 12 12 6 0 11-6 11-12 0-6-5-12-11-12m-221 0c-51 0-93-41-93-92 0-52 42-93 93-93 51 0 93 41 93 93 0 51-42 92-93 92m-128 0l-23 0c-6 0-12-5-12-11 0-7 6-12 12-12l23 0c7 0 12 5 12 12 0 6-5 11-12 11"/>
<glyph glyph-name="dashboard" unicode="&#57406;" d="M233 318l-227 0 0 188 227 0z m-196 32l164 0 0 125-164 0z m196-344l-227 0 0 266 227 0z m-196 31l164 0 0 203-164 0z m469 203l-227 0 0 266 227 0z m-195 32l164 0 0 203-164 0z m195-266l-227 0 0 188 227 0z m-195 31l164 0 0 125-164 0z"/>
</font>
</defs>
</svg>
